<svg id="Layer_1" data-name="Layer 1" xmlns="http://www.w3.org/2000/svg" viewBox="0 0 201.48 201.48"><defs><style>.cls-1{fill:#404041;}.cls-2{fill:#3276b4;}.cls-3,.cls-4{fill:none;stroke:#3276b4;stroke-miterlimit:10;}.cls-3{stroke-linecap:round;stroke-width:1.01px;}.cls-4{stroke-width:6.73px;}</style></defs><title>Z-tel-Web-TD-LTE-11</title><rect class="cls-1" x="88.97" y="113.5" width="3.59" height="53.84" transform="translate(181.53 280.83) rotate(-180)"/><path class="cls-1" d="M90.69,75.88a6.11,6.11,0,1,0-6.12-6.11A6.12,6.12,0,0,0,90.69,75.88Zm0-3.75A2.36,2.36,0,1,1,93,69.77,2.36,2.36,0,0,1,90.69,72.13Z"/><path class="cls-1" d="M61.13,98.72a11.13,11.13,0,0,0,9.26,11v4.72h6.88L81.47,110l4.22,4.36h6.88V90a20.3,20.3,0,0,0,0-40.43h0V41.93s0-.07,0-.11,0-.05,0-.08v-.18l0-.07,0-.1,0-.07,0-.1,0-.1,0-.06-.06-.1,0-.06-.06-.08-.05-.07-.05-.06L92,40.61h0l-.05,0-.08-.07-.07-.05-.07-.05-.08,0-.08,0-.09,0-.08,0-.09,0-.09,0-.09,0-.09,0H74.14v-9.8a1.88,1.88,0,1,0-3.75,0V69.75h0v18A11.13,11.13,0,0,0,61.13,98.72Zm17.71-10-.6.62a11,11,0,0,0-4.09-1.6V84.11Zm-4.7-42.16,4.72,4.88-4.72,4.88Zm12.12-2.76-4.79,4.95-4.79-4.95Zm2.55,5.73a20.18,20.18,0,0,0-3.48.63l3.48-3.59Zm1.88,36.77a16.57,16.57,0,1,1,11.41-4.58A16.57,16.57,0,0,1,90.69,86.32ZM88.81,90v3.34l-4.25-4.19A20.16,20.16,0,0,0,88.81,90Zm-4.72,17.35,4.72-4.88v9.77ZM81,91.9l.5-.52L88,97.84,81.9,104.2A11.08,11.08,0,0,0,81,91.9Zm-6.87,17.76A11,11,0,0,0,78,108.2l-3.89,4ZM64.88,98.72a7.36,7.36,0,1,1,7.36,7.36A7.37,7.37,0,0,1,64.88,98.72Z"/><path class="cls-1" d="M72.23,100.74a1.88,1.88,0,0,1,0-3.75A1.88,1.88,0,0,1,72.23,100.74Z"/><path class="cls-1" d="M72.26,27a1.88,1.88,0,0,1,0-3.75A1.88,1.88,0,0,1,72.26,27Z"/><rect class="cls-1" x="70.43" y="113.5" width="3.59" height="53.84" transform="translate(144.45 280.83) rotate(-180)"/><polygon class="cls-1" points="70.94 129.26 88.15 112.06 90.69 114.6 70.94 134.34 70.94 129.26"/><polygon class="cls-1" points="90.63 133 72.22 114.6 74.77 112.06 90.63 127.92 90.63 133"/><polygon class="cls-1" points="70.94 143.14 88.15 125.94 90.69 128.48 70.94 148.23 70.94 143.14"/><polygon class="cls-1" points="90.63 146.88 72.22 128.48 74.77 125.94 90.63 141.8 90.63 146.88"/><polygon class="cls-1" points="70.94 157.03 88.15 139.82 90.69 142.37 70.94 162.11 70.94 157.03"/><polygon class="cls-1" points="90.63 160.77 72.22 142.37 74.77 139.82 90.63 155.69 90.63 160.77"/><path class="cls-1" d="M124,110.48a7.12,7.12,0,0,0-7.8-3.67,7.73,7.73,0,0,0-4.44,2.45l-8,9.33-10.4,3.06-.15.15a3,3,0,0,0-1.76,1.76,3.34,3.34,0,0,0-.08,2.52,3,3,0,0,0,3.82,2l11.93-3.36a2.79,2.79,0,0,0,1.22-.92l3.21-4,6.27,11-9.94,4.44a3.78,3.78,0,0,0-2.29,3.06l-2.29,13.77v1.22a4.28,4.28,0,0,0,1.76,2.75,4.27,4.27,0,0,0,6.65-2.45l1.84-11.47,11.17-4.89v12.39a2.47,2.47,0,0,0,.31,1.07l7.19,15.45a4,4,0,0,0,4.44,2.14,3.62,3.62,0,0,0,2.83-1.61,4.66,4.66,0,0,0,.84-3.14,8.76,8.76,0,0,0-.46-1.53L133.14,148l.31-19v-1.22a6.11,6.11,0,0,0-.76-2.29Zm8.72,15"/><path class="cls-1" d="M107,96l-.11.17H99.75a2.13,2.13,0,0,0,0,4.25H106A6.42,6.42,0,1,0,107,96Zm0,0"/><path class="cls-2" d="M129.52,121.82a4.6,4.6,0,0,0-6.1,4.84l-.24.12-9,4.88h0a2.24,2.24,0,1,0,2.28,3.86h0l8.67-5.46.23-.15a4.6,4.6,0,0,0,7.18-3,.4.4,0,0,0-.59-.41l-2.72,1.6-2.2-1.38-.14-2.59,2.72-1.61a.4.4,0,0,0-.07-.72ZM114.78,133a.83.83,0,1,1-.29,1.13.83.83,0,0,1,.29-1.13Zm0,0"/><line class="cls-3" x1="111.02" y1="110.09" x2="121.07" y2="128.45"/><line class="cls-3" x1="118.76" y1="106.69" x2="127.67" y2="122.97"/><circle class="cls-4" cx="100.74" cy="100.74" r="97.38"/></svg>