<?xml version="1.0" encoding="utf-8"?>
<!-- Generator: Adobe Illustrator 21.0.0, SVG Export Plug-In . SVG Version: 6.00 Build 0)  -->
<svg version="1.1" id="Layer_1" xmlns="http://www.w3.org/2000/svg" xmlns:xlink="http://www.w3.org/1999/xlink" x="0px" y="0px"
	 viewBox="0 0 156.9 75.7" style="enable-background:new 0 0 156.9 75.7;" xml:space="preserve">
<style type="text/css">
	.st0{fill:#3176B5;stroke:#3176B5;stroke-width:0.2213;stroke-miterlimit:10;}
	.st1{font-family:'DastNevis';}
	.st2{font-size:22.61px;}
	.st3{fill:#3176B5;}
</style>
<text transform="matrix(0.989 -0.2272 0.2239 0.9746 16.6332 41.8725)" class="st0 st1 st2">اه یا هفرح یارب</text>
<g>
	<g>
		<path class="st3" d="M1.4,48c17.1-0.5,33.7,8.4,45.7,20.1c2.6,2.5,7,9.5,11.5,7.2c0.9-0.5,1.7-1.7,2.4-2.4
			c11.9-12.9,26.5-23.1,42.5-30.3c16.4-7.4,34.1-11.3,52-12.5c1.9-0.1,1.9-3.1,0-3c-27.1,1.8-53.6,10-75.9,25.7
			c-6.4,4.5-12.3,9.4-17.8,15c-1.3,1.3-2.6,3.4-4.1,4.4c-0.3,0.2-0.9,0.7-0.5,0.6c-2.1,0.6-7.5-6.4-9.2-8
			C35.4,53.2,18.8,44.5,1.4,45C-0.5,45.1-0.5,48.1,1.4,48L1.4,48z"/>
	</g>
</g>
</svg>
