<svg id="Layer_1" data-name="Layer 1" xmlns="http://www.w3.org/2000/svg" viewBox="0 0 283.46 283.46"><defs><style>.cls-1{fill:#333;}.cls-2{fill:#3273b3;}.cls-3{fill:none;stroke:#3273b3;stroke-miterlimit:10;stroke-width:9.6px;}</style></defs><title>service Icon-1</title><path class="cls-1" d="M184,206.65l-10.44-.28,1-36.43A12.9,12.9,0,0,0,162,156.72l-32-.85a12.9,12.9,0,0,0-13.23,12.54l-1,36.43-10.44-.28,1-36.43a23.33,23.33,0,0,1,23.94-22.7l32,.85A23.38,23.38,0,0,1,185,170.22Z"/><circle class="cls-2" cx="185.69" cy="113.74" r="8.38" transform="translate(-26.04 164.61) rotate(-45)"/><circle class="cls-2" cx="157.43" cy="92.16" r="8.38" transform="translate(-19.06 138.32) rotate(-45)"/><circle class="cls-2" cx="115.72" cy="85.19" r="8.38" transform="translate(-26.34 106.77) rotate(-45)"/><circle class="cls-2" cx="103.85" cy="118.2" r="8.38" transform="translate(-53.16 108.05) rotate(-45)"/><path class="cls-1" d="M141.7,155.89l-6.78-.42C137.13,120,121,96,120.87,95.75l5.6-3.83C127.19,93,144,118.13,141.7,155.89Z"/><path class="cls-1" d="M147.7,154.62c-.17-1.06-4.19-26.31,2.33-53l6.59,1.61c-6.2,25.37-2.27,50.06-2.23,50.3Z"/><path class="cls-1" d="M159.75,154.66c0-1.14-.65-27.94,14.44-37.6l3.66,5.72c-9.86,6.32-11.51,25-11.31,31.68Z"/><path class="cls-1" d="M123.76,155.86c-2.65-18.75-13.42-26.53-13.88-26.85l3.86-5.58c.56.38,13.65,9.63,16.73,31.48Z"/><path class="cls-3" d="M210.86,98.78v73a33.2,33.2,0,0,1-33.2,33.2H105.81a33.2,33.2,0,0,1-33.2-33.2l.19-61.72"/></svg>