<svg id="Layer_1" data-name="Layer 1" xmlns="http://www.w3.org/2000/svg" viewBox="0 0 283.46 283.46"><defs><style>.cls-1{fill:#333;}.cls-2{fill:#3276b4;}</style></defs><title>service Icon-1</title><path class="cls-1" d="M173.21,212.86h30.91a3.54,3.54,0,0,0,2.67-1.21,4.08,4.08,0,0,0,1.13-2.87V74.68a4.07,4.07,0,0,0-1.13-2.87,3.54,3.54,0,0,0-2.67-1.21l-51,15.6,5.41,6,41.75-13.42V204.7H177.51"/><path class="cls-1" d="M190.81,192.3a1.77,1.77,0,0,0,1.34-.61,2,2,0,0,0,.56-1.43v-4.08a2,2,0,0,0-.56-1.44,1.78,1.78,0,0,0-1.34-.6H187a1.78,1.78,0,0,0-1.34.6,2,2,0,0,0-.56,1.44v4.08a2,2,0,0,0,.56,1.43,1.77,1.77,0,0,0,1.34.61Zm0,0"/><path class="cls-1" d="M190.81,176a1.78,1.78,0,0,0,1.34-.6,2,2,0,0,0,.56-1.44v-4.08a2,2,0,0,0-.56-1.43,1.77,1.77,0,0,0-1.34-.61H187a1.77,1.77,0,0,0-1.34.61,2,2,0,0,0-.56,1.43v4.08a2,2,0,0,0,.56,1.44,1.78,1.78,0,0,0,1.34.6Zm0,0"/><path class="cls-1" d="M190.81,159.65a1.76,1.76,0,0,0,1.34-.6,2,2,0,0,0,.56-1.44v-4.08a2,2,0,0,0-.56-1.44,1.78,1.78,0,0,0-1.34-.6H187a1.78,1.78,0,0,0-1.34.6,2,2,0,0,0-.56,1.44v4.08a2,2,0,0,0,.56,1.44,1.77,1.77,0,0,0,1.34.6Zm0,0"/><path class="cls-1" d="M190.81,143.34a1.77,1.77,0,0,0,1.34-.61,2,2,0,0,0,.56-1.43v-4.08a2,2,0,0,0-.56-1.43,1.77,1.77,0,0,0-1.34-.61H187a1.77,1.77,0,0,0-1.34.61,2,2,0,0,0-.56,1.43v4.08a2,2,0,0,0,.56,1.43,1.77,1.77,0,0,0,1.34.61Zm0,0"/><path class="cls-1" d="M190.81,127a1.78,1.78,0,0,0,1.34-.6,2,2,0,0,0,.56-1.44V120.9a2,2,0,0,0-.56-1.43,1.77,1.77,0,0,0-1.34-.6H187a1.77,1.77,0,0,0-1.34.6,2,2,0,0,0-.56,1.43V125a2,2,0,0,0,.56,1.44,1.78,1.78,0,0,0,1.34.6Zm0,0"/><path class="cls-1" d="M190.81,113.82a1.78,1.78,0,0,0,1.34-.6,2,2,0,0,0,.56-1.44v-4.08a2,2,0,0,0-.56-1.43,1.77,1.77,0,0,0-1.34-.6H187a1.77,1.77,0,0,0-1.34.6,2,2,0,0,0-.56,1.43v4.08a2,2,0,0,0,.56,1.44,1.78,1.78,0,0,0,1.34.6Zm0,0"/><path class="cls-1" d="M101.69,116.12l-20.29-6.52v97h21.23l2,6.28H78.47a2.73,2.73,0,0,1-2.06-.93,3.14,3.14,0,0,1-.87-2.21V106.45a3.14,3.14,0,0,1,.87-2.21,2.73,2.73,0,0,1,2.06-.93l23.8,7.29"/><path class="cls-1" d="M88.71,197h2.93a1.36,1.36,0,0,0,1-.47,1.56,1.56,0,0,0,.43-1.1v-3.14a1.56,1.56,0,0,0-.43-1.11,1.37,1.37,0,0,0-1-.46H88.71a1.37,1.37,0,0,0-1,.46,1.58,1.58,0,0,0-.43,1.11v3.14a1.57,1.57,0,0,0,.43,1.1,1.36,1.36,0,0,0,1,.47Zm0,0"/><path class="cls-1" d="M88.71,184.46h2.93a1.37,1.37,0,0,0,1-.46,1.57,1.57,0,0,0,.43-1.11v-3.14a1.56,1.56,0,0,0-.43-1.1,1.36,1.36,0,0,0-1-.47H88.71a1.36,1.36,0,0,0-1,.47,1.57,1.57,0,0,0-.43,1.1v3.14a1.58,1.58,0,0,0,.43,1.11,1.37,1.37,0,0,0,1,.46Zm0,0"/><path class="cls-1" d="M88.71,171.89h2.93a1.36,1.36,0,0,0,1-.46,1.56,1.56,0,0,0,.43-1.11v-3.14a1.56,1.56,0,0,0-.43-1.11,1.37,1.37,0,0,0-1-.46H88.71a1.37,1.37,0,0,0-1,.46,1.58,1.58,0,0,0-.43,1.11v3.14a1.58,1.58,0,0,0,.43,1.11,1.36,1.36,0,0,0,1,.46Zm0,0"/><path class="cls-1" d="M88.71,159.32h2.93a1.36,1.36,0,0,0,1-.47,1.55,1.55,0,0,0,.43-1.1v-3.14a1.56,1.56,0,0,0-.43-1.1,1.36,1.36,0,0,0-1-.47H88.71a1.36,1.36,0,0,0-1,.47,1.57,1.57,0,0,0-.43,1.1v3.14a1.56,1.56,0,0,0,.43,1.1,1.36,1.36,0,0,0,1,.47Zm0,0"/><path class="cls-1" d="M88.71,146.76h2.93a1.37,1.37,0,0,0,1-.46,1.56,1.56,0,0,0,.43-1.11V142a1.56,1.56,0,0,0-.43-1.1,1.36,1.36,0,0,0-1-.47H88.71a1.36,1.36,0,0,0-1,.47,1.57,1.57,0,0,0-.43,1.1v3.14a1.58,1.58,0,0,0,.43,1.11,1.37,1.37,0,0,0,1,.46Zm0,0"/><path class="cls-1" d="M88.71,136.6h2.93a1.37,1.37,0,0,0,1-.46A1.56,1.56,0,0,0,93.1,135v-3.14a1.56,1.56,0,0,0-.43-1.1,1.36,1.36,0,0,0-1-.47H88.71a1.36,1.36,0,0,0-1,.47,1.57,1.57,0,0,0-.43,1.1V135a1.58,1.58,0,0,0,.43,1.11,1.37,1.37,0,0,0,1,.46Zm0,0"/><path class="cls-2" d="M114.75,170.59l40.05-43.86v-.3l-40.33.35v-7.3l50-.35v5.3L126,168.37v.3l34.45-.27v7.3h-45.7Z"/><path class="cls-1" d="M178.47,93.81a3.28,3.28,0,0,0-2.53-1.21l-72-22a3.28,3.28,0,0,0-2.53,1.21,4.2,4.2,0,0,0-1.07,2.87v134.1a4.21,4.21,0,0,0,1.07,2.87,3.28,3.28,0,0,0,2.53,1.21h72a3.28,3.28,0,0,0,2.53-1.21,4.21,4.21,0,0,0,1.07-2.87V96.68a4.2,4.2,0,0,0-1.07-2.87ZM172.34,204.7H150.74V185.16a2.1,2.1,0,0,0-.54-1.44,1.63,1.63,0,0,0-1.26-.6h-18a1.63,1.63,0,0,0-1.26.6,2.1,2.1,0,0,0-.54,1.44V204.7H107.55V78.76l64.79,22Zm0,0"/><path class="cls-1" d="M116.55,192.3h3.6a1.64,1.64,0,0,0,1.27-.61,2.08,2.08,0,0,0,.53-1.43v-4.08a2.09,2.09,0,0,0-.53-1.44,1.65,1.65,0,0,0-1.27-.6h-3.6a1.65,1.65,0,0,0-1.27.6,2.11,2.11,0,0,0-.53,1.44v4.08a2.1,2.1,0,0,0,.53,1.43,1.64,1.64,0,0,0,1.27.61Zm0,0"/><path class="cls-1" d="M116.55,176h3.6a1.65,1.65,0,0,0,1.27-.6,2.1,2.1,0,0,0,.53-1.44v-4.08a2.09,2.09,0,0,0-.53-1.43,1.64,1.64,0,0,0-1.27-.61h-3.6a1.64,1.64,0,0,0-1.27.61,2.1,2.1,0,0,0-.53,1.43v4.08a2.11,2.11,0,0,0,.53,1.44,1.65,1.65,0,0,0,1.27.6Zm0,0"/><path class="cls-1" d="M130.94,176h3.6a1.65,1.65,0,0,0,1.27-.6,2.11,2.11,0,0,0,.53-1.44v-4.08a2.1,2.1,0,0,0-.53-1.43,1.64,1.64,0,0,0-1.27-.61h-3.6a1.64,1.64,0,0,0-1.26.61,2.09,2.09,0,0,0-.54,1.43v4.08a2.1,2.1,0,0,0,.54,1.44,1.65,1.65,0,0,0,1.26.6Zm0,0"/><path class="cls-1" d="M116.55,159.65h3.6a1.63,1.63,0,0,0,1.27-.6,2.09,2.09,0,0,0,.53-1.44v-4.08a2.09,2.09,0,0,0-.53-1.44,1.65,1.65,0,0,0-1.27-.6h-3.6a1.65,1.65,0,0,0-1.27.6,2.11,2.11,0,0,0-.53,1.44v4.08a2.11,2.11,0,0,0,.53,1.44,1.63,1.63,0,0,0,1.27.6Zm0,0"/><path class="cls-1" d="M159.74,192.3h3.6a1.64,1.64,0,0,0,1.27-.61,2.1,2.1,0,0,0,.53-1.43v-4.08a2.11,2.11,0,0,0-.53-1.44,1.65,1.65,0,0,0-1.27-.6h-3.6a1.65,1.65,0,0,0-1.26.6,2.09,2.09,0,0,0-.53,1.44v4.08a2.08,2.08,0,0,0,.53,1.43,1.63,1.63,0,0,0,1.26.61Zm0,0"/><path class="cls-1" d="M145.34,176h3.6a1.64,1.64,0,0,0,1.26-.6,2.1,2.1,0,0,0,.53-1.44v-4.08a2.09,2.09,0,0,0-.53-1.43,1.64,1.64,0,0,0-1.26-.61h-3.6a1.64,1.64,0,0,0-1.27.61,2.1,2.1,0,0,0-.53,1.43v4.08a2.11,2.11,0,0,0,.53,1.44,1.65,1.65,0,0,0,1.27.6Zm0,0"/><path class="cls-1" d="M130.94,159.65h3.6a1.63,1.63,0,0,0,1.27-.6,2.11,2.11,0,0,0,.53-1.44v-4.08a2.11,2.11,0,0,0-.53-1.44,1.65,1.65,0,0,0-1.27-.6h-3.6a1.65,1.65,0,0,0-1.26.6,2.1,2.1,0,0,0-.54,1.44v4.08a2.1,2.1,0,0,0,.54,1.44,1.63,1.63,0,0,0,1.26.6Zm0,0"/><path class="cls-1" d="M116.55,143.34h3.6a1.64,1.64,0,0,0,1.27-.61,2.08,2.08,0,0,0,.53-1.43v-4.08a2.09,2.09,0,0,0-.53-1.43,1.64,1.64,0,0,0-1.27-.61h-3.6a1.64,1.64,0,0,0-1.27.61,2.1,2.1,0,0,0-.53,1.43v4.08a2.1,2.1,0,0,0,.53,1.43,1.64,1.64,0,0,0,1.27.61Zm0,0"/><path class="cls-1" d="M159.74,176h3.6a1.65,1.65,0,0,0,1.27-.6,2.11,2.11,0,0,0,.53-1.44v-4.08a2.1,2.1,0,0,0-.53-1.43,1.64,1.64,0,0,0-1.27-.61h-3.6a1.64,1.64,0,0,0-1.26.61,2.09,2.09,0,0,0-.53,1.43v4.08a2.1,2.1,0,0,0,.53,1.44,1.64,1.64,0,0,0,1.26.6Zm0,0"/><path class="cls-1" d="M145.34,159.65h3.6a1.63,1.63,0,0,0,1.26-.6,2.09,2.09,0,0,0,.53-1.44v-4.08a2.09,2.09,0,0,0-.53-1.44,1.64,1.64,0,0,0-1.26-.6h-3.6a1.65,1.65,0,0,0-1.27.6,2.11,2.11,0,0,0-.53,1.44v4.08a2.11,2.11,0,0,0,.53,1.44,1.63,1.63,0,0,0,1.27.6Zm0,0"/><path class="cls-1" d="M130.94,143.34h3.6a1.64,1.64,0,0,0,1.27-.61,2.1,2.1,0,0,0,.53-1.43v-4.08a2.1,2.1,0,0,0-.53-1.43,1.64,1.64,0,0,0-1.27-.61h-3.6a1.64,1.64,0,0,0-1.26.61,2.09,2.09,0,0,0-.54,1.43v4.08a2.08,2.08,0,0,0,.54,1.43,1.64,1.64,0,0,0,1.26.61Zm0,0"/><path class="cls-1" d="M116.55,127h3.6a1.65,1.65,0,0,0,1.27-.6,2.09,2.09,0,0,0,.53-1.44V120.9a2.09,2.09,0,0,0-.53-1.43,1.63,1.63,0,0,0-1.27-.6h-3.6a1.63,1.63,0,0,0-1.27.6,2.11,2.11,0,0,0-.53,1.43V125a2.11,2.11,0,0,0,.53,1.44,1.65,1.65,0,0,0,1.27.6Zm0,0"/><path class="cls-1" d="M159.74,159.65h3.6a1.63,1.63,0,0,0,1.27-.6,2.11,2.11,0,0,0,.53-1.44v-4.08a2.11,2.11,0,0,0-.53-1.44,1.65,1.65,0,0,0-1.27-.6h-3.6a1.65,1.65,0,0,0-1.26.6,2.09,2.09,0,0,0-.53,1.44v4.08a2.09,2.09,0,0,0,.53,1.44,1.63,1.63,0,0,0,1.26.6Zm0,0"/><path class="cls-1" d="M145.34,143.34h3.6a1.64,1.64,0,0,0,1.26-.61,2.08,2.08,0,0,0,.53-1.43v-4.08a2.09,2.09,0,0,0-.53-1.43,1.64,1.64,0,0,0-1.26-.61h-3.6a1.64,1.64,0,0,0-1.27.61,2.1,2.1,0,0,0-.53,1.43v4.08a2.1,2.1,0,0,0,.53,1.43,1.64,1.64,0,0,0,1.27.61Zm0,0"/><path class="cls-1" d="M130.94,127h3.6a1.65,1.65,0,0,0,1.27-.6,2.11,2.11,0,0,0,.53-1.44V120.9a2.11,2.11,0,0,0-.53-1.43,1.64,1.64,0,0,0-1.27-.6h-3.6a1.63,1.63,0,0,0-1.26.6,2.09,2.09,0,0,0-.54,1.43V125a2.1,2.1,0,0,0,.54,1.44,1.65,1.65,0,0,0,1.26.6Zm0,0"/><path class="cls-1" d="M159.74,143.34h3.6a1.64,1.64,0,0,0,1.27-.61,2.1,2.1,0,0,0,.53-1.43v-4.08a2.1,2.1,0,0,0-.53-1.43,1.64,1.64,0,0,0-1.27-.61h-3.6a1.64,1.64,0,0,0-1.26.61,2.09,2.09,0,0,0-.53,1.43v4.08a2.08,2.08,0,0,0,.53,1.43,1.63,1.63,0,0,0,1.26.61Zm0,0"/><path class="cls-1" d="M145.34,127h3.6a1.64,1.64,0,0,0,1.26-.6,2.09,2.09,0,0,0,.53-1.44V120.9a2.09,2.09,0,0,0-.53-1.43,1.63,1.63,0,0,0-1.26-.6h-3.6a1.63,1.63,0,0,0-1.27.6,2.11,2.11,0,0,0-.53,1.43V125a2.11,2.11,0,0,0,.53,1.44,1.65,1.65,0,0,0,1.27.6Zm0,0"/><path class="cls-1" d="M159.74,127h3.6a1.65,1.65,0,0,0,1.27-.6,2.11,2.11,0,0,0,.53-1.44V120.9a2.11,2.11,0,0,0-.53-1.43,1.64,1.64,0,0,0-1.27-.6h-3.6a1.63,1.63,0,0,0-1.26.6,2.09,2.09,0,0,0-.53,1.43V125a2.09,2.09,0,0,0,.53,1.44,1.64,1.64,0,0,0,1.26.6Zm0,0"/><path class="cls-1" d="M116.55,113.82h3.6a1.65,1.65,0,0,0,1.27-.6,2.09,2.09,0,0,0,.53-1.44v-4.08a2.09,2.09,0,0,0-.53-1.43,1.63,1.63,0,0,0-1.27-.6h-3.6a1.63,1.63,0,0,0-1.27.6,2.11,2.11,0,0,0-.53,1.43v4.08a2.11,2.11,0,0,0,.53,1.44,1.65,1.65,0,0,0,1.27.6Zm0,0"/><path class="cls-1" d="M130.94,113.82h3.6a1.65,1.65,0,0,0,1.27-.6,2.11,2.11,0,0,0,.53-1.44v-4.08a2.11,2.11,0,0,0-.53-1.43,1.64,1.64,0,0,0-1.27-.6h-3.6a1.63,1.63,0,0,0-1.26.6,2.09,2.09,0,0,0-.54,1.43v4.08a2.1,2.1,0,0,0,.54,1.44,1.65,1.65,0,0,0,1.26.6Zm0,0"/><path class="cls-1" d="M145.34,113.82h3.6a1.64,1.64,0,0,0,1.26-.6,2.09,2.09,0,0,0,.53-1.44v-4.08a2.09,2.09,0,0,0-.53-1.43,1.63,1.63,0,0,0-1.26-.6h-3.6a1.63,1.63,0,0,0-1.27.6,2.11,2.11,0,0,0-.53,1.43v4.08a2.11,2.11,0,0,0,.53,1.44,1.65,1.65,0,0,0,1.27.6Zm0,0"/><path class="cls-1" d="M159.74,113.82h3.6a1.65,1.65,0,0,0,1.27-.6,2.11,2.11,0,0,0,.53-1.44v-4.08a2.11,2.11,0,0,0-.53-1.43,1.64,1.64,0,0,0-1.27-.6h-3.6a1.63,1.63,0,0,0-1.26.6,2.09,2.09,0,0,0-.53,1.43v4.08a2.09,2.09,0,0,0,.53,1.44,1.64,1.64,0,0,0,1.26.6Zm0,0"/></svg>