<svg id="Layer_1" data-name="Layer 1" xmlns="http://www.w3.org/2000/svg" viewBox="0 0 96.11 96.11"><defs><style>.cls-1{fill:none;stroke:#000;stroke-miterlimit:10;stroke-width:2px;}</style></defs><title>SPEED Load-1</title><path d="M69.11,53.34a6.12,6.12,0,0,0-12.17.88V70.48a6.12,6.12,0,0,0,12.17.88,4.37,4.37,0,0,0,3.45-4.26V57.6a4.37,4.37,0,0,0-3.45-4.26ZM70.61,67.1a2.41,2.41,0,0,1-1.43,2.2V60.73a1,1,0,0,0-2,0v9.75a4.17,4.17,0,1,1-8.33,0V54.22a4.17,4.17,0,0,1,8.33,0v2.6a1,1,0,0,0,2,0V55.41a2.41,2.41,0,0,1,1.43,2.2Zm0,0"/><path d="M35.2,48.1a6.13,6.13,0,0,0-6.05,5.24A4.37,4.37,0,0,0,25.7,57.6V67.1a4.37,4.37,0,0,0,3.45,4.26,6.12,6.12,0,0,0,12.17-.88V54.22A6.13,6.13,0,0,0,35.2,48.1Zm4.17,22.38a4.17,4.17,0,1,1-8.33,0V60.73a1,1,0,1,0-2,0V69.3a2.41,2.41,0,0,1-1.43-2.2V57.6a2.41,2.41,0,0,1,1.43-2.2v1.42a1,1,0,1,0,2,0v-2.6a4.17,4.17,0,0,1,8.33,0Zm0,0"/><path d="M70.54,27.8A30.27,30.27,0,0,0,18.86,49.2a1,1,0,0,0,1,1h.67a1,1,0,0,0,.32-1.9,28.32,28.32,0,0,1,56.61,0,1,1,0,0,0,.32,1.9h.67a1,1,0,0,0,1-1A30.08,30.08,0,0,0,70.54,27.8Zm0,0"/><path d="M49.13,22.21A27,27,0,0,0,22.85,55.38v7a1,1,0,0,0,2,0V55.27a1,1,0,0,0,0-.23,25,25,0,1,1,48.71,0,1,1,0,0,0,0,.23v7.09a1,1,0,0,0,2,0v-7A27,27,0,0,0,49.13,22.21Zm0,0"/><circle class="cls-1" cx="48.05" cy="48.05" r="47.05"/></svg>