<svg id="Layer_1" data-name="Layer 1" xmlns="http://www.w3.org/2000/svg" viewBox="0 0 96.11 96.11"><defs><style>.cls-1{fill:none;stroke:#000;stroke-miterlimit:10;stroke-width:2px;}</style></defs><title>SPEED Load-1</title><path d="M43.27,48a.84.84,0,0,0,.39.1.82.82,0,0,0,.43-.12l8.8-5.6a.8.8,0,0,0,0-1.35l-8.8-5.6a.8.8,0,0,0-1.23.68v11.2a.81.81,0,0,0,.41.7Zm1.18-10.45L51,41.65l-6.51,4.15Zm0,0"/><path d="M20.89,27.6V68.51H75.22V27.6Zm52.73,1.6V52.51H22.49V29.2ZM22.49,66.91V54.11H73.62v12.8Zm0,0"/><path d="M68.31,59.71h-29v-1.6a.8.8,0,1,0-1.6,0v1.6h-3.2a.8.8,0,1,0,0,1.6h3.2v1.6a.8.8,0,1,0,1.6,0v-1.6h29a.8.8,0,0,0,0-1.6Zm0,0"/><path d="M26.49,57.31a.8.8,0,0,0-.8.8v4.8a.8.8,0,1,0,1.6,0v-4.8a.8.8,0,0,0-.8-.8Zm0,0"/><path d="M29.69,57.31a.8.8,0,0,0-.8.8v4.8a.8.8,0,0,0,1.6,0v-4.8a.8.8,0,0,0-.8-.8Zm0,0"/><circle class="cls-1" cx="48.05" cy="48.05" r="47.05"/></svg>