<svg id="Layer_1" data-name="Layer 1" xmlns="http://www.w3.org/2000/svg" viewBox="0 0 96.11 96.11"><defs><style>.cls-1{fill:none;stroke:#000;stroke-miterlimit:10;stroke-width:2px;}</style></defs><title>SPEED Load-1</title><path d="M68,68.58H28.08a6,6,0,0,1-6-6V38.22a6,6,0,0,1,6-6h8.15l.71-2.41a3,3,0,0,1,2.91-2.28h16.4a3,3,0,0,1,2.92,2.3l0,.08.65,2.31H68a6,6,0,0,1,6,6V62.57a6,6,0,0,1-6,6ZM28.08,34.22a4,4,0,0,0-4,4V62.57a4,4,0,0,0,4,4H68a4,4,0,0,0,4-4V38.22a4,4,0,0,0-4-4H58.32l-1.1-3.91a1,1,0,0,0-1-.78H39.85a1,1,0,0,0-1,.78l-1.16,3.91Zm20,28.31a12.7,12.7,0,1,1,12.7-12.7,12.72,12.72,0,0,1-12.7,12.7Zm0-23.4a10.7,10.7,0,1,0,10.7,10.7,10.71,10.71,0,0,0-10.7-10.7Zm18.68-1.19a1.85,1.85,0,1,0,1.85,1.85,1.85,1.85,0,0,0-1.85-1.85Zm0,0"/><circle class="cls-1" cx="48.05" cy="48.05" r="47.05"/></svg>