<?xml version="1.0" encoding="utf-8"?>
<!-- Generator: Adobe Illustrator 21.0.0, SVG Export Plug-In . SVG Version: 6.00 Build 0)  -->
<svg version="1.1" id="Layer_1" xmlns="http://www.w3.org/2000/svg" xmlns:xlink="http://www.w3.org/1999/xlink" x="0px" y="0px"
	 viewBox="0 0 56 28.2" style="enable-background:new 0 0 56 28.2;" xml:space="preserve">
<style type="text/css">
	.st0{fill:#1A1A1A;}
	.st1{fill:#3176B5;}
	.st2{fill:#414042;}
	.st3{fill:#00B5D1;}
	.st4{fill:#1A1A1A;stroke:#000000;stroke-width:0.3508;stroke-miterlimit:10;}
	.st5{opacity:0.53;}
	.st6{opacity:0.1;}
	.st7{clip-path:url(#SVGID_2_);}
	.st8{fill:none;stroke:#000000;stroke-width:2.2752;stroke-linecap:round;stroke-linejoin:round;stroke-miterlimit:10;}
</style>
<g>
	<g>
		<path class="st1" d="M20.5,11c2.6-2.6,7-2.6,9.6,0c0.3,0.3,0.3,0.3,0.3,0.3c0.3,0.3,0.9,0.2,1.3-0.3l0.4-0.4
			c0.5-0.5,0.6-1.1,0.4-1.5c0,0,0,0-0.3-0.3c-3.8-3.8-10-3.8-13.8,0c-0.3,0.3-0.3,0.3-0.3,0.3c-0.3,0.3-0.1,1,0.4,1.5l0.4,0.4
			c0.5,0.5,1.1,0.6,1.3,0.3C20.2,11.2,20.2,11.2,20.5,11z"/>
		<ellipse transform="matrix(0.7071 -0.7071 0.7071 0.7071 -2.4343 21.9491)" class="st1" cx="25.3" cy="13.9" rx="2.5" ry="2.5"/>
		<path class="st1" d="M14,4.8C13.8,5,13.8,5,13.8,5c-0.2,0.3,0,0.9,0.5,1.3l0.4,0.4c0.5,0.5,1.1,0.6,1.3,0.4c0,0,0,0,0.2-0.2
			c0,0,0.1-0.1,0.1-0.1c5-5,13.1-5,18.1,0c0.1,0.1,0.2,0.2,0.2,0.3c0.2,0.2,0.2,0.2,0.2,0.2c0.2,0.2,0.7,0,1.2-0.5l0.4-0.4
			c0.5-0.5,0.7-1.1,0.5-1.3c0,0,0,0-0.2-0.2c-0.1-0.1-0.2-0.2-0.2-0.3c-6.1-6.1-16.1-6.1-22.3,0C14.1,4.7,14,4.7,14,4.8z"/>
	</g>
	<g>
		<path class="st2" d="M4.3,16.6H0v-0.9h9.6v0.9H5.3v11.6H4.3V16.6z"/>
		<path class="st2" d="M11,15.7h4.1c3.9,0,6.6,2.7,6.6,6.2v0c0,3.5-2.7,6.2-6.6,6.2H11V15.7z M15.1,27.3c3.5,0,5.7-2.4,5.7-5.3v0
			c0-3-2.2-5.4-5.7-5.4h-3.2v10.7H15.1z"/>
		<path class="st2" d="M23.4,21.6h3.8v2.7h-3.8V21.6z"/>
		<path class="st2" d="M29.4,16.7h3.2v8.7h5.6v2.8h-8.8V16.7z"/>
		<path class="st2" d="M39.7,19.4h-3.5v-2.8h10.1v2.8h-3.5v8.7h-3.2V19.4z"/>
		<path class="st2" d="M46.7,16.7H56v2.7h-6.1v1.7h5.5v2.5h-5.5v1.8H56v2.7h-9.3V16.7z"/>
	</g>
</g>
</svg>
