<?xml version="1.0" encoding="utf-8"?>
<!-- Generator: Adobe Illustrator 21.0.0, SVG Export Plug-In . SVG Version: 6.00 Build 0)  -->
<svg version="1.1" id="Layer_1" xmlns="http://www.w3.org/2000/svg" xmlns:xlink="http://www.w3.org/1999/xlink" x="0px" y="0px"
	 viewBox="0 0 47.5 51" style="enable-background:new 0 0 47.5 51;" xml:space="preserve">
<style type="text/css">
	.st0{fill:#1A1A1A;}
	.st1{fill:#3176B5;}
	.st2{fill:#414042;}
	.st3{fill:#00B5D1;}
	.st4{fill:#1A1A1A;stroke:#000000;stroke-width:0.3508;stroke-miterlimit:10;}
	.st5{opacity:0.53;}
	.st6{opacity:0.1;}
	.st7{clip-path:url(#SVGID_2_);}
	.st8{fill:none;stroke:#000000;stroke-width:2.2752;stroke-linecap:round;stroke-linejoin:round;stroke-miterlimit:10;}
</style>
<g>
	<g>
		<path class="st0" d="M35,51h11.1c0.4,0,0.7-0.1,1-0.4c0.3-0.3,0.4-0.6,0.4-1V1.5c0-0.4-0.1-0.7-0.4-1c-0.3-0.3-0.6-0.4-1-0.4
			L27.8,5.6l1.9,2.1l15-4.8v45.2h-8.2"/>
		<path class="st0" d="M41.3,43.6c0.2,0,0.3-0.1,0.5-0.2c0.1-0.1,0.2-0.3,0.2-0.5v-1.5c0-0.2-0.1-0.4-0.2-0.5
			c-0.1-0.1-0.3-0.2-0.5-0.2H40c-0.2,0-0.3,0.1-0.5,0.2c-0.1,0.1-0.2,0.3-0.2,0.5v1.5c0,0.2,0.1,0.4,0.2,0.5
			c0.1,0.1,0.3,0.2,0.5,0.2H41.3L41.3,43.6z M41.3,43.6"/>
		<path class="st0" d="M41.3,37.8c0.2,0,0.3-0.1,0.5-0.2c0.1-0.1,0.2-0.3,0.2-0.5v-1.5c0-0.2-0.1-0.4-0.2-0.5
			c-0.1-0.1-0.3-0.2-0.5-0.2H40c-0.2,0-0.3,0.1-0.5,0.2c-0.1,0.1-0.2,0.3-0.2,0.5v1.5c0,0.2,0.1,0.4,0.2,0.5
			c0.1,0.1,0.3,0.2,0.5,0.2H41.3L41.3,37.8z M41.3,37.8"/>
		<path class="st0" d="M41.3,31.9c0.2,0,0.3-0.1,0.5-0.2c0.1-0.1,0.2-0.3,0.2-0.5v-1.5c0-0.2-0.1-0.4-0.2-0.5
			c-0.1-0.1-0.3-0.2-0.5-0.2H40c-0.2,0-0.3,0.1-0.5,0.2c-0.1,0.1-0.2,0.3-0.2,0.5v1.5c0,0.2,0.1,0.4,0.2,0.5
			c0.1,0.1,0.3,0.2,0.5,0.2H41.3L41.3,31.9z M41.3,31.9"/>
		<path class="st0" d="M41.3,26.1c0.2,0,0.3-0.1,0.5-0.2c0.1-0.1,0.2-0.3,0.2-0.5v-1.5c0-0.2-0.1-0.4-0.2-0.5
			c-0.1-0.1-0.3-0.2-0.5-0.2H40c-0.2,0-0.3,0.1-0.5,0.2c-0.1,0.1-0.2,0.3-0.2,0.5v1.5c0,0.2,0.1,0.4,0.2,0.5
			c0.1,0.1,0.3,0.2,0.5,0.2H41.3L41.3,26.1z M41.3,26.1"/>
		<path class="st0" d="M41.3,20.2c0.2,0,0.3-0.1,0.5-0.2c0.1-0.1,0.2-0.3,0.2-0.5V18c0-0.2-0.1-0.4-0.2-0.5
			c-0.1-0.1-0.3-0.2-0.5-0.2H40c-0.2,0-0.3,0.1-0.5,0.2c-0.1,0.1-0.2,0.3-0.2,0.5v1.5c0,0.2,0.1,0.4,0.2,0.5
			c0.1,0.1,0.3,0.2,0.5,0.2H41.3L41.3,20.2z M41.3,20.2"/>
		<path class="st0" d="M41.3,15.5c0.2,0,0.3-0.1,0.5-0.2C42,15.1,42,15,42,14.8v-1.5c0-0.2-0.1-0.4-0.2-0.5
			c-0.1-0.1-0.3-0.2-0.5-0.2H40c-0.2,0-0.3,0.1-0.5,0.2c-0.1,0.1-0.2,0.3-0.2,0.5v1.5c0,0.2,0.1,0.4,0.2,0.5
			c0.1,0.1,0.3,0.2,0.5,0.2H41.3L41.3,15.5z M41.3,15.5"/>
	</g>
	<g>
		<g>
			<path class="st0" d="M9.4,15.8l-7.3-2.3v34.8h7.6l-0.1,2.3H1.1c-0.3,0-0.5-0.1-0.7-0.3C0.1,49.9,0,49.6,0,49.3l0-37
				c0-0.3,0.1-0.6,0.3-0.8c0.2-0.2,0.5-0.3,0.7-0.3l8.5,2.6"/>
		</g>
		<path class="st0" d="M4.7,44.8h1c0.1,0,0.3-0.1,0.4-0.2c0.1-0.1,0.2-0.2,0.2-0.4v-1.1c0-0.2-0.1-0.3-0.2-0.4
			c-0.1-0.1-0.2-0.2-0.4-0.2h-1c-0.1,0-0.3,0.1-0.4,0.2c-0.1,0.1-0.2,0.2-0.2,0.4v1.1c0,0.2,0.1,0.3,0.2,0.4
			C4.5,44.7,4.6,44.8,4.7,44.8L4.7,44.8z M4.7,44.8"/>
		<path class="st0" d="M4.7,40.3h1c0.1,0,0.3-0.1,0.4-0.2c0.1-0.1,0.2-0.2,0.2-0.4v-1.1c0-0.2-0.1-0.3-0.2-0.4C6,38.1,5.9,38,5.8,38
			h-1c-0.1,0-0.3,0.1-0.4,0.2c-0.1,0.1-0.2,0.2-0.2,0.4v1.1c0,0.2,0.1,0.3,0.2,0.4C4.5,40.2,4.6,40.3,4.7,40.3L4.7,40.3z M4.7,40.3"
			/>
		<path class="st0" d="M4.7,35.8h1c0.1,0,0.3-0.1,0.4-0.2c0.1-0.1,0.2-0.2,0.2-0.4v-1.1c0-0.2-0.1-0.3-0.2-0.4
			c-0.1-0.1-0.2-0.2-0.4-0.2h-1c-0.1,0-0.3,0.1-0.4,0.2c-0.1,0.1-0.2,0.2-0.2,0.4v1.1c0,0.2,0.1,0.3,0.2,0.4
			C4.5,35.7,4.6,35.8,4.7,35.8L4.7,35.8z M4.7,35.8"/>
		<path class="st0" d="M4.7,31.3h1c0.1,0,0.3-0.1,0.4-0.2c0.1-0.1,0.2-0.2,0.2-0.4v-1.1c0-0.2-0.1-0.3-0.2-0.4C6,29.1,5.9,29,5.8,29
			h-1c-0.1,0-0.3,0.1-0.4,0.2c-0.1,0.1-0.2,0.2-0.2,0.4v1.1c0,0.2,0.1,0.3,0.2,0.4C4.5,31.2,4.6,31.3,4.7,31.3L4.7,31.3z M4.7,31.3"
			/>
		<path class="st0" d="M4.7,26.8h1c0.1,0,0.3-0.1,0.4-0.2c0.1-0.1,0.2-0.2,0.2-0.4v-1.1c0-0.2-0.1-0.3-0.2-0.4
			c-0.1-0.1-0.2-0.2-0.4-0.2h-1c-0.1,0-0.3,0.1-0.4,0.2c-0.1,0.1-0.2,0.2-0.2,0.4v1.1c0,0.2,0.1,0.3,0.2,0.4
			C4.5,26.7,4.6,26.8,4.7,26.8L4.7,26.8z M4.7,26.8"/>
		<path class="st0" d="M4.7,23.1h1c0.1,0,0.3-0.1,0.4-0.2c0.1-0.1,0.2-0.2,0.2-0.4v-1.1c0-0.2-0.1-0.3-0.2-0.4
			c-0.1-0.1-0.2-0.2-0.4-0.2h-1c-0.1,0-0.3,0.1-0.4,0.2c-0.1,0.1-0.2,0.2-0.2,0.4v1.1c0,0.2,0.1,0.3,0.2,0.4
			C4.5,23.1,4.6,23.1,4.7,23.1L4.7,23.1z M4.7,23.1"/>
	</g>
	<g>
		<path class="st1" d="M14.1,35.9l14.4-15.7V20L14,20.2v-2.6l17.9-0.1v1.9L18.1,35.1v0.1l12.4-0.1v2.6H14.1V35.9z"/>
	</g>
	<g>
		<path class="st0" d="M36.9,8.3C36.7,8,36.4,7.9,36,7.9L10.2,0C9.8,0,9.5,0.1,9.3,0.4s-0.4,0.6-0.4,1v48.1c0,0.4,0.1,0.7,0.4,1
			c0.3,0.3,0.6,0.4,0.9,0.4H36c0.3,0,0.7-0.1,0.9-0.4c0.3-0.3,0.4-0.6,0.4-1V9.4C37.3,9,37.2,8.6,36.9,8.3L36.9,8.3z M34.7,48.1H27
			v-7c0-0.2-0.1-0.4-0.2-0.5c-0.1-0.1-0.3-0.2-0.5-0.2h-6.5c-0.2,0-0.3,0.1-0.5,0.2c-0.1,0.1-0.2,0.3-0.2,0.5v7h-7.7V2.9l23.2,7.9
			V48.1z M34.7,48.1"/>
		<path class="st0" d="M14.7,43.6H16c0.2,0,0.3-0.1,0.5-0.2c0.1-0.1,0.2-0.3,0.2-0.5v-1.5c0-0.2-0.1-0.4-0.2-0.5
			c-0.1-0.1-0.3-0.2-0.5-0.2h-1.3c-0.2,0-0.3,0.1-0.5,0.2c-0.1,0.1-0.2,0.3-0.2,0.5v1.5c0,0.2,0.1,0.4,0.2,0.5
			C14.4,43.6,14.5,43.6,14.7,43.6L14.7,43.6z M14.7,43.6"/>
		<path class="st0" d="M14.7,37.8H16c0.2,0,0.3-0.1,0.5-0.2c0.1-0.1,0.2-0.3,0.2-0.5v-1.5c0-0.2-0.1-0.4-0.2-0.5
			c-0.1-0.1-0.3-0.2-0.5-0.2h-1.3c-0.2,0-0.3,0.1-0.5,0.2c-0.1,0.1-0.2,0.3-0.2,0.5v1.5c0,0.2,0.1,0.4,0.2,0.5
			C14.4,37.7,14.5,37.8,14.7,37.8L14.7,37.8z M14.7,37.8"/>
		<path class="st0" d="M19.9,37.8h1.3c0.2,0,0.3-0.1,0.5-0.2c0.1-0.1,0.2-0.3,0.2-0.5v-1.5c0-0.2-0.1-0.4-0.2-0.5
			c-0.1-0.1-0.3-0.2-0.5-0.2h-1.3c-0.2,0-0.3,0.1-0.5,0.2c-0.1,0.1-0.2,0.3-0.2,0.5v1.5c0,0.2,0.1,0.4,0.2,0.5
			C19.5,37.7,19.7,37.8,19.9,37.8L19.9,37.8z M19.9,37.8"/>
		<path class="st0" d="M14.7,31.9H16c0.2,0,0.3-0.1,0.5-0.2c0.1-0.1,0.2-0.3,0.2-0.5v-1.5c0-0.2-0.1-0.4-0.2-0.5
			C16.3,29.1,16.2,29,16,29h-1.3c-0.2,0-0.3,0.1-0.5,0.2c-0.1,0.1-0.2,0.3-0.2,0.5v1.5c0,0.2,0.1,0.4,0.2,0.5
			C14.4,31.9,14.5,31.9,14.7,31.9L14.7,31.9z M14.7,31.9"/>
		<path class="st0" d="M30.2,43.6h1.3c0.2,0,0.3-0.1,0.5-0.2c0.1-0.1,0.2-0.3,0.2-0.5v-1.5c0-0.2-0.1-0.4-0.2-0.5
			c-0.1-0.1-0.3-0.2-0.5-0.2h-1.3c-0.2,0-0.3,0.1-0.5,0.2c-0.1,0.1-0.2,0.3-0.2,0.5v1.5c0,0.2,0.1,0.4,0.2,0.5
			C29.9,43.6,30,43.6,30.2,43.6L30.2,43.6z M30.2,43.6"/>
		<path class="st0" d="M25,37.8h1.3c0.2,0,0.3-0.1,0.5-0.2c0.1-0.1,0.2-0.3,0.2-0.5v-1.5c0-0.2-0.1-0.4-0.2-0.5
			c-0.1-0.1-0.3-0.2-0.5-0.2H25c-0.2,0-0.3,0.1-0.5,0.2c-0.1,0.1-0.2,0.3-0.2,0.5v1.5c0,0.2,0.1,0.4,0.2,0.5
			C24.7,37.7,24.9,37.8,25,37.8L25,37.8z M25,37.8"/>
		<path class="st0" d="M19.9,31.9h1.3c0.2,0,0.3-0.1,0.5-0.2c0.1-0.1,0.2-0.3,0.2-0.5v-1.5c0-0.2-0.1-0.4-0.2-0.5
			c-0.1-0.1-0.3-0.2-0.5-0.2h-1.3c-0.2,0-0.3,0.1-0.5,0.2c-0.1,0.1-0.2,0.3-0.2,0.5v1.5c0,0.2,0.1,0.4,0.2,0.5
			C19.5,31.9,19.7,31.9,19.9,31.9L19.9,31.9z M19.9,31.9"/>
		<path class="st0" d="M14.7,26.1H16c0.2,0,0.3-0.1,0.5-0.2c0.1-0.1,0.2-0.3,0.2-0.5v-1.5c0-0.2-0.1-0.4-0.2-0.5
			c-0.1-0.1-0.3-0.2-0.5-0.2h-1.3c-0.2,0-0.3,0.1-0.5,0.2c-0.1,0.1-0.2,0.3-0.2,0.5v1.5c0,0.2,0.1,0.4,0.2,0.5
			C14.4,26,14.5,26.1,14.7,26.1L14.7,26.1z M14.7,26.1"/>
		<path class="st0" d="M30.2,37.8h1.3c0.2,0,0.3-0.1,0.5-0.2c0.1-0.1,0.2-0.3,0.2-0.5v-1.5c0-0.2-0.1-0.4-0.2-0.5
			c-0.1-0.1-0.3-0.2-0.5-0.2h-1.3c-0.2,0-0.3,0.1-0.5,0.2c-0.1,0.1-0.2,0.3-0.2,0.5v1.5c0,0.2,0.1,0.4,0.2,0.5
			C29.9,37.7,30,37.8,30.2,37.8L30.2,37.8z M30.2,37.8"/>
		<path class="st0" d="M25,31.9h1.3c0.2,0,0.3-0.1,0.5-0.2c0.1-0.1,0.2-0.3,0.2-0.5v-1.5c0-0.2-0.1-0.4-0.2-0.5
			c-0.1-0.1-0.3-0.2-0.5-0.2H25c-0.2,0-0.3,0.1-0.5,0.2c-0.1,0.1-0.2,0.3-0.2,0.5v1.5c0,0.2,0.1,0.4,0.2,0.5
			C24.7,31.9,24.9,31.9,25,31.9L25,31.9z M25,31.9"/>
		<path class="st0" d="M19.9,26.1h1.3c0.2,0,0.3-0.1,0.5-0.2c0.1-0.1,0.2-0.3,0.2-0.5v-1.5c0-0.2-0.1-0.4-0.2-0.5
			c-0.1-0.1-0.3-0.2-0.5-0.2h-1.3c-0.2,0-0.3,0.1-0.5,0.2c-0.1,0.1-0.2,0.3-0.2,0.5v1.5c0,0.2,0.1,0.4,0.2,0.5
			C19.5,26,19.7,26.1,19.9,26.1L19.9,26.1z M19.9,26.1"/>
		<path class="st0" d="M14.7,20.2H16c0.2,0,0.3-0.1,0.5-0.2c0.1-0.1,0.2-0.3,0.2-0.5V18c0-0.2-0.1-0.4-0.2-0.5
			c-0.1-0.1-0.3-0.2-0.5-0.2h-1.3c-0.2,0-0.3,0.1-0.5,0.2c-0.1,0.1-0.2,0.3-0.2,0.5v1.5c0,0.2,0.1,0.4,0.2,0.5
			C14.4,20.2,14.5,20.2,14.7,20.2L14.7,20.2z M14.7,20.2"/>
		<path class="st0" d="M30.2,31.9h1.3c0.2,0,0.3-0.1,0.5-0.2c0.1-0.1,0.2-0.3,0.2-0.5v-1.5c0-0.2-0.1-0.4-0.2-0.5
			c-0.1-0.1-0.3-0.2-0.5-0.2h-1.3c-0.2,0-0.3,0.1-0.5,0.2c-0.1,0.1-0.2,0.3-0.2,0.5v1.5c0,0.2,0.1,0.4,0.2,0.5
			C29.9,31.9,30,31.9,30.2,31.9L30.2,31.9z M30.2,31.9"/>
		<path class="st0" d="M25,26.1h1.3c0.2,0,0.3-0.1,0.5-0.2c0.1-0.1,0.2-0.3,0.2-0.5v-1.5c0-0.2-0.1-0.4-0.2-0.5
			c-0.1-0.1-0.3-0.2-0.5-0.2H25c-0.2,0-0.3,0.1-0.5,0.2c-0.1,0.1-0.2,0.3-0.2,0.5v1.5c0,0.2,0.1,0.4,0.2,0.5
			C24.7,26,24.9,26.1,25,26.1L25,26.1z M25,26.1"/>
		<path class="st0" d="M19.9,20.2h1.3c0.2,0,0.3-0.1,0.5-0.2c0.1-0.1,0.2-0.3,0.2-0.5V18c0-0.2-0.1-0.4-0.2-0.5
			c-0.1-0.1-0.3-0.2-0.5-0.2h-1.3c-0.2,0-0.3,0.1-0.5,0.2c-0.1,0.1-0.2,0.3-0.2,0.5v1.5c0,0.2,0.1,0.4,0.2,0.5
			C19.5,20.2,19.7,20.2,19.9,20.2L19.9,20.2z M19.9,20.2"/>
		<path class="st0" d="M30.2,26.1h1.3c0.2,0,0.3-0.1,0.5-0.2c0.1-0.1,0.2-0.3,0.2-0.5v-1.5c0-0.2-0.1-0.4-0.2-0.5
			c-0.1-0.1-0.3-0.2-0.5-0.2h-1.3c-0.2,0-0.3,0.1-0.5,0.2c-0.1,0.1-0.2,0.3-0.2,0.5v1.5c0,0.2,0.1,0.4,0.2,0.5
			C29.9,26,30,26.1,30.2,26.1L30.2,26.1z M30.2,26.1"/>
		<path class="st0" d="M25,20.2h1.3c0.2,0,0.3-0.1,0.5-0.2c0.1-0.1,0.2-0.3,0.2-0.5V18c0-0.2-0.1-0.4-0.2-0.5
			c-0.1-0.1-0.3-0.2-0.5-0.2H25c-0.2,0-0.3,0.1-0.5,0.2c-0.1,0.1-0.2,0.3-0.2,0.5v1.5c0,0.2,0.1,0.4,0.2,0.5
			C24.7,20.2,24.9,20.2,25,20.2L25,20.2z M25,20.2"/>
		<path class="st0" d="M30.2,20.2h1.3c0.2,0,0.3-0.1,0.5-0.2c0.1-0.1,0.2-0.3,0.2-0.5V18c0-0.2-0.1-0.4-0.2-0.5
			c-0.1-0.1-0.3-0.2-0.5-0.2h-1.3c-0.2,0-0.3,0.1-0.5,0.2c-0.1,0.1-0.2,0.3-0.2,0.5v1.5c0,0.2,0.1,0.4,0.2,0.5
			C29.9,20.2,30,20.2,30.2,20.2L30.2,20.2z M30.2,20.2"/>
		<path class="st0" d="M14.7,15.5H16c0.2,0,0.3-0.1,0.5-0.2c0.1-0.1,0.2-0.3,0.2-0.5v-1.5c0-0.2-0.1-0.4-0.2-0.5
			c-0.1-0.1-0.3-0.2-0.5-0.2h-1.3c-0.2,0-0.3,0.1-0.5,0.2c-0.1,0.1-0.2,0.3-0.2,0.5v1.5c0,0.2,0.1,0.4,0.2,0.5
			C14.4,15.4,14.5,15.5,14.7,15.5L14.7,15.5z M14.7,15.5"/>
		<path class="st0" d="M19.9,15.5h1.3c0.2,0,0.3-0.1,0.5-0.2c0.1-0.1,0.2-0.3,0.2-0.5v-1.5c0-0.2-0.1-0.4-0.2-0.5
			c-0.1-0.1-0.3-0.2-0.5-0.2h-1.3c-0.2,0-0.3,0.1-0.5,0.2c-0.1,0.1-0.2,0.3-0.2,0.5v1.5c0,0.2,0.1,0.4,0.2,0.5
			C19.5,15.4,19.7,15.5,19.9,15.5L19.9,15.5z M19.9,15.5"/>
		<path class="st0" d="M25,15.5h1.3c0.2,0,0.3-0.1,0.5-0.2c0.1-0.1,0.2-0.3,0.2-0.5v-1.5c0-0.2-0.1-0.4-0.2-0.5
			c-0.1-0.1-0.3-0.2-0.5-0.2H25c-0.2,0-0.3,0.1-0.5,0.2c-0.1,0.1-0.2,0.3-0.2,0.5v1.5c0,0.2,0.1,0.4,0.2,0.5
			C24.7,15.4,24.9,15.5,25,15.5L25,15.5z M25,15.5"/>
		<path class="st0" d="M30.2,15.5h1.3c0.2,0,0.3-0.1,0.5-0.2c0.1-0.1,0.2-0.3,0.2-0.5v-1.5c0-0.2-0.1-0.4-0.2-0.5
			c-0.1-0.1-0.3-0.2-0.5-0.2h-1.3c-0.2,0-0.3,0.1-0.5,0.2c-0.1,0.1-0.2,0.3-0.2,0.5v1.5c0,0.2,0.1,0.4,0.2,0.5
			C29.9,15.4,30,15.5,30.2,15.5L30.2,15.5z M30.2,15.5"/>
	</g>
</g>
</svg>
