<svg id="Layer_1" data-name="Layer 1" xmlns="http://www.w3.org/2000/svg" viewBox="0 0 826.22 698.37"><defs><style>.cls-1{fill:#a6a8ab;}.cls-10,.cls-2,.cls-4,.cls-7,.cls-8,.cls-9{fill:none;stroke-miterlimit:10;}.cls-2{stroke:#fff;stroke-width:2.55px;stroke-dasharray:15.33 25.54;}.cls-3{fill:#716f6f;}.cls-10,.cls-4,.cls-7,.cls-8,.cls-9{stroke:#404041;}.cls-4{stroke-width:1px;}.cls-5{fill:#3276b4;}.cls-6{fill:#fff;}.cls-7{stroke-width:2.26px;stroke-dasharray:6.78;}.cls-8{stroke-width:0.64px;}.cls-9{stroke-width:1.13px;}.cls-10{stroke-width:0.52px;}.cls-11{fill:#404041;}</style></defs><title>TD-LTE-Timeline- Road-2</title><path class="cls-1" d="M126.36,54c-68.88,0-125,55.43-126.3,124V343.71L25,290.56l-.64-112.49a102.2,102.2,0,0,1,102-99.75H679.63V54Z"/><path class="cls-2" d="M679.63,66c-224.4.08-350.52.08-574.41.08C54.87,74.88,15.12,119.66,12.58,171c-.08,1.7-.13,188.89-.13,190.6"/><path class="cls-3" d="M29.84,223.35l4.69,6.75a.8.8,0,0,0,.33.55,1,1,0,0,0,1,0,.79.79,0,0,0,.33-.55l4.69-6.75a.8.8,0,0,0-1.32-.92l-4.22,6.07-4.22-6.07a.8.8,0,0,0-1.32.92Z"/><path class="cls-3" d="M29.84,216.12l4.69,6.75a.86.86,0,0,0,1.7,0l4.69-6.75a.8.8,0,0,0-1.32-.92l-4.22,6.07-4.22-6.07a.8.8,0,0,0-1.32.92Z"/><path class="cls-3" d="M29.53,208.9l4.69,6.75a.8.8,0,0,0,.33.55,1,1,0,0,0,1,0,.79.79,0,0,0,.33-.55l4.69-6.75a.8.8,0,0,0-1.32-.92l-4.22,6.07L30.86,208a.8.8,0,0,0-1.32.92Z"/><path class="cls-3" d="M29.53,201.68l4.69,6.75a.79.79,0,0,0,.85.69.79.79,0,0,0,.85-.69l4.69-6.75a.8.8,0,1,0-1.32-.92l-4.22,6.07-4.22-6.07a.8.8,0,1,0-1.32.92Z"/><path class="cls-3" d="M37,359.75l4.69,6.75a.8.8,0,0,0,.33.55,1,1,0,0,0,1,0,.79.79,0,0,0,.33-.55l4.69-6.75a.8.8,0,0,0-1.32-.92l-4.22,6.07-4.22-6.07a.8.8,0,0,0-1.32.92Z"/><path class="cls-3" d="M37,352.53l4.69,6.75a.86.86,0,0,0,1.7,0l4.69-6.75a.8.8,0,0,0-1.32-.92l-4.22,6.07-4.22-6.07a.8.8,0,0,0-1.32.92Z"/><path class="cls-3" d="M36.74,345.31l4.69,6.75a.8.8,0,0,0,.33.55,1,1,0,0,0,1,0,.79.79,0,0,0,.33-.55l4.69-6.75a.8.8,0,0,0-1.32-.92l-4.22,6.07-4.22-6.07a.8.8,0,0,0-1.32.92Z"/><path class="cls-3" d="M36.74,338.09l4.69,6.75a.79.79,0,0,0,.85.69.79.79,0,0,0,.85-.69l4.69-6.75a.8.8,0,1,0-1.32-.92l-4.22,6.07-4.22-6.07a.8.8,0,1,0-1.32.92Z"/><path class="cls-3" d="M305.23,659.88l-6.75,4.69a.8.8,0,0,0-.55.33,1,1,0,0,0,0,1,.79.79,0,0,0,.55.33l6.75,4.69a.8.8,0,0,0,.92-1.32l-6.07-4.22,6.07-4.22a.8.8,0,0,0-.92-1.32Z"/><path class="cls-3" d="M312.45,659.88l-6.75,4.69a.86.86,0,0,0,0,1.7l6.75,4.69a.8.8,0,0,0,.92-1.32l-6.07-4.22,6.07-4.22a.8.8,0,0,0-.92-1.32Z"/><path class="cls-3" d="M319.67,659.57l-6.75,4.69a.8.8,0,0,0-.55.33,1,1,0,0,0,0,1,.79.79,0,0,0,.55.33l6.75,4.69a.8.8,0,0,0,.92-1.32l-6.07-4.22,6.07-4.22a.8.8,0,0,0-.92-1.32Z"/><path class="cls-3" d="M326.89,659.57l-6.75,4.69a.79.79,0,0,0-.69.85.79.79,0,0,0,.69.85l6.75,4.69a.8.8,0,1,0,.92-1.32l-6.07-4.22,6.07-4.22a.8.8,0,1,0-.92-1.32Z"/><path class="cls-3" d="M333.54,659.88l-6.75,4.69a.8.8,0,0,0-.55.33,1,1,0,0,0,0,1,.79.79,0,0,0,.55.33l6.75,4.69a.8.8,0,0,0,.92-1.32l-6.07-4.22,6.07-4.22a.8.8,0,0,0-.92-1.32Z"/><path class="cls-3" d="M340.76,659.88,334,664.57a.86.86,0,0,0,0,1.7l6.75,4.69a.8.8,0,0,0,.92-1.32l-6.07-4.22,6.07-4.22a.8.8,0,0,0-.92-1.32Z"/><path class="cls-3" d="M348,659.57l-6.75,4.69a.8.8,0,0,0-.55.33,1,1,0,0,0,0,1,.79.79,0,0,0,.55.33l6.75,4.69a.8.8,0,0,0,.92-1.32l-6.07-4.22,6.07-4.22a.8.8,0,0,0-.92-1.32Z"/><path class="cls-3" d="M355.2,659.57l-6.75,4.69a.79.79,0,0,0-.69.85.79.79,0,0,0,.69.85l6.75,4.69a.8.8,0,1,0,.92-1.32l-6.07-4.22,6.07-4.22a.8.8,0,1,0-.92-1.32Z"/><path class="cls-4" d="M108.55,85.89s-82.75,13.75-79,112.67"/><path class="cls-3" d="M126.36,217.08H775.12v24.28H126.36a102.11,102.11,0,0,0,0,204.21H375.65v24.27H126.36A126.51,126.51,0,0,1,0,343.47C0,273.78,56.68,217.08,126.36,217.08Z"/><path class="cls-2" d="M775.12,229.09H115c-56.62,0-103.38,56.48-102.6,113.38.79,57.73,50.61,115.88,102.6,115.88H398"/><rect class="cls-3" x="233.86" y="212" width="62.91" height="1.47"/><rect class="cls-3" x="314.46" y="212" width="62.91" height="1.47"/><rect class="cls-3" x="389.16" y="212" width="5.9" height="1.47"/><rect class="cls-3" x="566.52" y="244.61" width="38.75" height="1.48"/><rect class="cls-3" x="516.88" y="244.61" width="38.75" height="1.48"/><rect class="cls-3" x="505.98" y="244.61" width="3.63" height="1.48"/><rect class="cls-3" x="268.44" y="436.85" width="38.75" height="1.48"/><rect class="cls-3" x="218.8" y="436.85" width="38.75" height="1.48"/><rect class="cls-3" x="207.9" y="436.85" width="3.63" height="1.48"/><polygon class="cls-5" points="826.22 162.98 783.83 162.98 783.83 203.29 794.18 203.29 791.84 217.02 802.25 203.29 826.22 203.29 826.22 162.98"/><path class="cls-6" d="M802.94,189.15a2.13,2.13,0,0,1-1.54-.66l-3.47-3.64a2.12,2.12,0,0,1,3.06-2.92l1.82,1.91,6.14-7.48a2.11,2.11,0,1,1,3.27,2.68l-7.65,9.33a2.1,2.1,0,0,1-1.55.77Z"/><polygon class="cls-5" points="714.01 0 671.63 0 671.63 40.31 681.98 40.31 679.63 54.04 690.05 40.31 714.01 40.31 714.01 0"/><path class="cls-6" d="M690.73,26.17a2.13,2.13,0,0,1-1.54-.66l-3.47-3.64A2.12,2.12,0,0,1,688.79,19l1.82,1.91,6.14-7.48A2.11,2.11,0,1,1,700,16.06l-7.65,9.33a2.1,2.1,0,0,1-1.55.77Z"/><path class="cls-3" d="M309.73,245.17l-8.26,5.74a1,1,0,0,0-.67.41,1.24,1.24,0,0,0,0,1.26,1,1,0,0,0,.67.41l8.26,5.74a1,1,0,0,0,1.12-1.61l-7.42-5.16,7.42-5.16a1,1,0,0,0-1.12-1.62Z"/><path class="cls-3" d="M318.57,245.17l-8.26,5.74a1.05,1.05,0,0,0,0,2.07l8.26,5.74a1,1,0,0,0,1.12-1.61l-7.43-5.16,7.43-5.16a1,1,0,0,0-1.12-1.62Z"/><path class="cls-3" d="M327.4,244.79l-8.26,5.74a1,1,0,0,0-.67.41,1.24,1.24,0,0,0,0,1.26,1,1,0,0,0,.67.41l8.26,5.74a1,1,0,0,0,1.12-1.61l-7.43-5.16,7.43-5.16a1,1,0,0,0-1.12-1.62Z"/><path class="cls-3" d="M336.23,244.79,328,250.53a1,1,0,0,0-.84,1,1,1,0,0,0,.84,1l8.26,5.74a1,1,0,1,0,1.12-1.61l-7.42-5.16,7.42-5.16a1,1,0,1,0-1.12-1.62Z"/><path class="cls-3" d="M345.25,244.79,337,250.53a1,1,0,0,0-.84,1,1,1,0,0,0,.84,1l8.26,5.74a1,1,0,1,0,1.12-1.61l-7.42-5.16,7.42-5.16a1,1,0,1,0-1.12-1.62Z"/><path class="cls-3" d="M354.26,244.79,346,250.53a1,1,0,0,0-.84,1,1,1,0,0,0,.84,1l8.26,5.74a1,1,0,1,0,1.12-1.61L348,251.56l7.42-5.16a1,1,0,1,0-1.12-1.62Z"/><path class="cls-3" d="M363.28,244.79,355,250.53a1,1,0,0,0-.84,1,1,1,0,0,0,.84,1l8.26,5.74a1,1,0,1,0,1.12-1.61L357,251.56l7.42-5.16a1,1,0,1,0-1.12-1.62Z"/><path class="cls-3" d="M405.56,41.5,399,46.08a.78.78,0,0,0-.54.33,1,1,0,0,0,0,1,.77.77,0,0,0,.54.33l6.58,4.57a.78.78,0,0,0,.9-1.29l-5.91-4.11,5.91-4.11a.78.78,0,0,0-.9-1.29Z"/><path class="cls-3" d="M412.6,41.5,406,46.08a.84.84,0,0,0,0,1.65l6.58,4.57a.78.78,0,0,0,.89-1.29l-5.92-4.11,5.92-4.11a.78.78,0,0,0-.89-1.29Z"/><path class="cls-3" d="M419.63,41.2l-6.58,4.57a.78.78,0,0,0-.54.33,1,1,0,0,0,0,1,.77.77,0,0,0,.54.33L419.63,52a.78.78,0,0,0,.9-1.29l-5.92-4.11,5.92-4.11a.78.78,0,0,0-.9-1.29Z"/><path class="cls-3" d="M426.67,41.2l-6.58,4.57a.77.77,0,0,0-.67.83.77.77,0,0,0,.67.83L426.67,52a.78.78,0,1,0,.89-1.29l-5.91-4.11,5.91-4.11a.78.78,0,1,0-.89-1.29Z"/><path class="cls-3" d="M433.85,41.2l-6.58,4.57a.77.77,0,0,0-.67.83.77.77,0,0,0,.67.83L433.85,52a.78.78,0,1,0,.89-1.29l-5.91-4.11,5.91-4.11a.78.78,0,1,0-.89-1.29Z"/><path class="cls-3" d="M441,41.2l-6.58,4.57a.77.77,0,0,0-.67.83.77.77,0,0,0,.67.83L441,52a.78.78,0,1,0,.89-1.29L436,46.6l5.91-4.11A.78.78,0,1,0,441,41.2Z"/><path class="cls-3" d="M448.22,41.2l-6.58,4.57a.77.77,0,0,0-.67.83.77.77,0,0,0,.67.83L448.22,52a.78.78,0,1,0,.89-1.29L443.2,46.6l5.91-4.11a.78.78,0,1,0-.89-1.29Z"/><rect class="cls-3" x="303.68" y="81.76" width="2.47" height="2.62"/><rect class="cls-3" x="297.83" y="81.76" width="2.47" height="2.62"/><rect class="cls-3" x="291.99" y="81.76" width="2.47" height="2.62"/><rect class="cls-3" x="286.15" y="81.76" width="2.47" height="2.62"/><rect class="cls-3" x="280.31" y="81.76" width="2.47" height="2.62"/><rect class="cls-3" x="274.47" y="81.76" width="2.47" height="2.62"/><rect class="cls-3" x="268.63" y="81.76" width="2.47" height="2.62"/><rect class="cls-3" x="262.78" y="81.76" width="2.47" height="2.62"/><rect class="cls-3" x="256.94" y="81.76" width="2.47" height="2.62"/><rect class="cls-3" x="251.1" y="81.76" width="2.47" height="2.62"/><rect class="cls-3" x="245.26" y="81.76" width="2.47" height="2.62"/><rect class="cls-3" x="239.42" y="81.76" width="2.47" height="2.62"/><rect class="cls-3" x="233.58" y="81.76" width="2.47" height="2.62"/><rect class="cls-3" x="546.79" y="472.82" width="38.75" height="1.48"/><rect class="cls-3" x="497.15" y="472.82" width="38.75" height="1.48"/><rect class="cls-3" x="486.25" y="472.82" width="3.63" height="1.48"/><path class="cls-3" d="M618.14,698.37H110.19V674.09H618.14a102.11,102.11,0,0,0,0-204.21H372.06V445.61H618.14A126.51,126.51,0,0,1,744.5,572C744.5,641.67,687.82,698.37,618.14,698.37Z"/><path class="cls-2" d="M110.19,686.36H629.45c56.62,0,103.38-56.48,102.6-113.38-.79-57.73-50.61-115.88-102.6-115.88H381"/><path class="cls-7" d="M80.56,260.55s-49.81,24-49.81,84.67c0,54.42,49.81,80.22,49.81,80.22"/><path class="cls-8" d="M700.71,675.1s49.09-32.7,49.09-103.05-49.09-101.52-49.09-101.52"/><path class="cls-9" d="M679.93,645.65s-21.92,24.51-54.37,24.5H564.43"/><rect class="cls-3" x="217.21" y="217.02" width="574.61" height="24.28"/><path class="cls-2" d="M221.21,229.29c183.37-5.8,385.92,1,568.43-1"/><polygon class="cls-10" points="741.27 501.87 743.28 496.25 735.8 486.18 733.78 491.79 741.27 501.87"/><polygon class="cls-10" points="741.03 501.63 735.06 501.95 727.58 491.88 733.54 491.56 741.03 501.63"/><line class="cls-10" x1="741.3" y1="501.85" x2="730.84" y2="487.85"/><path class="cls-8" d="M741,501.63s28.65,44,13.68,107.64"/><path class="cls-11" d="M758,609.5a10,10,0,0,0-3.94,2.55,10.37,10.37,0,0,0-2.4-4l.18-.78a11.27,11.27,0,0,1,2.46,3.76,11.45,11.45,0,0,1,3.88-2.3Z"/><path class="cls-11" d="M758.4,607.62a10,10,0,0,0-3.94,2.55,10.37,10.37,0,0,0-2.4-4l.18-.78a11.28,11.28,0,0,1,2.46,3.76,11.46,11.46,0,0,1,3.88-2.3Z"/></svg>