<?xml version="1.0" encoding="utf-8"?>
<!-- Generator: Adobe Illustrator 21.0.0, SVG Export Plug-In . SVG Version: 6.00 Build 0)  -->
<svg version="1.1" id="Layer_1" xmlns="http://www.w3.org/2000/svg" xmlns:xlink="http://www.w3.org/1999/xlink" x="0px" y="0px"
	 viewBox="0 0 147.9 133" style="enable-background:new 0 0 147.9 133;" xml:space="preserve">
<style type="text/css">
	.st0{fill:#333333;}
	.st1{fill:#3273B3;}
</style>
<g>
	<g>
		<path class="st0" d="M116.2,129.8l-10.4-0.3l1-36.4c0.2-7.1-5.4-13-12.5-13.2l-32-0.8c-7.1-0.2-13,5.4-13.2,12.5L48,128l-10.4-0.3
			l1-36.4c0.3-12.9,11-23.1,23.9-22.7l32,0.8c6.2,0.2,12,2.8,16.3,7.3c4.3,4.5,6.6,10.4,6.4,16.7L116.2,129.8z"/>
		<ellipse transform="matrix(0.7071 -0.7071 0.7071 0.7071 8.4148 94.1728)" class="st1" cx="117.9" cy="36.9" rx="8.4" ry="8.4"/>
		<ellipse transform="matrix(0.7071 -0.7071 0.7071 0.7071 15.3936 67.8768)" class="st1" cx="89.6" cy="15.4" rx="8.4" ry="8.4"/>
		<ellipse transform="matrix(0.7071 -0.7071 0.7071 0.7071 8.109 36.3345)" class="st1" cx="47.9" cy="8.4" rx="8.4" ry="8.4"/>
		<ellipse transform="matrix(0.7071 -0.7071 0.7071 0.7071 -18.7094 37.6136)" class="st1" cx="36" cy="41.4" rx="8.4" ry="8.4"/>
		<path class="st0" d="M73.9,79.1l-6.8-0.4c2.2-35.5-13.9-59.5-14.1-59.7l5.6-3.8C59.4,16.2,76.2,41.3,73.9,79.1z"/>
		<path class="st0" d="M79.9,77.8c-0.2-1.1-4.2-26.3,2.3-53l6.6,1.6c-6.2,25.4-2.3,50.1-2.2,50.3L79.9,77.8z"/>
		<path class="st0" d="M91.9,77.8c0-1.1-0.7-27.9,14.4-37.6L110,46c-9.9,6.3-11.5,25-11.3,31.7L91.9,77.8z"/>
		<path class="st0" d="M56,79.1c-2.6-18.7-13.4-26.5-13.9-26.8l3.9-5.6c0.6,0.4,13.6,9.6,16.7,31.5L56,79.1z"/>
	</g>
	<path class="st1" d="M109.9,133H38c-21,0-38-17-38-38l0.2-61.7l9.6,0L9.6,95c0,15.6,12.7,28.4,28.4,28.4h71.8
		c15.7,0,28.4-12.7,28.4-28.4V22h9.6v73C147.9,116,130.8,133,109.9,133z"/>
</g>
</svg>
