<svg id="Layer_1" data-name="Layer 1" xmlns="http://www.w3.org/2000/svg" viewBox="0 0 283.46 283.46"><defs><style>.cls-1{fill:#3176b5;}.cls-2{fill:#333;}</style></defs><title>service Icon-1</title><path class="cls-1" d="M116.71,135.13a22.55,22.55,0,0,1,31.84,0l.93.93c.85,1.11,2.85.73,4.43-.86l1.22-1.22c1.59-1.59,2.15-3.77,1.26-4.84l-.92-.92a32.34,32.34,0,0,0-45.68,0l-.92.92c-.89,1.08-.33,3.26,1.25,4.84l1.22,1.22c1.59,1.59,3.58,2,4.43.86Z"/><circle class="cls-1" cx="132.63" cy="144.94" r="8.15" transform="translate(-63.64 136.23) rotate(-45)"/><path class="cls-1" d="M95.18,114.56l-.74.76c-.76.86-.09,2.87,1.5,4.45L97.11,121c1.58,1.58,3.52,2.14,4.3,1.24l.77-.79.4-.41a42.56,42.56,0,0,1,60.11,0q.42.42.82.84l.61.65c.64.74,2.45.05,4-1.53l1.17-1.17c1.58-1.58,2.35-3.48,1.71-4.22l-.62-.65-.81-.83a52.35,52.35,0,0,0-74,0Z"/><path class="cls-2" d="M63.17,146.2H48.77v-2.83H80.64v2.83H66.24v38.48H63.17Z"/><path class="cls-2" d="M85.26,143.36H99c13,0,22,8.91,22,20.54V164c0,11.63-9,20.66-22,20.66H85.26ZM99,181.84c11.51,0,18.77-7.85,18.77-17.71V164c0-9.8-7.26-17.83-18.77-17.83H88.32v35.65Z"/><path class="cls-2" d="M126.36,163.1H139v9.1H126.36Z"/><path class="cls-2" d="M146.18,146.52h10.58v28.89h18.48v9.27H146.18Z"/><path class="cls-2" d="M180.35,155.79H168.9v-9.27h33.47v9.27H190.93v28.89H180.35Z"/><path class="cls-2" d="M203.73,146.52h30.69v9H214.19v5.78h18.32v8.34H214.19v6.05h20.5v9h-31Z"/></svg>