<svg id="Layer_1" data-name="Layer 1" xmlns="http://www.w3.org/2000/svg" xmlns:xlink="http://www.w3.org/1999/xlink" viewBox="0 0 96.11 96.11"><defs><style>.cls-1,.cls-3{fill:none;}.cls-2{clip-path:url(#clip-path);}.cls-3{stroke:#000;stroke-miterlimit:10;stroke-width:2px;}</style><clipPath id="clip-path"><rect class="cls-1" x="18.85" y="14.75" width="58.4" height="54.61"/></clipPath></defs><title>SPEED Load-1</title><g class="cls-2"><path d="M61.92,39H49V27.85a3.41,3.41,0,1,1,6.81,0v3.41a4.87,4.87,0,0,0,9.73,0V15.68a1,1,0,1,0-1.94,0V31.26a2.92,2.92,0,0,1-5.84,0V27.85a5.35,5.35,0,1,0-10.71,0V39H33.42A14.59,14.59,0,0,0,18.85,53.61c0,7,5.07,14.48,12.62,14.58h.2a37.44,37.44,0,0,0,9.13-1.33,27.42,27.42,0,0,1,13.73,0,40.35,40.35,0,0,0,9.34,1.33c6-.1,12.4-5.71,12.4-14.58A14.48,14.48,0,0,0,61.92,39Zm1.92,27.2A38,38,0,0,1,55.05,65a29.54,29.54,0,0,0-14.76,0,34.8,34.8,0,0,1-8.8,1.26c-5.17-.07-10.69-5.16-10.69-12.63A12.64,12.64,0,0,1,33.42,41h28.5A12.53,12.53,0,0,1,74.34,53.61c0,6-4.22,12.52-10.49,12.63Zm0,0"/></g><path d="M51.59,43.91a1,1,0,0,0-1-1H46.1a1,1,0,0,0,0,1.95h4.51a1,1,0,0,0,1-1Zm0,0"/><path d="M54.87,49.75a3.89,3.89,0,1,0,3.89,3.89,3.9,3.9,0,0,0-3.89-3.89Zm0,5.84a1.95,1.95,0,1,1,1.94-1.95,2,2,0,0,1-1.94,1.95Zm0,0"/><path d="M68.5,49.75a3.89,3.89,0,1,0,3.89,3.89,3.89,3.89,0,0,0-3.89-3.89Zm0,5.84a1.95,1.95,0,1,1,1.94-1.95,2,2,0,0,1-1.94,1.95Zm0,0"/><path d="M61.68,56.56a3.9,3.9,0,1,0,3.89,3.9,3.9,3.9,0,0,0-3.89-3.9Zm0,5.84a1.95,1.95,0,1,1,1.95-1.94,1.95,1.95,0,0,1-1.95,1.94Zm0,0"/><path d="M61.68,50.72a3.9,3.9,0,1,0-3.89-3.9,3.9,3.9,0,0,0,3.89,3.9Zm0-5.84a1.95,1.95,0,1,1-1.94,1.94,2,2,0,0,1,1.94-1.94Zm0,0"/><path d="M41.24,49.75H38.32V46.82a1,1,0,0,0-1-1H31.5a1,1,0,0,0-1,1v2.92H27.61a1,1,0,0,0-1,1v5.84a1,1,0,0,0,1,1h2.92v2.92a1,1,0,0,0,1,1h5.84a1,1,0,0,0,1-1V57.53h2.92a1,1,0,0,0,1-1V50.72a1,1,0,0,0-1-1Zm-1,5.84H37.34a1,1,0,0,0-1,1v2.92H32.48V56.56a1,1,0,0,0-1-1H28.58v-3.9H31.5a1,1,0,0,0,1-1V47.8h3.89v2.92a1,1,0,0,0,1,1h2.92Zm0,0"/><circle class="cls-3" cx="48.05" cy="48.05" r="47.05"/></svg>