<?xml version="1.0" encoding="utf-8"?>
<!-- Generator: Adobe Illustrator 21.0.0, SVG Export Plug-In . SVG Version: 6.00 Build 0)  -->
<svg version="1.1" id="Layer_1" xmlns="http://www.w3.org/2000/svg" xmlns:xlink="http://www.w3.org/1999/xlink" x="0px" y="0px"
	 viewBox="0 0 157 157" style="enable-background:new 0 0 157 157;" xml:space="preserve">
<style type="text/css">
	.st0{clip-path:url(#SVGID_2_);}
	.st1{fill:#3276B4;}
	.st2{fill:#4D4D4D;}
	.st3{fill:#3176B5;}
	.st4{clip-path:url(#SVGID_4_);}
	.st5{fill:#404041;}
</style>
<g>
	<g>
		<defs>
			<circle id="SVGID_3_" cx="78.5" cy="78.5" r="75.1"/>
		</defs>
		<clipPath id="SVGID_2_">
			<use xlink:href="#SVGID_3_"  style="overflow:visible;"/>
		</clipPath>
		<g class="st0">
			<g>
				<rect x="90.4" y="75.6" class="st5" width="4.1" height="79"/>
				<g>
					<g>
						<path class="st5" d="M99.5,25.8c0-3.8-3.1-7-7-7c-3.8,0-7,3.1-7,7c0,3.8,3.1,7,7,7C96.4,32.7,99.5,29.6,99.5,25.8z M89.8,25.8
							c0-1.5,1.2-2.7,2.7-2.7c1.5,0,2.7,1.2,2.7,2.7c0,1.5-1.2,2.7-2.7,2.7C91,28.5,89.8,27.2,89.8,25.8z"/>
						<path class="st5" d="M115.7,46.3V25.8c0,0,0,0,0,0c0,0,0,0,0,0V10.8l0-4.3v-25.8c0-1.2-1-2.1-2.1-2.1c-1.2,0-2.1,1-2.1,2.1
							v11.2H92.5c0,0,0,0-0.1,0c0,0-0.1,0-0.1,0c0,0-0.1,0-0.1,0c0,0-0.1,0-0.1,0c0,0-0.1,0-0.1,0c0,0-0.1,0-0.1,0c0,0-0.1,0-0.1,0
							c0,0-0.1,0-0.1,0c0,0-0.1,0-0.1,0c0,0-0.1,0-0.1,0c0,0-0.1,0-0.1,0c0,0-0.1,0-0.1,0.1c0,0-0.1,0-0.1,0.1c0,0-0.1,0-0.1,0.1
							c0,0-0.1,0.1-0.1,0.1c0,0,0,0-0.1,0.1c0,0,0,0,0,0c0,0-0.1,0.1-0.1,0.1c0,0,0,0-0.1,0.1c0,0,0,0.1-0.1,0.1c0,0,0,0.1-0.1,0.1
							c0,0,0,0,0,0.1c0,0,0,0.1-0.1,0.1c0,0,0,0,0,0.1c0,0,0,0.1-0.1,0.1c0,0,0,0.1,0,0.1c0,0,0,0.1,0,0.1c0,0,0,0.1,0,0.1
							c0,0,0,0.1,0,0.1c0,0,0,0.1,0,0.1c0,0,0,0.1,0,0.1c0,0,0,0.1,0,0.1c0,0,0,0.1,0,0.1c0,0,0,0,0,0v8.7h0
							c-11.8,1.1-21,11-21,23.1c0,7,3.1,13.3,8,17.5c3.6,3.1,8.1,5.1,13,5.6v27.8h7.8l4.8-5l4.8,5h7.8v-5.4c6-1,10.6-6.2,10.6-12.5
							C126.2,52.5,121.7,47.3,115.7,46.3z M111.4,42.1v4.2c-1.7,0.3-3.3,0.9-4.7,1.8l-0.7-0.7L111.4,42.1z M111.4,10.5L106,4.9
							l5.4-5.6V10.5z M108.5-3.8L103,1.8l-5.5-5.6H108.5z M94.7-0.7l4,4.1c-1.3-0.4-2.6-0.6-4-0.7V-0.7z M79.5,39.4
							c-3.6-3.4-5.9-8.3-5.9-13.7c0-10.4,8.5-18.9,18.9-18.9c10.4,0,18.9,8.5,18.9,18.9c0,3-0.7,5.8-1.9,8.3
							c-3.1,6.3-9.5,10.6-17,10.6C87.5,44.6,82.9,42.6,79.5,39.4z M99.5,47.8l-4.8,4.8v-3.8C96.3,48.7,98,48.3,99.5,47.8z
							 M94.7,74.2V63l5.4,5.6L94.7,74.2z M100.9,58.8c0,2.3,0.6,4.4,1.7,6.3l-7-7.2l7.5-7.4l0.6,0.6
							C101.9,53.1,100.9,55.8,100.9,58.8z M111.4,74.2l-4.4-4.6c1.3,0.8,2.8,1.4,4.4,1.7V74.2z M113.6,67.2c-4.6,0-8.4-3.8-8.4-8.4
							c0-4.6,3.8-8.4,8.4-8.4c4.6,0,8.4,3.8,8.4,8.4C122,63.4,118.2,67.2,113.6,67.2z"/>
						<path class="st5" d="M113.6,61.1c2.8,0,2.8-4.3,0-4.3C110.8,56.8,110.8,61.1,113.6,61.1z"/>
					</g>
					<rect x="111.5" y="75.6" class="st5" width="4.1" height="71.1"/>
					<polygon class="st5" points="115,93.6 95.4,74 92.5,76.9 115,99.4 					"/>
					<polygon class="st5" points="92.6,97.9 113.6,76.9 110.7,74 92.6,92.1 					"/>
					<polygon class="st5" points="115,109.4 95.4,89.8 92.5,92.7 115,115.2 					"/>
					<polygon class="st5" points="92.6,113.7 113.6,92.7 110.7,89.8 92.6,107.9 					"/>
					<polygon class="st5" points="115,125.3 95.4,105.7 92.5,108.6 115,131.1 					"/>
					<polygon class="st5" points="92.6,129.5 113.6,108.6 110.7,105.7 92.6,123.7 					"/>
				</g>
			</g>
			<g>
				<path class="st5" d="M41.3,91.2c-0.5,0.8-0.8,1.7-0.9,2.7v1.4l0.4,22.3l-7.9,16.6c-0.2,0.6-0.4,1.2-0.5,1.8
					c-0.1,1.3,0.2,2.6,1,3.7c0.8,1.1,1.9,1.8,3.3,1.9c2.3,0.4,4-0.5,5.2-2.5l8.5-18.2c0.2-0.5,0.4-0.9,0.4-1.3V105l13.1,5.8
					l2.2,13.5c0.5,2.2,1.9,3.4,4.1,3.8c1.3,0.2,2.6-0.1,3.7-0.9c1.1-0.8,1.8-1.9,2.1-3.2v-1.4l-2.7-16.2c-0.2-1.7-1.1-2.9-2.7-3.6
					l-11.7-5.2l7.4-13l3.8,4.7c0.4,0.5,0.8,0.8,1.4,1.1l14,4c2.2,0.5,3.7-0.3,4.5-2.3c0.4-1,0.3-2-0.1-3c-0.4-1-1.1-1.7-2.1-2.1
					l-0.2-0.2l-12.2-3.6l-9.4-11c-1.4-1.6-3.2-2.5-5.2-2.9c-4.1-0.6-7.1,0.8-9.2,4.3L41.3,91.2z M41.3,91.2"/>
				<path class="st5" d="M71.5,56.5c-1.4-2-3.7-3.3-6.3-3.3c-4.2,0-7.6,3.4-7.6,7.6c0,4.2,3.4,7.6,7.6,7.6c3.8,0,7-2.8,7.5-6.6H80
					c1.4,0,2.5-1.1,2.5-2.5c0-1.4-1.1-2.5-2.5-2.5h-8.4C71.6,56.7,71.5,56.6,71.5,56.5L71.5,56.5z M71.5,56.5"/>
				<path class="st1" d="M45,86.9c-0.2,0.1-0.3,0.2-0.3,0.4c0,0.2,0.1,0.4,0.2,0.4l3.2,1.9l-0.2,3.1l-2.6,1.6l-3.2-1.9
					c-0.2-0.1-0.4-0.1-0.5,0c-0.1,0.1-0.2,0.3-0.2,0.5c0.3,1.6,1.2,3,2.6,3.8c1.9,1.1,4.2,0.9,5.9-0.2c0.1,0.1,0.2,0.1,0.3,0.2
					l10.2,6.4c0,0,0,0,0,0c1.3,0.7,2.9,0.3,3.6-0.9c0.7-1.3,0.3-2.9-0.9-3.6c0,0,0,0,0,0l-10.6-5.7c-0.1-0.1-0.2-0.1-0.3-0.1
					c0.2-2-0.7-4.1-2.6-5.3C48.1,86.5,46.5,86.3,45,86.9L45,86.9z M62.3,100c0.5,0.3,0.6,0.9,0.3,1.3c-0.3,0.5-0.9,0.6-1.3,0.3
					c-0.5-0.3-0.6-0.9-0.3-1.3C61.3,99.9,61.9,99.7,62.3,100L62.3,100z M62.3,100"/>
				<path class="st1" d="M54.9,95.3c-0.1,0-0.2,0-0.3-0.1c-0.3-0.2-0.4-0.5-0.2-0.8l11.8-21.6c0.2-0.3,0.5-0.4,0.8-0.2
					c0.3,0.2,0.4,0.5,0.2,0.8L55.4,95C55.3,95.2,55.1,95.3,54.9,95.3z"/>
				<path class="st1" d="M47.1,88.8c-0.1,0-0.2,0-0.3-0.1c-0.3-0.2-0.4-0.5-0.2-0.8l10.5-19.2c0.2-0.3,0.5-0.4,0.8-0.2
					c0.3,0.2,0.4,0.5,0.2,0.8L47.7,88.5C47.6,88.7,47.4,88.8,47.1,88.8z"/>
			</g>
		</g>
	</g>
	<path class="st3" d="M78.5,157C35.2,157,0,121.8,0,78.5S35.2,0,78.5,0S157,35.2,157,78.5S121.8,157,78.5,157z M78.5,6.8
		C38.9,6.8,6.8,38.9,6.8,78.5c0,39.6,32.2,71.7,71.7,71.7s71.7-32.2,71.7-71.7C150.2,38.9,118.1,6.8,78.5,6.8z"/>
</g>
</svg>
