<?xml version="1.0" encoding="utf-8"?>
<!-- Generator: Adobe Illustrator 21.0.0, SVG Export Plug-In . SVG Version: 6.00 Build 0)  -->
<svg version="1.1" id="Layer_1" xmlns="http://www.w3.org/2000/svg" xmlns:xlink="http://www.w3.org/1999/xlink" x="0px" y="0px"
	 viewBox="0 0 157 157" style="enable-background:new 0 0 157 157;" xml:space="preserve">
<style type="text/css">
	.st0{clip-path:url(#SVGID_2_);}
	.st1{fill:#3276B4;}
	.st2{fill:#4D4D4D;}
	.st3{fill:#3176B5;}
	.st4{clip-path:url(#SVGID_4_);}
	.st5{fill:#404041;}
</style>
<g>
	<g>
		<defs>
			<circle id="SVGID_1_" cx="78.5" cy="78.5" r="75.1"/>
		</defs>
		<clipPath id="SVGID_2_">
			<use xlink:href="#SVGID_1_"  style="overflow:visible;"/>
		</clipPath>
		<g class="st0">
			<path class="st1" d="M155.7,101.5l-18.9,3l-17.9-52.3c0,0,20.2-14.7,34-4.4"/>
			<g>
				<path class="st2" d="M79.6,134.5c-4.1,0-9.4-2.3-11.8-3.9c-3-2-17.9-13.2-30.3-23.6c-2.1-1.7-5.1-5-8.1-8.1
					c-2.2-2.3-4.2-4.4-5.2-5.3c-1.4-1.2-1.6-3.3-0.4-4.7c1.2-1.4,3.3-1.6,4.7-0.4c1.1,1,3.3,3.2,5.8,5.8c2.7,2.8,5.8,6.1,7.6,7.6
					c12.7,10.6,27.4,21.6,29.7,23.1c2,1.3,6,2.8,8.2,2.8c3.1,0,3.4-0.8,3.5-1.1c0.4-1,1.3-1.8,2.3-2.1c1.1-0.3,2.2,0,3,0.8
					c1.3,1.2,2.8,1,3.8,0.6c2.1-0.8,3.7-2.9,3.9-5.1c0.1-1.3,0.9-2.4,2.1-2.8c1.2-0.4,2.5-0.2,3.5,0.7c0.8,0.8,3.1,1,5.2-0.1
					c0.8-0.4,2.8-1.6,2.6-3.8c-0.1-1.3,0.5-2.6,1.6-3.2c1.1-0.7,2.5-0.6,3.6,0.1c1,0.7,2.8,0.3,4.1-0.8c0.9-0.8,2.2-2.4,1-5
					c-2.5-5.2-13.6-14.2-23.4-22.1c-5.4-4.4-10.6-8.6-14.4-12.1c-1,0.4-1.7,0.7-2.3,1c-1.7,0.8-2.9,1.3-5,1.6
					c-5.1,6.8-12,9.2-19.6,6.7c-3-1-5-3.1-5.7-6c-1.6-6.8,4.6-16,9.2-20.6c12-12,20.4-16.5,35.7-9.7c13.1,5.9,26.3,10.5,26.4,10.5
					c1.7,0.6,2.7,2.5,2.1,4.3c-0.6,1.7-2.5,2.7-4.3,2.1c-0.1,0-13.6-4.7-27-10.7c-11.8-5.3-17.4-2.6-28.2,8.3
					c-4.6,4.6-8.1,11.4-7.4,14.3c0.1,0.4,0.3,0.9,1.3,1.2c3.3,1.1,8.1,1.7,12.9-5.4c0.6-0.8,1.4-1.4,2.4-1.5
					c2.2-0.2,2.8-0.5,4.5-1.2c1.1-0.5,2.5-1.1,4.7-1.9c1.2-0.4,2.6-0.1,3.5,0.8c3.6,3.6,9.4,8.3,15.4,13.2
					c10.9,8.8,22.1,17.9,25.2,24.4c2.2,4.6,1.2,9.7-2.7,13c-2.3,1.9-5,2.9-7.7,2.7c-1,2.4-2.9,4.5-5.6,5.8c-2.7,1.4-5.7,1.8-8.4,1.2
					c-1.4,2.9-3.9,5.2-6.9,6.4c-2.6,1-5.2,1-7.6,0.1C85.4,133.7,82.9,134.5,79.6,134.5z"/>
				<path class="st2" d="M66.2,54.4h-30c-1.8,0-3.3-1.5-3.3-3.3s1.5-3.3,3.3-3.3h30c1.8,0,3.3,1.5,3.3,3.3S68.1,54.4,66.2,54.4z"/>
				<path class="st2" d="M123.2,107.7c-1.1,0-2.1-0.5-2.8-1.5c-1-1.5-0.6-3.6,0.9-4.6l9.8-6.6c1.5-1,3.6-0.6,4.6,0.9
					c1,1.5,0.6,3.6-0.9,4.6l-9.8,6.6C124.5,107.5,123.8,107.7,123.2,107.7z"/>
				<path class="st2" d="M112.9,117.8c-0.7,0-1.5-0.2-2.1-0.7c-3.5-2.8-18.6-18.5-20.4-20.3c-1.3-1.3-1.2-3.4,0.1-4.7
					c1.3-1.3,3.4-1.2,4.7,0.1c6.6,6.9,17.3,17.8,19.7,19.7c1.4,1.1,1.7,3.2,0.6,4.7C114.9,117.3,113.9,117.8,112.9,117.8z"/>
				<path class="st2" d="M99.6,124.5c-0.7,0-1.5-0.2-2.1-0.7c-5-4-16.9-16.9-17.1-17c-1.2-1.4-1.2-3.5,0.2-4.7
					c1.4-1.2,3.5-1.2,4.7,0.2c2.3,2.5,12.3,13.1,16.3,16.3c1.4,1.1,1.7,3.2,0.5,4.7C101.5,124,100.6,124.5,99.6,124.5z"/>
				<path class="st2" d="M86.2,131.1c-0.8,0-1.5-0.3-2.1-0.8c-4.9-4.2-14.2-14-17-17c-1.3-1.3-1.2-3.5,0.2-4.7
					c1.3-1.3,3.5-1.2,4.7,0.2c1.9,2,11.6,12.4,16.4,16.4c1.4,1.2,1.6,3.3,0.4,4.7C88.1,130.7,87.2,131.1,86.2,131.1z"/>
				<path class="st2" d="M22.9,101.1h-20c-1.8,0-3.3-1.5-3.3-3.3v-60c0-0.9,0.4-1.8,1-2.4c0.7-0.6,1.5-0.9,2.5-0.9
					c6.9,0.4,29.7,2.2,35.5,7.6c0.7,0.7,1.1,1.7,1,2.7C38,62,26.5,97.3,26,98.8C25.6,100.2,24.3,101.1,22.9,101.1z M6.2,94.4h14.2
					c2.5-7.8,10.5-33.8,12.3-48.4c-4.2-2-15.8-3.9-26.5-4.7V94.4z"/>
				<path class="st2" d="M156.3,107.8h-20c-1.5,0-2.8-1-3.2-2.4c-2.5-9-15.4-45.9-19.5-52.5c-0.5-0.8-0.6-1.8-0.4-2.7
					c0.3-0.9,0.9-1.7,1.8-2.1c0.6-0.3,15.1-7,41.3-7c1.8,0,3.3,1.5,3.3,3.3v60C159.6,106.3,158.1,107.8,156.3,107.8z M138.8,101.1
					H153V47.8c-15.9,0.4-26.8,3.3-31.9,5.1C126.3,63.9,135.6,90.8,138.8,101.1z"/>
			</g>
		</g>
	</g>
	<path class="st3" d="M78.5,157C35.2,157,0,121.8,0,78.5S35.2,0,78.5,0S157,35.2,157,78.5S121.8,157,78.5,157z M78.5,6.8
		C38.9,6.8,6.8,38.9,6.8,78.5c0,39.6,32.2,71.7,71.7,71.7s71.7-32.2,71.7-71.7C150.2,38.9,118.1,6.8,78.5,6.8z"/>
</g>
</svg>
