<?xml version="1.0" encoding="utf-8"?>
<!-- Generator: Adobe Illustrator 21.0.0, SVG Export Plug-In . SVG Version: 6.00 Build 0)  -->
<svg version="1.1" id="Layer_1" xmlns="http://www.w3.org/2000/svg" xmlns:xlink="http://www.w3.org/1999/xlink" x="0px" y="0px"
	 viewBox="0 0 157 157" style="enable-background:new 0 0 157 157;" xml:space="preserve">
<style type="text/css">
	.st0{clip-path:url(#SVGID_2_);}
	.st1{fill:#3276B4;}
	.st2{fill:#4D4D4D;}
	.st3{fill:#3176B5;}
	.st4{clip-path:url(#SVGID_4_);}
	.st5{fill:#404041;}
</style>
<g>
	<g>
		<polygon class="st2" points="86,151.3 84.7,151.3 84.7,123.4 47.1,104.4 19.8,124.1 19,123.1 47,102.9 86,122.6 		"/>
		<path class="st2" d="M63.2,126.4l-12.9-6.9v-10.6l12.9,7.1V126.4z M51.6,118.7l10.3,5.5v-7.5l-10.3-5.7V118.7z"/>
		<polygon class="st2" points="60.9,121.6 59.6,121.6 59.6,118.1 52.7,114.2 53.3,113.1 60.9,117.3 		"/>
		<path class="st2" d="M63.2,139.8l-12.9-6.9v-10.6l12.9,7.1V139.8z M51.6,132.1l10.3,5.5v-7.5l-10.3-5.7V132.1z"/>
		<polygon class="st2" points="60.9,134.9 59.6,134.9 59.6,131.4 52.7,127.6 53.3,126.4 60.9,130.6 		"/>
		<path class="st2" d="M80.4,135.2l-12.9-6.9v-10.6l12.9,7.1V135.2z M68.8,127.5l10.3,5.5v-7.5l-10.3-5.7V127.5z"/>
		<polygon class="st2" points="78.1,130.3 76.8,130.3 76.8,126.8 69.9,123 70.5,121.8 78.1,126 		"/>
		<rect x="46.2" y="103.7" class="st2" width="1.3" height="30.4"/>
		
			<rect x="26" y="115.2" transform="matrix(0.7976 -0.6032 0.6032 0.7976 -62.2433 46.1063)" class="st2" width="23.1" height="1.3"/>
		
			<rect x="35.6" y="118.4" transform="matrix(0.7976 -0.6032 0.6032 0.7976 -63.3246 49.3271)" class="st2" width="12.5" height="1.3"/>
		
			<rect x="40.3" y="122.9" transform="matrix(0.7876 -0.6161 0.6161 0.7876 -66.8165 53.3294)" class="st2" width="7.3" height="1.3"/>
		
			<rect x="42.9" y="128.1" transform="matrix(0.7956 -0.6058 0.6058 0.7956 -68.779 53.6369)" class="st2" width="4.3" height="1.3"/>
	</g>
	<path class="st3" d="M78.5,157C35.2,157,0,121.8,0,78.5S35.2,0,78.5,0S157,35.2,157,78.5S121.8,157,78.5,157z M78.5,6.8
		C38.9,6.8,6.8,38.9,6.8,78.5c0,39.6,32.2,71.7,71.7,71.7s71.7-32.2,71.7-71.7C150.2,38.9,118.1,6.8,78.5,6.8z"/>
	<g>
		<path class="st2" d="M117.7,130.1c-3.3,0-6.4-1.3-8.8-3.6l-24.5-24.5l3.9-2.5c4.4-2.8,8.3-6.7,11.1-11.1l2.5-3.9l24.5,24.5h0
			c2.3,2.3,3.6,5.5,3.6,8.8c0,3.3-1.3,6.4-3.6,8.8C124.2,128.9,121.1,130.1,117.7,130.1z M96.2,103.2l18,18c0.9,0.9,2.2,1.4,3.5,1.4
			c1.3,0,2.5-0.5,3.5-1.4c0.9-0.9,1.4-2.2,1.4-3.5c0-1.3-0.5-2.5-1.4-3.5h0l-18-18C101.1,98.8,98.8,101.1,96.2,103.2z"/>
		<path class="st2" d="M64.9,103c-21,0-38.1-17.1-38.1-38.1s17.1-38.1,38.1-38.1S103,43.9,103,64.9S85.9,103,64.9,103z M64.9,34.4
			c-16.9,0-30.6,13.7-30.6,30.6s13.7,30.6,30.6,30.6s30.6-13.7,30.6-30.6S81.8,34.4,64.9,34.4z"/>
		<path class="st1" d="M41.2,64.9H48C48,55.6,55.6,48,64.9,48v-6.8C51.9,41.2,41.2,51.9,41.2,64.9L41.2,64.9z M41.2,64.9"/>
	</g>
</g>
</svg>
