<?xml version="1.0" encoding="utf-8"?>
<!-- Generator: Adobe Illustrator 21.0.0, SVG Export Plug-In . SVG Version: 6.00 Build 0)  -->
<svg version="1.1" id="Layer_1" xmlns="http://www.w3.org/2000/svg" xmlns:xlink="http://www.w3.org/1999/xlink" x="0px" y="0px"
	 viewBox="0 0 232.2 162.4" style="enable-background:new 0 0 232.2 162.4;" xml:space="preserve">
<style type="text/css">
	.st0{fill:#3176B5;}
	.st1{opacity:0.96;clip-path:url(#SVGID_2_);fill:#5089C3;}
	.st2{fill:#4D4D4D;}
	.st3{fill:#FFFFFF;stroke:#4D4D4D;stroke-width:5.25;stroke-miterlimit:10;}
</style>
<g>
	<path class="st0" d="M199.5,131.5H31.7c-4.2,0-7.6-3.4-7.6-7.6V20.2c0-4.2,3.4-7.6,7.6-7.6h167.8c4.2,0,7.6,3.4,7.6,7.6v103.8
		C207.1,128.1,203.7,131.5,199.5,131.5z"/>
	<g>
		<defs>
			<path id="SVGID_1_" d="M199.1,130.5h-166c-2.2,0-4-1.8-4-4V21.4c0-2.2,1.8-4,4-4h166c2.2,0,4,1.8,4,4v105.1
				C203.1,128.8,201.3,130.5,199.1,130.5z"/>
		</defs>
		<clipPath id="SVGID_2_">
			<use xlink:href="#SVGID_1_"  style="overflow:visible;"/>
		</clipPath>
		<ellipse transform="matrix(0.8567 -0.5158 0.5158 0.8567 5.6 44.2892)" class="st1" cx="82.5" cy="12.1" rx="133" ry="84.1"/>
	</g>
	<g>
		<path class="st2" d="M207.9,127.1V16.9c0-2.5-2.1-4.6-4.6-4.6H28.8c-2.5,0-4.6,2.1-4.6,4.6v110.2c0,2.5,2.1,4.6,4.6,4.6h174.5
			C205.8,131.7,207.9,129.6,207.9,127.1z M201.3,129.2H30.9c-2.4,0-4.4-2-4.4-4.4V19.2c0-2.4,2-4.4,4.4-4.4h170.3
			c2.4,0,4.4,2,4.4,4.4v105.7C205.6,127.2,203.7,129.2,201.3,129.2z"/>
		<path class="st2" d="M12.3,162.4h207.5c6.8,0,12.3-5.5,12.3-12.3v-9.2c0-1.7-1.4-3.1-3.1-3.1h-8.8V12.3c0-6.8-5.5-12.3-12.3-12.3
			H24.3c-6.8,0-12.3,5.5-12.3,12.3v125.4H3.1c-1.7,0-3.1,1.4-3.1,3.1v9.2C0,156.8,5.5,162.4,12.3,162.4z M18.2,12.3c0-3.3,2.7-6,6-6
			h183.6c3.3,0,6,2.7,6,6v125.4h-70.3c-1.1,0-2.2,0.6-2.7,1.6l-0.4,0.7H91.7l-0.4-0.7c-0.6-1-1.6-1.6-2.7-1.6H18.2V12.3z M6.3,144
			h80.1l0.4,0.5c1,1.2,2.5,1.8,4,1.8h50.5c1.5,0,3-0.7,4-1.8l0.4-0.5h80.1v6c0,3.3-2.7,6-6,6H12.3c-3.3,0-6-2.7-6-6V144z"/>
	</g>
	<g>
		<circle class="st3" cx="115.6" cy="74" r="28"/>
		<path class="st0" d="M127.1,70.5l-14.3-10.3c-4.7-3.2-4.7,1.7-4.7,1.7v24.2c0,0,0,5,4.7,1.7l14.3-10.3
			C129.9,75.7,129.9,72.4,127.1,70.5z"/>
	</g>
</g>
</svg>
