<svg id="Layer_1" data-name="Layer 1" xmlns="http://www.w3.org/2000/svg" viewBox="0 0 201.48 201.48"><defs><style>.cls-1,.cls-2,.cls-3,.cls-5{fill:none;stroke-miterlimit:10;}.cls-1,.cls-2,.cls-3{stroke:#404041;}.cls-1{stroke-width:4px;}.cls-2{stroke-width:5px;}.cls-3{stroke-width:1.79px;}.cls-4{fill:#404041;}.cls-5{stroke:#3276b4;stroke-width:6.73px;}</style></defs><title>Z-tel-Web-TD-LTE-11</title><path class="cls-1" d="M128.94,52.95V49.37a3.91,3.91,0,0,0-3.9-3.91H108.58a8,8,0,1,0-15.7,0H76.44a3.9,3.9,0,0,0-3.9,3.91v3.58m28.2-11.3a2.21,2.21,0,1,1-2.22,2.23A2.22,2.22,0,0,1,100.74,41.65Z"/><polyline class="cls-2" points="100.74 159.56 58.95 159.56 58.95 52.52 142.52 52.52 142.52 83.21 142.52 83.05 142.52 159.56 121.63 159.56 100.74 159.56"/><rect class="cls-3" x="123.01" y="70.3" width="12.6" height="12.6"/><rect class="cls-3" x="123.01" y="89.93" width="12.6" height="12.6"/><rect class="cls-3" x="123.01" y="109.55" width="12.6" height="12.6"/><rect class="cls-3" x="123.01" y="129.18" width="12.6" height="12.59"/><path class="cls-4" d="M128,82a1.06,1.06,0,0,1-.85-.48l-1.93-2.62a1.85,1.85,0,0,1,0-2.15,1,1,0,0,1,1.66,0l1,1.38,3.41-5.39a1,1,0,0,1,1.65-.21,1.85,1.85,0,0,1,.16,2.15l-4.24,6.72A1.09,1.09,0,0,1,128,82Z"/><rect class="cls-4" x="65.88" y="73.28" width="53.33" height="2.04"/><rect class="cls-4" x="84.12" y="79.81" width="35.08" height="2.05"/><rect class="cls-4" x="65.88" y="92.26" width="53.33" height="2.04"/><rect class="cls-4" x="84.12" y="98.79" width="35.08" height="2.05"/><rect class="cls-4" x="65.88" y="111.24" width="53.33" height="2.03"/><rect class="cls-4" x="84.12" y="117.77" width="35.08" height="2.05"/><rect class="cls-4" x="65.88" y="130.22" width="53.33" height="2.04"/><rect class="cls-4" x="84.12" y="136.75" width="35.08" height="2.05"/><circle class="cls-5" cx="100.74" cy="100.74" r="97.38"/></svg>