<svg id="Layer_1" data-name="Layer 1" xmlns="http://www.w3.org/2000/svg" viewBox="0 0 201.48 201.48"><defs><style>.cls-1{fill:#3276b4;}.cls-2,.cls-3{fill:#404041;}.cls-3{font-size:12.95px;font-family:GothamBlack, Gotham Black;}.cls-4{fill:none;stroke:#3276b4;stroke-miterlimit:10;stroke-width:6.73px;}</style></defs><title>Z-tel-Web-TD-LTE-11</title><path class="cls-1" d="M89.31,97.91l-9.45,6.57a1.12,1.12,0,0,0-.77.47,1.41,1.41,0,0,0,0,1.44,1.11,1.11,0,0,0,.77.47l9.45,6.57a1.13,1.13,0,0,0,1.29-1.85l-8.5-5.91,8.5-5.91a1.13,1.13,0,0,0-1.29-1.85Z"/><path class="cls-1" d="M99.42,97.91,90,104.48a1.2,1.2,0,0,0,0,2.37l9.45,6.57a1.13,1.13,0,0,0,1.28-1.85l-8.5-5.91,8.5-5.91a1.13,1.13,0,0,0-1.28-1.85Z"/><path class="cls-2" d="M74.41,138.53H33.19a2.13,2.13,0,0,1-2.13-2.13V56.49a3.62,3.62,0,0,1,3.62-3.62H72.93a3.62,3.62,0,0,1,3.62,3.62V136.4A2.13,2.13,0,0,1,74.41,138.53Zm-40.55-2.81H73.74V56.49a.81.81,0,0,0-.81-.81H34.67a.81.81,0,0,0-.81.81Z"/><path class="cls-2" d="M74.13,131.42H69.21a1.4,1.4,0,0,1-1.4-1.4V64.48a2.49,2.49,0,0,0-2.2-2.69H41.69a2.49,2.49,0,0,0-2.2,2.69V130a1.4,1.4,0,0,1-1.4,1.4H33.21a1.4,1.4,0,0,1,0-2.81h3.47V64.48a5.28,5.28,0,0,1,5-5.5H65.61a5.28,5.28,0,0,1,5,5.5v64.13h3.51a1.4,1.4,0,0,1,0,2.81Z"/><rect class="cls-2" x="27.53" y="135.55" width="52.3" height="5.79" rx="1.15" ry="1.15"/><path class="cls-2" d="M54.58,137.74H51.64a1.91,1.91,0,0,1-1.9-1.91v-9a1.91,1.91,0,0,1,1.9-1.91h2.95a1.91,1.91,0,0,1,1.91,1.91v9A1.91,1.91,0,0,1,54.58,137.74Zm-2-2.81h1.14V127.7H52.54Z"/><path class="cls-1" d="M49.89,114.63a5.51,5.51,0,0,1,7.78.22l.22.23c.2.28.69.2,1.09-.18l.31-.29c.4-.38.55-.91.34-1.17l-.22-.23a7.9,7.9,0,0,0-11.16-.32l-.23.22c-.23.26-.1.79.27,1.19l.29.31c.38.4.86.51,1.08.24Z"/><circle class="cls-1" cx="53.71" cy="117.14" r="1.99" transform="translate(-65.77 68.85) rotate(-43.36)"/><path class="cls-1" d="M44.77,109.46l-.19.18c-.19.21,0,.7.33,1.1l.28.3c.38.4.84.55,1,.33l.19-.19.1-.1a10.4,10.4,0,0,1,14.68.42l.19.21.15.16c.15.19.6,0,1-.35l.29-.28c.4-.38.6-.83.45-1l-.15-.16-.19-.21a12.79,12.79,0,0,0-18.06-.52Z"/><rect class="cls-1" x="143.98" y="87.65" width="27.64" height="37.07" rx="2.26" ry="2.26"/><path class="cls-2" d="M105.34,88.71V110.9a17.34,17.34,0,0,0,4.88,11.23l3.28,3.06A19.11,19.11,0,0,0,125,129.71h45.26a7.29,7.29,0,0,0,7.28-7.28V88.7a7.29,7.29,0,0,0-7.28-7.27H112.62a7.29,7.29,0,0,0-7.28,7.28Zm64.9-5.16a5.16,5.16,0,0,1,5.15,5.16v33.72a5.16,5.16,0,0,1-5.15,5.15H125a17,17,0,0,1-10-4l-3.28-3.06a15.14,15.14,0,0,1-4.21-9.67V88.71a5.16,5.16,0,0,1,5.15-5.16Zm0,0"/><path class="cls-2" d="M144,91V121a3.64,3.64,0,0,0,3.64,3.63H168a3.64,3.64,0,0,0,3.64-3.63V91A3.64,3.64,0,0,0,168,87.32H147.62A3.64,3.64,0,0,0,144,91ZM145,103.62V98.46A1.41,1.41,0,0,1,146.46,97h4.43a2.57,2.57,0,0,1,2.57,2.57v4A1.42,1.42,0,0,1,152,105h-5.58a1.41,1.41,0,0,1-1.41-1.42Zm0,8.86v-5a1.41,1.41,0,0,1,1.41-1.41H152a1.41,1.41,0,0,1,1.42,1.41v5A1.42,1.42,0,0,1,152,113.9h-5.58a1.41,1.41,0,0,1-1.41-1.42Zm0,8.53v-4.63a1.41,1.41,0,0,1,1.41-1.42H152a1.42,1.42,0,0,1,1.42,1.42v5.79a1.42,1.42,0,0,1-1.42,1.42h-4.42A2.58,2.58,0,0,1,145,121Zm25.51-4.95V121a2.58,2.58,0,0,1-2.58,2.58h-2.36a1.42,1.42,0,0,1-1.42-1.42v-6.1a1.42,1.42,0,0,1,1.42-1.42h3.52a1.43,1.43,0,0,1,1.42,1.42Zm0-8.86v5a1.42,1.42,0,0,1-1.42,1.42h-3.52a1.42,1.42,0,0,1-1.42-1.42v-5a1.42,1.42,0,0,1,1.42-1.42h3.52a1.42,1.42,0,0,1,1.42,1.42Zm0-8.75v4.86a1.42,1.42,0,0,1-1.42,1.41h-3.52a1.41,1.41,0,0,1-1.42-1.41V98.46A1.41,1.41,0,0,1,165.62,97h3.52a1.42,1.42,0,0,1,1.42,1.42Zm0-7.5v3.6A1.42,1.42,0,0,1,169.14,96h-3.52a1.42,1.42,0,0,1-1.42-1.42V89.8a1.42,1.42,0,0,1,1.42-1.42H168A2.58,2.58,0,0,1,170.56,91Zm-7.42-1.15v32.36a1.41,1.41,0,0,1-1.41,1.42h-5.79a1.41,1.41,0,0,1-1.41-1.42V99.61A3.64,3.64,0,0,0,150.89,96h-4.42A1.42,1.42,0,0,1,145,94.56V91a2.58,2.58,0,0,1,2.57-2.57h14.1a1.41,1.41,0,0,1,1.41,1.42Zm0,0"/><rect class="cls-2" x="153.38" y="104.78" width="11.07" height="1.19"/><polygon class="cls-2" points="159.07 124.64 157.88 124.64 157.88 116.67 162.8 113.32 163.47 114.31 159.07 117.3 159.07 124.64"/><polygon class="cls-2" points="162.78 96.41 157.57 91.55 143.98 91.55 143.98 90.36 158.03 90.36 163.59 95.54 162.78 96.41"/><text class="cls-3" transform="translate(117.3 140.99)">Simcard</text><circle class="cls-4" cx="100.74" cy="100.74" r="97.38"/></svg>