<svg id="Layer_1" data-name="Layer 1" xmlns="http://www.w3.org/2000/svg" viewBox="0 0 86.92 119"><defs><style>.cls-1{fill:#4d4d4f;}.cls-2{fill:#3276b4;}</style></defs><title>Web-Towers-Timeline</title><path class="cls-1" d="M77.84,76.69V35.43a1.72,1.72,0,0,0-1.72-1.72H10.8a1.72,1.72,0,0,0-1.72,1.72V76.69a1.72,1.72,0,0,0,1.72,1.72H76.12A1.72,1.72,0,0,0,77.84,76.69Zm-2.49.79H11.57a1.63,1.63,0,0,1-1.63-1.63V36.28a1.63,1.63,0,0,1,1.63-1.63H75.35A1.63,1.63,0,0,1,77,36.28V75.85A1.63,1.63,0,0,1,75.35,77.48Z"/><path class="cls-1" d="M77.84,29.1H9.08a4.62,4.62,0,0,0-4.61,4.61v47H1.18A1.18,1.18,0,0,0,0,81.85v3.44A4.62,4.62,0,0,0,4.61,89.9h77.7a4.62,4.62,0,0,0,4.61-4.61V81.85a1.18,1.18,0,0,0-1.18-1.18H82.45v-47A4.62,4.62,0,0,0,77.84,29.1Zm-71,4.61a2.26,2.26,0,0,1,2.26-2.26H77.84a2.26,2.26,0,0,1,2.26,2.26v47H53.78a1.18,1.18,0,0,0-1,.59l-.16.27H34.32l-.16-.27a1.18,1.18,0,0,0-1-.59H6.82ZM84.57,83v2.26a2.26,2.26,0,0,1-2.26,2.26H4.61a2.27,2.27,0,0,1-2.26-2.26V83h30l.16.18a2,2,0,0,0,1.52.68H52.92a2,2,0,0,0,1.51-.68l.16-.18Z"/><path class="cls-2" d="M70.77,46H63.69V39h7.08Zm-6.2-.88h5.32V39.85H64.57Z"/><path class="cls-2" d="M70.77,55.71H63.69V48.63h7.08Zm-6.2-.88h5.32V49.51H64.57Z"/><path class="cls-2" d="M70.77,65.37H63.69V58.29h7.08Zm-6.2-.88h5.32V59.17H64.57Z"/><path class="cls-2" d="M70.77,75H63.69V68h7.08Zm-6.2-.88h5.32V68.83H64.57Z"/><path class="cls-2" d="M66.59,45.15a.52.52,0,0,1-.42-.24l-.95-1.29a.91.91,0,0,1,0-1.06.49.49,0,0,1,.82,0l.5.68,1.68-2.65a.49.49,0,0,1,.81-.1.91.91,0,0,1,.08,1.06L67,44.87a.53.53,0,0,1-.42.27Z"/><rect class="cls-2" x="15.81" y="40.87" width="46.45" height="1"/><rect class="cls-2" x="31.71" y="44.09" width="30.55" height="1.01"/><rect class="cls-2" x="15.81" y="50.22" width="46.45" height="1"/><rect class="cls-2" x="31.71" y="53.43" width="30.55" height="1.01"/><rect class="cls-2" x="15.81" y="59.56" width="46.45" height="1"/><rect class="cls-2" x="31.71" y="62.78" width="30.55" height="1.01"/><rect class="cls-2" x="15.81" y="68.9" width="46.45" height="1"/><rect class="cls-2" x="31.71" y="72.12" width="30.55" height="1.01"/></svg>