<svg id="Layer_1" data-name="Layer 1" xmlns="http://www.w3.org/2000/svg" viewBox="0 0 64.51 119"><defs><style>.cls-1{fill:#4d4d4f;}</style></defs><title>Web-Towers-Timeline</title><path class="cls-1" d="M43.42,103.57H62.2a2.15,2.15,0,0,0,1.62-.74,2.48,2.48,0,0,0,.69-1.74V19.61a2.47,2.47,0,0,0-.69-1.74,2.15,2.15,0,0,0-1.62-.74l-31,9.48,3.29,3.63,25.37-8.15V98.62H46"/><path class="cls-1" d="M54.12,91.08a1.07,1.07,0,0,0,.81-.37,1.24,1.24,0,0,0,.34-.87V87.36a1.24,1.24,0,0,0-.34-.87,1.08,1.08,0,0,0-.81-.37H51.81a1.08,1.08,0,0,0-.81.37,1.23,1.23,0,0,0-.34.87v2.48a1.23,1.23,0,0,0,.34.87,1.08,1.08,0,0,0,.81.37Zm0,0"/><path class="cls-1" d="M54.12,81.16a1.08,1.08,0,0,0,.81-.37,1.24,1.24,0,0,0,.34-.87V77.44a1.24,1.24,0,0,0-.34-.87,1.07,1.07,0,0,0-.81-.37H51.81a1.08,1.08,0,0,0-.81.37,1.23,1.23,0,0,0-.34.87v2.48a1.23,1.23,0,0,0,.34.87,1.08,1.08,0,0,0,.81.37Zm0,0"/><path class="cls-1" d="M54.12,71.24a1.07,1.07,0,0,0,.81-.37,1.24,1.24,0,0,0,.34-.87V67.53a1.24,1.24,0,0,0-.34-.87,1.08,1.08,0,0,0-.81-.37H51.81a1.08,1.08,0,0,0-.81.37,1.23,1.23,0,0,0-.34.87V70a1.23,1.23,0,0,0,.34.87,1.07,1.07,0,0,0,.81.37Zm0,0"/><path class="cls-1" d="M54.12,61.33a1.07,1.07,0,0,0,.81-.37,1.23,1.23,0,0,0,.34-.87V57.61a1.24,1.24,0,0,0-.34-.87,1.07,1.07,0,0,0-.81-.37H51.81a1.08,1.08,0,0,0-.81.37,1.23,1.23,0,0,0-.34.87v2.48A1.23,1.23,0,0,0,51,61a1.08,1.08,0,0,0,.81.37Zm0,0"/><path class="cls-1" d="M54.12,51.41a1.08,1.08,0,0,0,.81-.37,1.24,1.24,0,0,0,.34-.87V47.69a1.24,1.24,0,0,0-.34-.87,1.07,1.07,0,0,0-.81-.37H51.81a1.07,1.07,0,0,0-.81.37,1.23,1.23,0,0,0-.34.87v2.48A1.23,1.23,0,0,0,51,51a1.08,1.08,0,0,0,.81.37Zm0,0"/><path class="cls-1" d="M54.12,43.4a1.08,1.08,0,0,0,.81-.37,1.24,1.24,0,0,0,.34-.87V39.68a1.24,1.24,0,0,0-.34-.87,1.07,1.07,0,0,0-.81-.37H51.81a1.07,1.07,0,0,0-.81.37,1.23,1.23,0,0,0-.34.87v2.48A1.23,1.23,0,0,0,51,43a1.08,1.08,0,0,0,.81.37Zm0,0"/><path class="cls-1" d="M47.47,31.24a2,2,0,0,0-1.54-.74L2.19,17.13a2,2,0,0,0-1.54.74A2.55,2.55,0,0,0,0,19.61V101.1a2.56,2.56,0,0,0,.65,1.74,2,2,0,0,0,1.54.74H45.93a2,2,0,0,0,1.54-.74,2.56,2.56,0,0,0,.65-1.74V33a2.55,2.55,0,0,0-.65-1.74ZM43.74,98.62H30.62V86.74a1.27,1.27,0,0,0-.33-.87,1,1,0,0,0-.77-.37H18.59a1,1,0,0,0-.77.37,1.27,1.27,0,0,0-.33.87V98.62H4.37V22.09L43.74,35.46Zm0,0"/><path class="cls-1" d="M9.84,91.08H12a1,1,0,0,0,.77-.37,1.27,1.27,0,0,0,.32-.87V87.36a1.27,1.27,0,0,0-.32-.87,1,1,0,0,0-.77-.37H9.84a1,1,0,0,0-.77.37,1.28,1.28,0,0,0-.32.87v2.48a1.28,1.28,0,0,0,.32.87,1,1,0,0,0,.77.37Zm0,0"/><path class="cls-1" d="M9.84,81.16H12a1,1,0,0,0,.77-.37,1.27,1.27,0,0,0,.32-.87V77.44a1.27,1.27,0,0,0-.32-.87A1,1,0,0,0,12,76.2H9.84a1,1,0,0,0-.77.37,1.28,1.28,0,0,0-.32.87v2.48a1.28,1.28,0,0,0,.32.87,1,1,0,0,0,.77.37Zm0,0"/><path class="cls-1" d="M18.59,81.16h2.19a1,1,0,0,0,.77-.37,1.28,1.28,0,0,0,.32-.87V77.44a1.28,1.28,0,0,0-.32-.87,1,1,0,0,0-.77-.37H18.59a1,1,0,0,0-.77.37,1.27,1.27,0,0,0-.33.87v2.48a1.28,1.28,0,0,0,.33.87,1,1,0,0,0,.77.37Zm0,0"/><path class="cls-1" d="M9.84,71.24H12a1,1,0,0,0,.77-.37,1.27,1.27,0,0,0,.32-.87V67.53a1.27,1.27,0,0,0-.32-.87,1,1,0,0,0-.77-.37H9.84a1,1,0,0,0-.77.37,1.28,1.28,0,0,0-.32.87V70a1.28,1.28,0,0,0,.32.87,1,1,0,0,0,.77.37Zm0,0"/><path class="cls-1" d="M36.09,91.08h2.19a1,1,0,0,0,.77-.37,1.28,1.28,0,0,0,.32-.87V87.36a1.28,1.28,0,0,0-.32-.87,1,1,0,0,0-.77-.37H36.09a1,1,0,0,0-.77.37,1.27,1.27,0,0,0-.32.87v2.48a1.27,1.27,0,0,0,.32.87,1,1,0,0,0,.77.37Zm0,0"/><path class="cls-1" d="M27.34,81.16h2.19a1,1,0,0,0,.77-.37,1.27,1.27,0,0,0,.32-.87V77.44a1.27,1.27,0,0,0-.32-.87,1,1,0,0,0-.77-.37H27.34a1,1,0,0,0-.77.37,1.28,1.28,0,0,0-.32.87v2.48a1.28,1.28,0,0,0,.32.87,1,1,0,0,0,.77.37Zm0,0"/><path class="cls-1" d="M18.59,71.24h2.19a1,1,0,0,0,.77-.37,1.28,1.28,0,0,0,.32-.87V67.53a1.28,1.28,0,0,0-.32-.87,1,1,0,0,0-.77-.37H18.59a1,1,0,0,0-.77.37,1.27,1.27,0,0,0-.33.87V70a1.27,1.27,0,0,0,.33.87,1,1,0,0,0,.77.37Zm0,0"/><path class="cls-1" d="M9.84,61.33H12A1,1,0,0,0,12.8,61a1.26,1.26,0,0,0,.32-.87V57.61a1.27,1.27,0,0,0-.32-.87,1,1,0,0,0-.77-.37H9.84a1,1,0,0,0-.77.37,1.28,1.28,0,0,0-.32.87v2.48a1.27,1.27,0,0,0,.32.87,1,1,0,0,0,.77.37Zm0,0"/><path class="cls-1" d="M36.09,81.16h2.19a1,1,0,0,0,.77-.37,1.28,1.28,0,0,0,.32-.87V77.44a1.28,1.28,0,0,0-.32-.87,1,1,0,0,0-.77-.37H36.09a1,1,0,0,0-.77.37,1.27,1.27,0,0,0-.32.87v2.48a1.27,1.27,0,0,0,.32.87,1,1,0,0,0,.77.37Zm0,0"/><path class="cls-1" d="M27.34,71.24h2.19a1,1,0,0,0,.77-.37,1.27,1.27,0,0,0,.32-.87V67.53a1.27,1.27,0,0,0-.32-.87,1,1,0,0,0-.77-.37H27.34a1,1,0,0,0-.77.37,1.28,1.28,0,0,0-.32.87V70a1.28,1.28,0,0,0,.32.87,1,1,0,0,0,.77.37Zm0,0"/><path class="cls-1" d="M18.59,61.33h2.19a1,1,0,0,0,.77-.37,1.27,1.27,0,0,0,.32-.87V57.61a1.28,1.28,0,0,0-.32-.87,1,1,0,0,0-.77-.37H18.59a1,1,0,0,0-.77.37,1.27,1.27,0,0,0-.33.87v2.48a1.27,1.27,0,0,0,.33.87,1,1,0,0,0,.77.37Zm0,0"/><path class="cls-1" d="M9.84,51.41H12A1,1,0,0,0,12.8,51a1.27,1.27,0,0,0,.32-.87V47.69a1.27,1.27,0,0,0-.32-.87,1,1,0,0,0-.77-.37H9.84a1,1,0,0,0-.77.37,1.28,1.28,0,0,0-.32.87v2.48a1.28,1.28,0,0,0,.32.87,1,1,0,0,0,.77.37Zm0,0"/><path class="cls-1" d="M36.09,71.24h2.19a1,1,0,0,0,.77-.37,1.28,1.28,0,0,0,.32-.87V67.53a1.28,1.28,0,0,0-.32-.87,1,1,0,0,0-.77-.37H36.09a1,1,0,0,0-.77.37,1.27,1.27,0,0,0-.32.87V70a1.27,1.27,0,0,0,.32.87,1,1,0,0,0,.77.37Zm0,0"/><path class="cls-1" d="M27.34,61.33h2.19a1,1,0,0,0,.77-.37,1.26,1.26,0,0,0,.32-.87V57.61a1.27,1.27,0,0,0-.32-.87,1,1,0,0,0-.77-.37H27.34a1,1,0,0,0-.77.37,1.28,1.28,0,0,0-.32.87v2.48a1.27,1.27,0,0,0,.32.87,1,1,0,0,0,.77.37Zm0,0"/><path class="cls-1" d="M18.59,51.41h2.19a1,1,0,0,0,.77-.37,1.28,1.28,0,0,0,.32-.87V47.69a1.28,1.28,0,0,0-.32-.87,1,1,0,0,0-.77-.37H18.59a1,1,0,0,0-.77.37,1.27,1.27,0,0,0-.33.87v2.48a1.27,1.27,0,0,0,.33.87,1,1,0,0,0,.77.37Zm0,0"/><path class="cls-1" d="M36.09,61.33h2.19A1,1,0,0,0,39,61a1.27,1.27,0,0,0,.32-.87V57.61a1.28,1.28,0,0,0-.32-.87,1,1,0,0,0-.77-.37H36.09a1,1,0,0,0-.77.37,1.27,1.27,0,0,0-.32.87v2.48a1.26,1.26,0,0,0,.32.87,1,1,0,0,0,.77.37Zm0,0"/><path class="cls-1" d="M27.34,51.41h2.19a1,1,0,0,0,.77-.37,1.27,1.27,0,0,0,.32-.87V47.69a1.27,1.27,0,0,0-.32-.87,1,1,0,0,0-.77-.37H27.34a1,1,0,0,0-.77.37,1.28,1.28,0,0,0-.32.87v2.48a1.28,1.28,0,0,0,.32.87,1,1,0,0,0,.77.37Zm0,0"/><path class="cls-1" d="M36.09,51.41h2.19A1,1,0,0,0,39,51a1.28,1.28,0,0,0,.32-.87V47.69a1.28,1.28,0,0,0-.32-.87,1,1,0,0,0-.77-.37H36.09a1,1,0,0,0-.77.37,1.27,1.27,0,0,0-.32.87v2.48a1.27,1.27,0,0,0,.32.87,1,1,0,0,0,.77.37Zm0,0"/><path class="cls-1" d="M9.84,43.4H12A1,1,0,0,0,12.8,43a1.27,1.27,0,0,0,.32-.87V39.68a1.27,1.27,0,0,0-.32-.87,1,1,0,0,0-.77-.37H9.84a1,1,0,0,0-.77.37,1.28,1.28,0,0,0-.32.87v2.48a1.28,1.28,0,0,0,.32.87,1,1,0,0,0,.77.37Zm0,0"/><path class="cls-1" d="M18.59,43.4h2.19a1,1,0,0,0,.77-.37,1.28,1.28,0,0,0,.32-.87V39.68a1.28,1.28,0,0,0-.32-.87,1,1,0,0,0-.77-.37H18.59a1,1,0,0,0-.77.37,1.27,1.27,0,0,0-.33.87v2.48a1.27,1.27,0,0,0,.33.87,1,1,0,0,0,.77.37Zm0,0"/><path class="cls-1" d="M27.34,43.4h2.19a1,1,0,0,0,.77-.37,1.27,1.27,0,0,0,.32-.87V39.68a1.27,1.27,0,0,0-.32-.87,1,1,0,0,0-.77-.37H27.34a1,1,0,0,0-.77.37,1.28,1.28,0,0,0-.32.87v2.48a1.28,1.28,0,0,0,.32.87,1,1,0,0,0,.77.37Zm0,0"/><path class="cls-1" d="M36.09,43.4h2.19A1,1,0,0,0,39,43a1.28,1.28,0,0,0,.32-.87V39.68a1.28,1.28,0,0,0-.32-.87,1,1,0,0,0-.77-.37H36.09a1,1,0,0,0-.77.37,1.27,1.27,0,0,0-.32.87v2.48a1.27,1.27,0,0,0,.32.87,1,1,0,0,0,.77.37Zm0,0"/></svg>