<svg id="Layer_1" data-name="Layer 1" xmlns="http://www.w3.org/2000/svg" viewBox="0 0 57.51 119"><defs><style>.cls-1{fill:#4d4d4f;}.cls-2{fill:#3276b4;}</style></defs><title>Web-Towers-Timeline</title><rect class="cls-1" x="31.48" y="74.58" width="2.98" height="44.57"/><path class="cls-1" d="M38.1,38.38A5.06,5.06,0,1,0,33,43.44,5.07,5.07,0,0,0,38.1,38.38Zm-7,0a2,2,0,1,1,2,2A2,2,0,0,1,31.08,38.38Z"/><path class="cls-1" d="M49.85,53.27V38.39h0V5.68a1.55,1.55,0,1,0-3.11,0v8.11h-14l-.07,0-.07,0-.07,0-.07,0-.07,0-.07,0-.06,0-.07,0-.06,0-.06,0-.06.06,0,0h0l-.06.06,0,.05,0,.06,0,.06,0,0,0,.08,0,.05,0,.08,0,.09,0,.06,0,.09,0,.06v.15s0,0,0,.06,0,.06,0,.09h0v6.3h0a16.81,16.81,0,0,0,0,33.47V75.32h5.69l3.49-3.61,3.49,3.61h5.69V71.41a9.2,9.2,0,0,0,0-18.14Zm-3.11-3v3a9.14,9.14,0,0,0-3.39,1.32l-.5-.51Zm0-23-3.91-4,3.91-4ZM44.63,16.9l-4,4.1-4-4.1Zm-10,2.29,2.88,3a16.71,16.71,0,0,0-2.88-.52Zm-11,29.1A13.69,13.69,0,1,1,33,52.08,13.66,13.66,0,0,1,23.59,48.29ZM38.11,54.4l-3.52,3.47V55.11A16.69,16.69,0,0,0,38.11,54.4ZM34.59,73.52V65.44l3.91,4Zm4.52-11.18a9.14,9.14,0,0,0,1.2,4.54l-5.09-5.26,5.42-5.35.41.43A9.15,9.15,0,0,0,39.11,62.34Zm7.63,11.18-3.22-3.33a9.14,9.14,0,0,0,3.22,1.22Zm1.57-5.09a6.09,6.09,0,1,1,6.09-6.09A6.1,6.1,0,0,1,48.31,68.43Z"/><path class="cls-1" d="M48.32,64a1.55,1.55,0,0,0,0-3.11A1.55,1.55,0,0,0,48.32,64Z"/><path class="cls-1" d="M48.29,3.11a1.55,1.55,0,0,0,0-3.11A1.55,1.55,0,0,0,48.29,3.11Z"/><rect class="cls-1" x="46.83" y="74.58" width="2.98" height="44.57"/><polygon class="cls-1" points="49.38 87.63 35.14 73.39 33.04 75.49 49.38 91.83 49.38 87.63"/><polygon class="cls-1" points="33.09 90.72 48.32 75.49 46.22 73.39 33.09 86.52 33.09 90.72"/><polygon class="cls-1" points="49.38 99.12 35.14 84.88 33.04 86.98 49.38 103.33 49.38 99.12"/><polygon class="cls-1" points="33.09 102.22 48.32 86.98 46.22 84.88 33.09 98.01 33.09 102.22"/><polygon class="cls-1" points="49.38 110.62 35.14 96.37 33.04 98.48 49.38 114.82 49.38 110.62"/><polygon class="cls-1" points="33.09 113.71 48.32 98.48 46.22 96.37 33.09 109.5 33.09 113.71"/><path class="cls-1" d="M5.41,87.45a4.31,4.31,0,0,0-.54,1.62v.86l.22,13.38L.34,113.24A6.18,6.18,0,0,0,0,114.32a3.29,3.29,0,0,0,.59,2.21,2.55,2.55,0,0,0,2,1.13,2.85,2.85,0,0,0,3.13-1.51l5.07-10.9a1.74,1.74,0,0,0,.22-.76V95.76l7.88,3.45,1.3,8.09a2.75,2.75,0,0,0,2.48,2.27,2.76,2.76,0,0,0,2.21-.54,3,3,0,0,0,1.24-1.94v-.86l-1.62-9.71a2.66,2.66,0,0,0-1.62-2.16l-7-3.13,4.42-7.77,2.27,2.81a2,2,0,0,0,.86.65l8.42,2.37a2.13,2.13,0,0,0,2.7-1.4,2.36,2.36,0,0,0-.05-1.78,2.11,2.11,0,0,0-1.24-1.24l-.11-.11-7.34-2.16L20.19,76a5.45,5.45,0,0,0-3.13-1.73,5,5,0,0,0-5.5,2.59Zm0,0"/><path class="cls-1" d="M23.52,66.68a4.53,4.53,0,1,0,.73,3.12h4.39a1.5,1.5,0,0,0,0-3h-5l-.08-.12Zm0,0"/><path class="cls-2" d="M7.64,84.87a.28.28,0,0,0,0,.51l1.92,1.13-.1,1.83-1.55,1L5.94,88.18a.28.28,0,0,0-.42.29,3.24,3.24,0,0,0,5.07,2.11l.16.1,6.12,3.85h0a1.58,1.58,0,1,0,1.61-2.72h0l-6.36-3.44-.17-.09a3.24,3.24,0,0,0-4.3-3.41ZM18,92.75a.58.58,0,1,1-.8.21.58.58,0,0,1,.8-.21Zm0,0"/><path class="cls-2" d="M13.61,89.91a.35.35,0,0,1-.17,0,.36.36,0,0,1-.14-.48l7.09-13a.36.36,0,0,1,.63.34l-7.09,13A.36.36,0,0,1,13.61,89.91Z"/><path class="cls-2" d="M8.95,86a.35.35,0,0,1-.17,0,.36.36,0,0,1-.14-.48L14.92,74a.36.36,0,1,1,.63.34L9.26,85.85A.36.36,0,0,1,8.95,86Z"/></svg>