<svg id="Layer_1" data-name="Layer 1" xmlns="http://www.w3.org/2000/svg" viewBox="0 0 88.54 119"><defs><style>.cls-1{fill:#3276b4;}.cls-2{fill:#4d4d4f;}</style></defs><title>Web-Towers-Timeline</title><polygon class="cls-1" points="74.43 44.43 66.28 37.44 67.48 36.04 74.32 41.9 80.77 35.24 82.09 36.52 74.43 44.43"/><path class="cls-2" d="M66.88,26.63a7,7,0,1,0,7-7,7,7,0,0,0-7,7Zm12.79,0a5.76,5.76,0,1,1-5.76-5.76,5.76,5.76,0,0,1,5.76,5.76Zm0,0"/><path class="cls-2" d="M73.91,34.12a7.49,7.49,0,1,1,7.49-7.49A7.5,7.5,0,0,1,73.91,34.12Zm0-14.06a6.57,6.57,0,1,0,6.57,6.57A6.58,6.58,0,0,0,73.91,20.06Zm0,12.79a6.22,6.22,0,1,1,6.22-6.22A6.22,6.22,0,0,1,73.91,32.84Zm0-11.51a5.3,5.3,0,1,0,5.3,5.3A5.3,5.3,0,0,0,73.91,21.33Z"/><path class="cls-2" d="M74.54,49.72H59.92l.3-1.15c0-.05,0-.2,0-.4,1.25-11.3,6.76-14,11.17-14.24l.41,0,2.62,2.59L73.17,37.8l-2-2c-5,.5-8,4.56-9,12.09H74.54Z"/><path class="cls-2" d="M87.34,49.72H74.54V47.88H86.3c-.94-7.53-4-11.6-9-12.09l-2,2L74,36.49l2.62-2.59.41,0c4.41.26,9.92,2.95,11.17,14.24,0,.2,0,.35.05.43l.21,1.09Z"/><path class="cls-1" d="M78.56,67.33l-4.11-5.91a.7.7,0,0,0-.29-.48.88.88,0,0,0-.9,0,.69.69,0,0,0-.29.48l-4.11,5.91a.7.7,0,0,0,1.15.8l3.69-5.31,3.69,5.31a.7.7,0,0,0,1.16-.8Z"/><path class="cls-1" d="M78.56,60.24l-4.11-5.91a.7.7,0,0,0-.29-.48.88.88,0,0,0-.9,0,.69.69,0,0,0-.29.48l-4.11,5.91A.7.7,0,0,0,70,61l3.69-5.31L77.4,61a.7.7,0,0,0,1.16-.8Z"/><path class="cls-1" d="M54.1,77.88A10.74,10.74,0,1,0,64.85,88.62,10.74,10.74,0,0,0,54.1,77.88ZM60.64,92.6h0l-.17.15a9.11,9.11,0,0,1-1,.73h0a3.67,3.67,0,0,1-2.75.64,5.51,5.51,0,0,1-2.52-1A13.44,13.44,0,0,1,51,89.77a7.72,7.72,0,0,1-1.71-4.43,4,4,0,0,1,1.27-3h0l.14-.13,0,0c.31-.28.68-.55.81-.65a.86.86,0,0,1,.68-.22c.57.09,1,.88,1.31,1.33a3.46,3.46,0,0,1,.61,1.84,1.39,1.39,0,0,1-.6.86,5,5,0,0,1-.56.41h0a1.3,1.3,0,0,0-.61.6,1.92,1.92,0,0,0,.34,1.52,9.59,9.59,0,0,0,1.8,2.25,2.15,2.15,0,0,0,1.47.71,1.51,1.51,0,0,0,.81-.54h0l.13-.12,0,0h0a6.06,6.06,0,0,1,.49-.38l.11-.07h0a1.13,1.13,0,0,1,.55-.19,3.47,3.47,0,0,1,1.86,1c.39.36,1,1,.93,1.6a.84.84,0,0,1-.25.43Z"/><path class="cls-2" d="M48.79,99.86H0l.59-2.22c0-.08,0-.29.09-.58C3.53,78.7,12.88,68.88,26.92,69.49l.69,0,3.71,3.68,3.59-3.57.52-.1C44,67.83,49.64,75.09,49.87,75.4l1.38,1.82-2.11.88a11.38,11.38,0,0,0-3.52,18.72ZM4.38,96.33H40.74A14.93,14.93,0,0,1,45.57,76a11.18,11.18,0,0,0-8.95-3.08l-5.3,5.27L26.1,73h-.35C11.66,73,6.33,85.32,4.38,96.33Z"/><path class="cls-2" d="M33.62,69.77H32a3.57,3.57,0,0,1,0-7.14h1.64a3.54,3.54,0,0,1,2,.63,9.54,9.54,0,0,0,6.21-3.34,17.63,17.63,0,0,0,1.42-10.34c-.93-5.21-6.07-9.09-12-9.09s-10.93,3.8-11.93,8.87l.1,11.69-3.54,0v0h-.31A4.62,4.62,0,0,1,11,56.45V50a4.59,4.59,0,0,1,1.43-3.34c1.42-8.58,9.38-15,18.85-15s17.44,6.38,18.86,15A4.59,4.59,0,0,1,51.6,50v6.45A4.62,4.62,0,0,1,47,61.06H45.42a12.9,12.9,0,0,1-2.76,3L44,65.74a15.5,15.5,0,0,1-8,3.16A3.57,3.57,0,0,1,33.62,69.77ZM32,66.17l1.64.06,0,0H32ZM31.32,37C39,37,45.52,42,46.75,48.9a20.89,20.89,0,0,1-.29,8.62H47a1.08,1.08,0,0,0,1.08-1.08V50a1.07,1.07,0,0,0-.5-.91l-.7-.45-.1-.83c-.86-7.17-7.5-12.58-15.45-12.58S16.73,40.64,15.87,47.81l-.1.83-.7.45a1.07,1.07,0,0,0-.5.91v6.45a1.08,1.08,0,0,0,1.08,1.08h.28l-.08-8.46,0-.16C17.11,42,23.61,37,31.32,37Z"/><path class="cls-2" d="M29.37,68.06a16.22,16.22,0,0,1-14-8.29l3.14-1.62L16.92,59l1.57-.82a12.68,12.68,0,0,0,12.63,6.28l.41,3.51A18.65,18.65,0,0,1,29.37,68.06Z"/></svg>