<svg id="Layer_1" data-name="Layer 1" xmlns="http://www.w3.org/2000/svg" viewBox="0 0 71.41 119"><defs><style>.cls-1{fill:#3276b4;}.cls-2{fill:#4d4d4f;}</style></defs><title>Web-Towers-Timeline</title><path class="cls-1" d="M69.55,66.9l-8.41,1.32L52.7,44.62s10.06-6.33,16.23-1.74"/><path class="cls-2" d="M35.71,81.82a11.41,11.41,0,0,1-5.28-1.73c-1.33-.87-8-5.88-13.53-10.52C16,68.79,14.6,67.36,13.28,66c-1-1-1.88-2-2.34-2.36a1.49,1.49,0,1,1,1.92-2.27c.51.43,1.49,1.45,2.57,2.57s2.59,2.7,3.38,3.37C24.47,72,31,76.91,32.06,77.59a8.57,8.57,0,0,0,3.64,1.25c1.39,0,1.52-.36,1.58-.51a1.49,1.49,0,0,1,1-.94,1.51,1.51,0,0,1,1.36.35,1.57,1.57,0,0,0,1.71.26,2.83,2.83,0,0,0,1.76-2.28,1.49,1.49,0,0,1,2.5-.95A2.28,2.28,0,0,0,48,74.72,1.8,1.8,0,0,0,49.1,73a1.49,1.49,0,0,1,2.32-1.38,1.64,1.64,0,0,0,1.83-.36,1.74,1.74,0,0,0,.44-2.23c-1.12-2.32-6.08-6.33-10.45-9.87-2.42-2-4.72-3.81-6.42-5.41-.43.18-.76.32-1,.45a7.51,7.51,0,0,1-2.23.71c-2.29,3-5.37,4.11-8.74,3a3.68,3.68,0,0,1-2.56-2.68c-.71-3,2.05-7.14,4.09-9.17,5.35-5.35,9.09-7.36,15.91-4.31C48.12,44.4,54,46.45,54,46.47a1.49,1.49,0,1,1-1,2.81c-.06,0-6-2.11-12-4.78-5.27-2.35-7.76-1.14-12.6,3.7-2,2-3.6,5.07-3.29,6.38,0,.19.13.39.59.54,1.46.49,3.63.76,5.74-2.39a1.49,1.49,0,0,1,1.09-.65,4.92,4.92,0,0,0,2-.55c.49-.22,1.11-.5,2.11-.86a1.49,1.49,0,0,1,1.56.35c1.63,1.63,4.18,3.69,6.88,5.88,4.84,3.92,9.86,8,11.26,10.9a4.73,4.73,0,0,1-1.19,5.78,4.87,4.87,0,0,1-3.41,1.22,5,5,0,0,1-2.48,2.59,5.75,5.75,0,0,1-3.73.54,5.86,5.86,0,0,1-3.1,2.86,4.63,4.63,0,0,1-3.38,0A5.12,5.12,0,0,1,35.71,81.82Z"/><path class="cls-2" d="M29.75,46.11H16.37a1.49,1.49,0,0,1,0-3H29.75a1.49,1.49,0,0,1,0,3Z"/><path class="cls-2" d="M55.16,69.86a1.49,1.49,0,0,1-.83-2.72l4.35-2.92a1.49,1.49,0,1,1,1.66,2.47L56,69.61A1.47,1.47,0,0,1,55.16,69.86Z"/><path class="cls-2" d="M50.58,74.38a1.48,1.48,0,0,1-.92-.32c-1.57-1.24-8.31-8.27-9.08-9.07a1.49,1.49,0,1,1,2.15-2.06c2.95,3.07,7.71,7.95,8.77,8.79a1.49,1.49,0,0,1,.25,2.09A1.5,1.5,0,0,1,50.58,74.38Z"/><path class="cls-2" d="M44.63,77.35A1.49,1.49,0,0,1,43.7,77c-2.21-1.77-7.55-7.54-7.61-7.59a1.49,1.49,0,1,1,2.19-2c1,1.1,5.49,5.86,7.27,7.28a1.49,1.49,0,0,1-.93,2.65Z"/><path class="cls-2" d="M38.68,80.33a1.48,1.48,0,0,1-1-.35c-2.19-1.85-6.35-6.25-7.57-7.56a1.49,1.49,0,1,1,2.18-2c.85.91,5.19,5.53,7.31,7.32a1.49,1.49,0,0,1-1,2.63Z"/><path class="cls-2" d="M10.41,66.94H1.49A1.49,1.49,0,0,1,0,65.45V38.67a1.49,1.49,0,0,1,1.58-1.48c3.06.18,13.26,1,15.81,3.38a1.48,1.48,0,0,1,.46,1.21c-.68,7.74-5.8,23.47-6,24.14A1.49,1.49,0,0,1,10.41,66.94ZM3,64H9.33c1.11-3.49,4.67-15.07,5.46-21.59-1.87-.91-7-1.73-11.82-2.11Z"/><path class="cls-2" d="M69.92,69.91H61a1.49,1.49,0,0,1-1.43-1.09c-1.11-4-6.86-20.45-8.7-23.41a1.5,1.5,0,0,1-.16-1.21,1.48,1.48,0,0,1,.79-.93c.27-.12,6.75-3.12,18.43-3.12a1.49,1.49,0,0,1,1.49,1.49V68.43A1.49,1.49,0,0,1,69.92,69.91Zm-7.81-3h6.33V43.15a48.46,48.46,0,0,0-14.23,2.26C56.53,50.36,60.7,62.34,62.11,66.94Z"/></svg>