<svg id="Layer_1" data-name="Layer 1" xmlns="http://www.w3.org/2000/svg" viewBox="0 0 106.5 119"><defs><style>.cls-1{fill:#4d4d4f;}.cls-2{fill:#3276b4;}</style></defs><title>Web-Towers-Timeline</title><path class="cls-1" d="M28.9,52.28A14.09,14.09,0,1,1,43,38.2,14.1,14.1,0,0,1,28.9,52.28Zm0-26A11.88,11.88,0,1,0,40.78,38.2,11.89,11.89,0,0,0,28.9,26.32Z"/><path class="cls-1" d="M44.78,59.5H10.41a.9.9,0,0,1-.85-1.2,9.6,9.6,0,0,1,4.85-5.49c3.25-1,9.36-.76,12-.66l1,0h7.72a2.92,2.92,0,0,0,2.24-1L54,31.31a5.73,5.73,0,0,1,8.05-.7h0a5.71,5.71,0,0,1,.7,8.05L45.47,59.18A.9.9,0,0,1,44.78,59.5Zm-33-1.81H44.35l17-20.19A3.91,3.91,0,0,0,60.85,32h0a3.92,3.92,0,0,0-5.51.48L38.68,52.3A4.72,4.72,0,0,1,35.06,54H27.34l-1,0c-2.3-.09-8.41-.33-11.28.55h0A8,8,0,0,0,11.8,57.69Z"/><path class="cls-1" d="M55.55,95.77H2.91A2.91,2.91,0,0,1,0,92.86V89.22a1,1,0,0,1,1-1H57.5a1,1,0,0,1,1,1v3.65A2.91,2.91,0,0,1,55.55,95.77ZM1.93,90.18v2.68a1,1,0,0,0,1,1H55.55a1,1,0,0,0,1-1V90.18Z"/><path class="cls-1" d="M57.5,87.84H1a1,1,0,0,1-1-1L.36,60.74a2.88,2.88,0,0,1,.79-2.11,2.91,2.91,0,0,1,2.12-.92H55.45a2.91,2.91,0,0,1,2.9,3.15l.11,26a1,1,0,0,1-1,1ZM1.94,85.92H56.53l-.1-25.12a1,1,0,0,0-.25-.83,1,1,0,0,0-.72-.32H3.26a1,1,0,0,0-.71.31,1,1,0,0,0-.27.74Z"/><path class="cls-1" d="M29.23,79.11a2.33,2.33,0,0,1-2.06-.83c-.55-.83-.14-1.79.29-2.8a7.11,7.11,0,0,0,.75-2.71,7.11,7.11,0,0,0-.75-2.7c-.43-1-.84-2-.29-2.8a2.33,2.33,0,0,1,2.06-.83,6.33,6.33,0,0,1,0,12.66Zm-.21-2h.21a4.29,4.29,0,0,0,0-8.58H29c.08.23.21.53.31.78a9,9,0,0,1,.91,3.51,9,9,0,0,1-.91,3.51C29.23,76.53,29.1,76.84,29,77.07Z"/><path class="cls-1" d="M29.58,46.78l-.29,0c-1.92.06-3.74-1.11-5.38-3.47a.86.86,0,0,1,1.4-1c1.29,1.85,2.62,2.77,3.93,2.73,2.16-.06,3.85-2.72,3.87-2.75a.86.86,0,1,1,1.46.89C34.49,43.37,32.54,46.5,29.58,46.78Z"/><path class="cls-2" d="M88.3,56.16A13.74,13.74,0,0,0,75.7,41.4l-.8-.06c-.85,0-1.46-1-1.36-2.4l.08-1.05c.11-1.36.9-2.49,1.75-2.5l.79.06A19.71,19.71,0,0,1,94.25,56.63l-.06.79c-.15.84-1.38,1.44-2.74,1.33l-1.05-.08c-1.36-.11-2.33-.88-2.15-1.71Z"/><circle class="cls-2" cx="77.45" cy="52.66" r="4.97" transform="translate(18.84 125.71) rotate(-85.47)"/><path class="cls-2" d="M106.36,58l-.06.64c-.1.7-1.3,1.17-2.66,1.07l-1-.08c-1.36-.11-2.38-.78-2.27-1.5l.06-.67c0-.11,0-.23,0-.35A25.94,25.94,0,0,0,76.67,29.25l-.71,0-.54,0c-.6,0-1-1.12-.89-2.48l.08-1c.11-1.36.68-2.47,1.28-2.46l.55,0,.71,0A31.91,31.91,0,0,1,106.4,57.6C106.39,57.73,106.37,57.87,106.36,58Z"/></svg>