<svg id="Layer_1" data-name="Layer 1" xmlns="http://www.w3.org/2000/svg" viewBox="0 0 122.93 119"><defs><style>.cls-1{fill:#3276b4;}.cls-2{fill:#fff;}.cls-3{fill:#4d4d4f;}.cls-4{fill:#eaeaea;}.cls-5{fill:#b9b9ba;}</style></defs><title>Web-Towers-Timeline</title><path class="cls-1" d="M122.93,46.76h-2.21a12.71,12.71,0,0,0-12.56-12.84H84.89V31.72h23.28A14.92,14.92,0,0,1,122.93,46.76Z"/><path class="cls-2" d="M95.38,27.19h27.35a0,0,0,0,1,0,0V43.82a3.2,3.2,0,0,1-3.2,3.2H98.58a3.2,3.2,0,0,1-3.2-3.2V27.19A0,0,0,0,1,95.38,27.19Z"/><path class="cls-3" d="M121.67,28.24V43.82A2.15,2.15,0,0,1,119.52,46H98.58a2.15,2.15,0,0,1-2.14-2.14V28.24h25.23m1.06-1.06H95.38V43.82a3.2,3.2,0,0,0,3.2,3.2h20.94a3.2,3.2,0,0,0,3.2-3.2V27.19Z"/><path class="cls-1" d="M100.51,20.77h17.08a5.13,5.13,0,0,1,5.13,5.13v1.28a0,0,0,0,1,0,0H95.38a0,0,0,0,1,0,0V25.91A5.13,5.13,0,0,1,100.51,20.77Z"/><path class="cls-3" d="M99.83,22.64h0a.56.56,0,0,1-.56-.56V20.77h1.11v1.31A.56.56,0,0,1,99.83,22.64Z"/><path class="cls-3" d="M106.41,22.64h0a.56.56,0,0,1-.56-.56V20.77H107v1.31A.56.56,0,0,1,106.41,22.64Z"/><path class="cls-3" d="M112.57,22.64h0a.56.56,0,0,1-.56-.56V20.77h1.11v1.31A.56.56,0,0,1,112.57,22.64Z"/><path class="cls-3" d="M118.77,22.64h0a.56.56,0,0,1-.56-.56V20.77a4.71,4.71,0,0,1,1.11,0v1.3A.56.56,0,0,1,118.77,22.64Z"/><rect class="cls-4" x="105.64" y="19.91" width="1.11" height="2.55" rx="0.45" ry="0.45"/><rect class="cls-4" x="111.82" y="19.91" width="1.11" height="2.55" rx="0.45" ry="0.45"/><rect class="cls-4" x="118.01" y="19.91" width="1.11" height="2.55" rx="0.45" ry="0.45"/><path class="cls-5" d="M120.26,40.22l-5.59,6.22a12.35,12.35,0,0,0,.21-1.78c0-.44-.08-.82-.11-1.45a2.3,2.3,0,0,1,1.34-2.47c.7-.4,1.84-.1,2.53-.15C118.93,40.57,120,40.52,120.26,40.22Z"/><path class="cls-3" d="M122.25,40l-7.44,6.61a13.94,13.94,0,0,0,.44-2.06c0-.51,0-1,0-1.71a2.66,2.66,0,0,1,1.88-2.73c.89-.38,2.25.1,3.1.13C120.6,40.29,122,40.37,122.25,40Z"/><rect class="cls-3" x="98.2" y="30.78" width="3.65" height="2.36"/><rect class="cls-3" x="98.2" y="34.99" width="3.65" height="2.36"/><rect class="cls-3" x="104.01" y="34.99" width="3.65" height="2.36"/><rect class="cls-3" x="109.81" y="34.99" width="3.65" height="2.36"/><rect class="cls-3" x="115.5" y="34.99" width="3.65" height="2.36"/><rect class="cls-3" x="98.2" y="39.19" width="3.65" height="2.36"/><rect class="cls-3" x="104.01" y="39.19" width="3.65" height="2.36"/><rect class="cls-3" x="109.81" y="39.19" width="3.65" height="2.36"/><rect class="cls-3" x="104.01" y="30.78" width="3.65" height="2.36"/><rect class="cls-3" x="109.81" y="30.78" width="3.65" height="2.36"/><rect class="cls-3" x="115.62" y="30.78" width="3.65" height="2.36"/><rect class="cls-4" x="99.05" y="19.91" width="1.11" height="2.55" rx="0.45" ry="0.45"/><path class="cls-1" d="M105.76,32.38s0,.06,0,.05l0-.07Z"/><path class="cls-1" d="M105.78,32.53a.13.13,0,0,1-.11-.06.14.14,0,0,1,0-.16l0,0,.3-.08-.13.31h-.08Zm.06-.09h0a.07.07,0,0,0,0-.08.09.09,0,0,0-.07,0h0l0,0Z"/><path class="cls-1" d="M106,32.52l.07-.06a.1.1,0,0,0,0-.09l-.06,0a.19.19,0,0,0-.06.06,0,0,0,0,1-.05-.05h0a0,0,0,0,0,0,0,.12.12,0,0,0,.17,0S106,32.51,106,32.52Z"/><path class="cls-1" d="M105.81,32.78l.06-.18a.23.23,0,0,1-.11-.08l0-.05,0-.06a.14.14,0,0,1,.12-.08l.31-.35-.07.2h0l.06.18a.2.2,0,0,1,0,.18.35.35,0,0,1-.09.09Z"/><path class="cls-1" d="M108.82,34.35v0Z"/><polygon class="cls-1" points="109.08 35.09 108.71 34.37 108.71 34.32 108.79 33.7 109.08 35.09"/><path class="cls-1" d="M109.4,36.36s0,0,0,0S109.39,36.36,109.4,36.36Z"/><path class="cls-1" d="M109.42,36.47h0a.12.12,0,0,1-.08-.08l-.07-.17.18,0a.12.12,0,0,1,.1.11v.07Zm0-.11h-.08a.08.08,0,0,0,.07.06Zm0-.1,0,.07.07,0A.11.11,0,0,0,109.42,36.26Z"/><path class="cls-1" d="M109.31,36.71v0S109.31,36.71,109.31,36.71Z"/><polygon class="cls-1" points="109.37 36.89 109.17 36.72 109.24 36.62 109.55 36.28 109.37 36.89"/><path class="cls-1" d="M108.82,34.35v.06S108.83,34.38,108.82,34.35Z"/><path class="cls-1" d="M108.76,34.56l-.21-1,.37.79-.09,0,.1,0a.13.13,0,0,1,0,.12l0,0Zm0-.19v0h0Zm0-.05,0,0Z"/><path class="cls-1" d="M106.51,32.44h0Z"/><path class="cls-1" d="M106,32.6l.42-.24a.17.17,0,0,1,.08,0h.17l-.1.21h-.08Zm.51-.08v0h0Z"/><path class="cls-1" d="M108.17,33.69h0Z"/><path class="cls-1" d="M108.17,33.79h-.46l.37-.19,0,0,.06,0,.24.22Z"/><path class="cls-1" d="M107.6,33.27s0,0,.07-.06l-.05,0Z"/><path class="cls-1" d="M107.63,33.4l-.13-.09v-.06a.22.22,0,0,1,0-.07l0-.07h.05l.82-.54Z"/><path class="cls-1" d="M106.61,32.71h0Z"/><polygon class="cls-1" points="106.59 32.82 106.57 32.62 106.59 32.68 106.59 32.62 106.6 32.67 106.6 32.61 106.63 32.82 106.59 32.82"/><path class="cls-1" d="M108.51,34.06v0Z"/><path class="cls-1" d="M108.26,34.42l.18-.42.31-.36-.14.48,0,0Zm.31-.31,0,0Zm-.09-.05,0-.05Z"/><path class="cls-1" d="M105.39,32.79h0S105.4,32.79,105.39,32.79Z"/><path class="cls-1" d="M105.35,33l-.06-.25,0-.12h.15l.06.11Zm.06-.26.08,0Zm-.11-.05.08.05Z"/><path class="cls-1" d="M106.27,33h0a.3.3,0,0,0,0,0Z"/><path class="cls-1" d="M106.19,33.56l0-.48a.48.48,0,0,1,0-.05V33l.26-.09-.07.23Z"/><path class="cls-1" d="M109.15,37.33h0S109.14,37.32,109.15,37.33Z"/><polygon class="cls-1" points="109.07 37.55 109.03 37.29 109.12 37.2 109.24 37.24 109.26 37.37 109.21 37.41 109.07 37.55"/><path class="cls-1" d="M104.49,39.34s0,0,0,.06-.05,0,0,.07,0,0,0,0S104.53,39.37,104.49,39.34Z"/><path class="cls-1" d="M104.6,39.75l-.23-.22a.14.14,0,0,1-.05-.13.11.11,0,0,1,0-.06l-.42-.54.61.46a.15.15,0,0,1,.06.11.15.15,0,0,1,0,.12h0Z"/><path class="cls-1" d="M106.53,32.45h0Z"/><path class="cls-1" d="M106.53,32.56v-.21h.07Zm0-.11h0Z"/><polygon class="cls-1" points="104.45 39.46 104.45 39.46 104.46 39.47 104.45 39.46"/><polygon class="cls-1" points="104.4 39.55 104.36 39.52 104.35 39.46 104.35 39.15 104.53 39.4 104.47 39.46 104.55 39.46 104.45 39.48 104.4 39.55"/><path class="cls-1" d="M108.57,38.65h0Z"/><path class="cls-1" d="M109,38.76h-.44l-.47-.17.5,0a.16.16,0,0,1,.09,0Zm-.4-.06,0,0Z"/><path class="cls-1" d="M109.16,37.73l0,0Z"/><path class="cls-1" d="M109.21,37.82l-.16-.13,0,0,.18.11Z"/><path class="cls-1" d="M108.24,39.12s0,0,0,0h0S108.23,39.12,108.24,39.12Z"/><path class="cls-1" d="M108.31,39.24h-.13l-.12,0,.08-.15,0,0,0,0v0l0,.11h0v.06h0a.08.08,0,0,0,0-.06Zm-.05,0h0Z"/><path class="cls-1" d="M107.75,39.42h0Z"/><path class="cls-1" d="M107.79,39.53h-.06l0,0-.21-.16.75-.07Z"/><path class="cls-1" d="M103.45,33.18l0,0S103.56,33.14,103.45,33.18Z"/><path class="cls-1" d="M103.42,33.28l-.18-.11.18-.09c.05,0,.12,0,.17,0l0,.05,0,.08a.07.07,0,0,0,0-.06l-.07,0v0h0v0Z"/><path class="cls-1" d="M106.5,32.47l0,0h0S106.5,32.47,106.5,32.47Z"/><path class="cls-1" d="M106.5,32.68l-.13-.25.11-.09h.06l.95.12-.91.08Zm0-.21,0,.07a.09.09,0,0,0,0-.11Z"/><path class="cls-1" d="M108.52,39.5l0,0,0,0h0Z"/><path class="cls-1" d="M108.47,39.65l-.09-.18.09-.06.12.17Z"/><path class="cls-1" d="M101.17,37v0Z"/><path class="cls-1" d="M101.46,37.23l-.34-.19a.13.13,0,0,1-.07-.1l0-.45Zm-.24-.37,0,.06h.08A.08.08,0,0,0,101.22,36.86Z"/><path class="cls-1" d="M108.15,39.75h-.08v0Z"/><path class="cls-1" d="M108,39.88l0-.13,0-.1h.19l.41.13Z"/><path class="cls-1" d="M103.5,33.22h0Z"/><polygon class="cls-1" points="103.42 33.29 103.42 33.29 103.57 33.15 103.42 33.29"/><path class="cls-1" d="M104.13,32.9c-.1,0,0,.09,0,.13S104,33,104,33l0,0,0,0,0,0a.16.16,0,0,1-.07.06s0,0,0,0l-.06,0-.08,0,0,0,0,0a.17.17,0,0,0-.06.06h0a.24.24,0,0,1,0,.1l0,0s0,0,0,0,0,0,0,0l0,0,0,0c-.06-.05.05,0,0-.1l-.06,0-.06,0-.06,0-.05,0s0-.05,0-.07,0,0,0,0h.11c-.12-.08.07,0,0-.1a.34.34,0,0,0-.14.06.4.4,0,0,1-.14.07s0,0,0,.1a.15.15,0,0,1-.1.05h0l0,0s-.09,0-.14,0,0,.07,0,.1,0,.05-.09.06v-.09a.11.11,0,0,0-.07.1.07.07,0,0,1,0,0l0,0h0a.1.1,0,0,1,0-.06s0,0,0,0-.07,0-.07,0,0,.05,0,.07l-.05-.05-.09.08,0,0,0,0,0,0,0,0-.08.09s0-.06,0,0a1.89,1.89,0,0,1-.23.24l-.25.22v.1s0,0,0,0,0,0,0,.07-.06,0-.06,0a2.5,2.5,0,0,1-.08.27.67.67,0,0,1-.14.24v0a.1.1,0,0,0,0,.07.24.24,0,0,0,0,.06v.06a.08.08,0,0,1,0,.06v0a1.09,1.09,0,0,0-.06.18c0,.06,0,.13,0,.19v.09l0,.09v.08l0,.07a.06.06,0,0,1,0,.06.25.25,0,0,1,0,0v0c0,.06,0,.12.06.12l0,.08,0,.05,0,.06v0s0,0,0,.07,0,0,0,.06a.16.16,0,0,1,.07.07h-.06l0,0,0,0h0l0,0,0,0,0,0,0,0s0-.06,0-.06l0,0v0a.31.31,0,0,1,0,.08c0,.05,0,.09,0,.1l0,0,0,.07,0,.07,0,0s0,0-.08-.05l0,0v0s0,0,0,0,0,0,0,.06,0,0,.05,0a.14.14,0,0,0,0,.06l0,.07,0,.07,0,.06h0l0,.06,0,.06,0,.06,0,.06,0,.06,0,.06.08.12a.05.05,0,0,1,.09-.06l0,.06c.06,0,0-.06.07,0s0,.08-.08.06l.07.06s0,0-.06,0,0,0,.05.08l0,.05a.06.06,0,0,0,.05,0v0a1.44,1.44,0,0,0,.16.17l.07.06,0,0,0,0,0,0a.06.06,0,0,1,.06,0l.08,0,.05.07.06.08,0,0,0,0,0,0,0,0,0,0c.09,0,.05,0,.11,0s.09.12,0,.11l.17.09.09,0,.06,0,.07,0s0-.05,0-.06.06.06,0,.08h0l.09,0,0,0,0,0,.08.06.08.06c.1.08.2.16.31.14h.19s0,0,0,0,0,0,0,0H104l.11,0,.11,0h.12a.19.19,0,0,0,.11.1l.08,0h.27A.33.33,0,0,1,105,40v0c.05,0,.05,0,.08,0s0,0,0-.06a3.45,3.45,0,0,1,.58.09c.19,0,.39.09.58.11s.09,0,.12-.08.05-.07.14,0l-.05.07a1.93,1.93,0,0,1,.44-.05h.22l.11,0,.11,0s0,0,0,0h.07l.07,0,0,0,0,0s0,0,0,0,0,0,.05,0h.05l0,0s.06,0,.08,0,0,0,0,0l0,0,.06,0s.06,0,0-.05a.38.38,0,0,0,.15-.06l0,0,0,0,.07,0a.08.08,0,0,1,0,0l.06,0s.07,0,.06-.08.07,0,.13,0l.07-.06,0-.07s.07,0,.07,0a.31.31,0,0,0,.07-.08s0,0,0-.06l.06,0,0,0,0,0,0,0a.26.26,0,0,1,.05-.08.09.09,0,0,1,.09,0l.16-.31.13-.29s0,.08,0,.13-.05.1,0,.12a1.57,1.57,0,0,0,.07-.26.88.88,0,0,1,0-.12.6.6,0,0,1,.06-.12s0,0,0,.07l0-.07,0-.07.05-.13,0-.13a.61.61,0,0,0,0-.13s0,0,0,0,0-.07,0-.08v0a0,0,0,0,1,0,0,.2.2,0,0,1,0-.06s0-.1,0-.11.07,0,.09,0,0-.06.11,0,0-.06,0-.06,0,0,.06,0a.19.19,0,0,0,0-.11.12.12,0,0,1,0-.09s0,0,0,0a.44.44,0,0,1,0-.1.2.2,0,0,1,0-.12s0,0,0,0a.42.42,0,0,0,0-.11V36.9s0,0,0-.06a.37.37,0,0,1,0-.12c.09.06,0-.06.11-.06v-.1l0,0a.39.39,0,0,0,0-.12.17.17,0,0,1,0-.11l0,.06v-.08h0l0,0h0s0,0,0-.06,0,0,0,0a.16.16,0,0,1,0-.09h0l0-.06a.12.12,0,0,1,0-.08s.09,0,.1,0a.08.08,0,0,1,0,0l0-.07a.37.37,0,0,0,0-.07.1.1,0,0,0,0,0,.08.08,0,0,0,.07,0l-.06,0s0,0,.05,0,0,0,0,0,0,0,0-.05l0,0a.59.59,0,0,0,0-.19.64.64,0,0,1-.05-.18s0,0,.06,0,0,0,0,0l-.06-.13-.07-.12-.07-.12,0-.06,0-.06v0c-.06,0-.06,0-.05-.07a.32.32,0,0,0,0-.07.08.08,0,0,0,0-.06s.07,0,.05,0a1,1,0,0,0-.26-.34h0l0-.06,0-.06,0-.06,0-.06s-.06,0-.08,0V34l0,0v0a.56.56,0,0,0-.12-.11l-.07,0-.06-.05,0,0,0,0a.26.26,0,0,1,0-.08s.06,0,0,0l0,0,0,0,0,0-.07-.05s0,0,0,.09a.16.16,0,0,1-.12,0c.08,0,.05-.06,0-.1l0,0s0,0,0,0h0s-.05,0-.08,0l0,0h-.07l-.06,0c0-.06.06,0,.09,0l-.05,0H108s-.07,0-.08-.06l.1,0a.19.19,0,0,0,0-.08l0,0h0l0,0,0,0h0v0l-.09,0-.07,0-.07,0h-.09l.07,0s0,0,0,0,0,0,0-.06,0-.07,0-.08-.05,0-.07,0a.09.09,0,0,0-.1,0s0,0,0,0,0,0,0,0,0,0,0,.06-.12,0-.18-.09l0,0-.05,0-.06,0h-.16l-.07,0-.07,0h-.09s0,0,0,0h0a.22.22,0,0,0-.18-.05s0,0,0-.06-.05.07-.11,0a.27.27,0,0,1,.07-.07l-.2,0s0,0,.08-.06h-.13a.13.13,0,0,0-.1,0h0s0-.05,0-.06.09,0,.09.05h0a.07.07,0,0,0,0,.06h.07a.4.4,0,0,1,.16,0l0,0,0,0,.05,0,0,0h0s0,.08,0,.08,0,0,.06,0,0,0,0,0,0,0,0,0h.07s0,.06,0,0l.07,0h.06s.07,0,.08,0h0c.08,0,.09,0,.09,0a.08.08,0,0,1,0,0l.06,0v.18l0-.05s0,0,0,0,0,0,.05-.05a.13.13,0,0,0,.05,0l.07,0s.08,0,.06.09-.05-.07,0-.06,0,.06,0,.06.07,0,.09,0-.09,0-.05.06a.06.06,0,0,1,.05,0l0,0s0,.07.07.08.05,0,.09,0l.06,0,.07,0s0,0,.06.09l.12.14h0a.08.08,0,0,1,.1,0l.1.06a.09.09,0,0,1-.1,0l0,0a.1.1,0,0,1,.09,0l-.05,0,.06,0,.06,0a.24.24,0,0,1,.11.11s0-.06.05-.09,0,0,.1,0-.05.06-.08,0,0,0,0,0h-.07c0,.05,0,0,.07,0s0,0,0,.06,0,0,0,0l0,.07a.11.11,0,0,1,0,.06s0,0,.07,0,0,0,0,.06,0,0,0,0,0,.06.1,0,0,0,0,.06l0,0,0,0s.05,0,.07,0h0l0,0,0,0,0,.05,0,.05,0,.11,0,.05v0l0,0h0l.08.12,0,.05,0,0s0,.07,0,.07l0,.06v0a.27.27,0,0,1,0,.06l0,0h0v0a.49.49,0,0,1,0,.06.26.26,0,0,0,0,0l0,0,0,0s0,0,0,0a.14.14,0,0,0,0,.08v-.07a.38.38,0,0,1,0,.12h-.07a.19.19,0,0,0,0,.07.21.21,0,0,0,0,.06l0,.05,0,.05,0,0,0,.05a.12.12,0,0,1,0,.05v0l0,0s0,0,0,0,0-.05,0,0a.13.13,0,0,1,0,0v0l0,.06s0,.07,0,.08a.09.09,0,0,0,0,.1l0,0v0a.1.1,0,0,1,0,0s.09,0,.12.05a.09.09,0,0,1,0,.05l0,0a.05.05,0,0,1-.07,0s0,0,0,0,0-.06,0,0h0v.09s0,.05,0,0,0,0,.05,0a.38.38,0,0,0,0,.13.42.42,0,0,1,0,.13s0,0,0,0v0a.12.12,0,0,0,0,0,0,0,0,0,0,0,0,.07.07,0,0,1,0,.07c0,.06-.09,0-.07.08s-.07,0-.09,0v0a.14.14,0,0,1,0,0,.2.2,0,0,1,0,.06l0,.05,0,0v-.05a.19.19,0,0,1,0,.08l.05,0,0,0h0s0,0,.06,0a.07.07,0,0,1,.06,0s0,0,0,.08,0,0,0,0,0-.06,0-.06h0s0,0,0,0a.11.11,0,0,1,0,.07s0,0,0,0,.06.07,0,.19a0,0,0,0,0-.07,0s.07,0,.08,0a.09.09,0,0,0,0,.07.09.09,0,0,1,0,.05l0,0s0,.06,0,.12,0-.06,0,0a.06.06,0,0,1,0,0v0l0,0s-.07.06-.07.11-.07,0-.1,0a.09.09,0,0,1,0,.09h0l0,0a.1.1,0,0,0,0,.06c.06,0,0,0,.06.07h0v0a.25.25,0,0,0,0-.08.13.13,0,0,1,0-.06c0,.06,0,.05.05,0a.07.07,0,0,0,0,0,.15.15,0,0,0,0,.05.27.27,0,0,1,0,.06.08.08,0,0,1,0,0l-.11-.06a.16.16,0,0,0-.05.07.4.4,0,0,0,0,.08.65.65,0,0,1,0,.09.26.26,0,0,1-.06.09h0s0,0,0,.07a.21.21,0,0,0,0,.07s-.06,0-.1,0,0,0,0,.06a.08.08,0,0,0,0,.09h-.09l0,0v0l0,0a.29.29,0,0,0,0,.07.15.15,0,0,1-.05.13.08.08,0,0,0,0-.05s0,0,0-.07-.06,0,0,.07l0,0,0,0,0,0h0s0,.06,0,.09v0s0,.06,0,.08h-.06l-.06,0-.11.06-.05,0-.05,0h-.11l-.06,0,0,0,0,0-.12.05s0,0,0,0l-.06,0a.12.12,0,0,0,0,0,.1.1,0,0,1,0,0,.09.09,0,0,1-.07,0c-.08-.05.06-.05,0-.07s0,0,0,0h-.06l-.07,0a.09.09,0,0,1-.07,0h0l-.06,0,0,0,0,0-.08,0a0,0,0,0,0,0,0,.34.34,0,0,1-.14.09l-.17,0c0-.05,0,0,0-.08s0,.09-.08.1-.1-.05-.11-.11h.09a.06.06,0,0,0-.08,0s-.06,0-.08,0v0l-.08,0-.06,0a.22.22,0,0,1-.15,0v0c-.08.08-.07,0-.15,0l0-.08-.13,0-.16,0a.9.9,0,0,1,.24-.11h-.11a.15.15,0,0,0-.1,0s0,0,.07,0a.29.29,0,0,1-.12.06h-.14c0-.08,0-.1-.13-.11l-.12,0a.13.13,0,0,1-.08-.07h-.2l-.07,0-.14,0-.07,0-.08,0s0,.05,0,.06h0s-.05,0-.06.05-.07,0-.07,0l-.06-.06,0,0,0,0s.05,0,.06,0,0-.07-.08-.12-.05.05-.11,0l.06.08a.11.11,0,0,1-.13-.06.11.11,0,0,0-.12-.06l.06,0-.17,0h-.1l-.09,0s0-.06,0-.05l-.13,0-.07,0-.07,0-.13,0a.24.24,0,0,1-.1-.07l0,0s-.08,0-.1,0,0,0,0,0h-.06a.11.11,0,0,1-.07,0h.05l0,0,0,0-.05,0h-.05a.62.62,0,0,1-.21-.06.12.12,0,0,0,0-.13l0-.06,0-.05h0l-.05,0,0,0h0l-.05,0,0,0,0,0-.11-.07-.06,0-.06,0a.2.2,0,0,0,0-.06l0-.06,0,0,0,0,0-.07a1,1,0,0,1-.13-.29s-.07,0-.09,0,0,0,0-.06,0,0,0,0h0a.1.1,0,0,0,0-.05.11.11,0,0,0,0-.05l0-.05,0-.05-.11,0a.28.28,0,0,0,0-.17l0-.08,0,0,0,0,0-.07,0-.07a.18.18,0,0,1,0,0v0a.11.11,0,0,1,0-.05l0,0,0,0,0-.07h.06s0-.06,0-.08v0s0,0,0,0,0,0,0-.08,0-.06,0-.1l0,0a.05.05,0,0,0,0,0l0,0-.06,0-.06,0a.07.07,0,0,1,0-.05h.09a.36.36,0,0,1,0-.05V35.8l0-.05v0h0v-.08h0a.28.28,0,0,0,0-.06s0,0,0,0l0-.06,0-.08a.13.13,0,0,0,0-.07.06.06,0,0,0-.05,0,0,0,0,0,0,0,0v-.14s0-.05,0-.08l0,0a.69.69,0,0,1,0-.1.2.2,0,0,1,0-.1s.05,0,0,0a.06.06,0,0,0,0-.07.07.07,0,0,1,0-.08v0l0,0a.06.06,0,0,0,0,0s0,0,0-.06a.13.13,0,0,1,.06-.07.1.1,0,0,1,.09,0,.1.1,0,0,1,0-.06.07.07,0,0,1,0-.06s0,0,0,0l.06-.06,0-.07,0-.06,0,0h.07l-.1.09,0,0s0,0,.07,0,0,0,0,.06v-.07l0-.08,0-.07,0,0h0a.07.07,0,0,0,0,0l.06,0s0,0,.06,0l.06-.05s0-.07-.06-.08l0,0v0h0l-.08.07s0-.09.08-.09a.9.9,0,0,1,0-.11c.1,0,.21,0,.26,0s.11-.09.16-.14l.07-.08a.22.22,0,0,0,0-.09s.05,0,.07,0,0,0,0,0l.05,0,.06,0s.07-.06.06-.1,0,0,0,0,0,0,.05,0v0h.09l.08,0,.07-.05.06-.06.07-.06,0,0,0,0a.3.3,0,0,1,.2,0l0,0H104l.12,0,.06,0,.06,0,.06,0h.06l.12,0,.12,0h.13l.13,0c.09,0,.1,0,.15-.08l0,.06.09-.08c.07,0,.13,0,.2,0a.21.21,0,0,0,.22,0l0,0c.06,0,.2,0,.19,0s0,0,0,0v0l.15-.07c.12,0,0,.13.16.13s.18-.11.15-.13-.07,0-.07-.05l.06,0c0-.1,0-.2-.1-.26l-.1.06,0,0h.09c-.05,0-.08,0-.11,0a.08.08,0,0,0,0-.05l-.1.1s0-.08,0-.1,0,.08,0,.12,0-.08-.09,0a0,0,0,0,1,0-.05s-.14,0-.16.08-.17,0-.17-.07a.28.28,0,0,1-.13.09c0-.06,0-.06-.06-.06s-.11,0-.11-.06a.19.19,0,0,1-.15.08l-.1,0-.09,0s0,0,0,0-.09,0-.13,0-.09.12-.14.18,0-.06,0-.09,0-.05,0-.09,0,.05-.05.08-.05,0,0,.06-.06,0-.1-.08c0,.1-.05,0-.09.1a.12.12,0,0,1-.07-.05h0l0,0s0,0,0,0l0,0Zm-2,1.16h0l0,0Zm-.14.14.06-.06s0,0,0,0h0Zm.57,0s0,0,0,0l0,0h0Z"/><path class="cls-1" d="M106.93,40.55l.41-.41h0a.27.27,0,0,1-.12,0l-.12,0h-.28a1.6,1.6,0,0,0-.37,0l-.29.08,0,0c-.18,0-.36-.06-.53-.1h-.06a4.18,4.18,0,0,0-.44-.08v.1l-.06,0v.11l-.19-.17-.1,0h-.17l-.09,0-.1,0a.31.31,0,0,1-.12-.09l-.09,0-.09,0-.12,0h-.16l-.07-.08h-.05a.48.48,0,0,1-.38-.17l-.07-.06-.07-.06,0,0,0,0-.06,0h0l-.09,0-.06,0,0,0-.07,0-.18-.1-.38-.23h.11l-.08-.11,0,0h0l0,0-.21-.19,0,.13-.17-.25-.06-.07h0l0,0a.27.27,0,0,1,0-.09h0l-.34,0,.19-.09,0,0-.59-.48.41.2,0-.05,0-.06,0-.07-.05-.13h0l0,0,0,0a.16.16,0,0,1-.07-.13V37.3h0l0-.07-.08-.13.08,0,0-.06,0,0-.05-.09,0,0-.15-.13.08,0a.17.17,0,0,1,0-.06v-.14a.46.46,0,0,1,0-.08l0,0h0a.24.24,0,0,1,0-.17V36.1l-.07,0L101,36l0-.06v0h.11l-.1,0,0-.08,0-.09,0-.15v0a1.26,1.26,0,0,1,.07-.2v0a.18.18,0,0,1,0-.07.21.21,0,0,1,0-.14l.13-.19h0a2.38,2.38,0,0,0,.08-.26l.2-.86v.56l.06-.06.09-.08,0,0h0a1.56,1.56,0,0,0,.17-.18l0,0h.11l.16-.19.1-.09.07-.06h0a.15.15,0,0,1,.09,0,.22.22,0,0,1,.09-.08l.06,0a.18.18,0,0,1,.26-.07h0a.1.1,0,0,1,0,0l-.24-.05.32-.06a.28.28,0,0,0,.11-.05.48.48,0,0,1,.18-.08h0l0,0,0,0,0,0,0,0h0l0,0h0l.08-.07,0,0h0l0,0,.55-.69-.25.53.08,0,.1,0,0-.22.14.2h0l-.17-.71.35.67.13,0,.05,0h.19s.07,0,.08,0l.25-.48,0,.48a.21.21,0,0,1,.11,0h0l.18-.29v.3h0l.09,0h0l0,0h0l0,0,0,0h.09l0,0,.06,0h0a.14.14,0,0,1,.11,0l0,0,.05,0h0l0,0h0a.15.15,0,0,1-.07-.05h-.08v0l-.08,0,.05-.09a.22.22,0,0,1,.17-.1h.14l.35,0-.06,0h.29l-.26.14a.35.35,0,0,1,.12.06h0l.07,0h.19l.09,0,.07,0,.05,0,0,0h0a.13.13,0,0,1,.12,0l.11,0-.05-.1.51.5.05.05a.19.19,0,0,1,0,.08l.06,0,.07.05.08-.25.06.3.2.17.09.07-.06.06h0l0,0,.07,0a.65.65,0,0,1,.15.13l0,0,0,0,0,0v0H109l0,.06,0,0,0,.06,0,.07a.35.35,0,0,1,0,.08h0a1.09,1.09,0,0,1,.19.24h0l0,.15,0,0a.46.46,0,0,1,0,.05v0l0,0,0,.05,0,.05.07.12.08.13a1.11,1.11,0,0,1,.07.14l0,.06,0,0,0,0h0a.92.92,0,0,1,.05.17.16.16,0,0,1,.05.11h0l.1,0-.1.09v0l0,.06.15.07-.13.09,0,.1.06.08h0l.1.51h0l0,.17-.08-.14,0,0h0v0l0,.16a.54.54,0,0,1,0,.14h0a.1.1,0,0,0,0,.06l0,.07.17.38-.18-.14v.29l0,0v.05l-.06-.11a.2.2,0,0,1,0,.08h0l0,.09.43,0-.46.15-.11.4v-.1l-.1.37,0-.14a1.31,1.31,0,0,1-.06.21l0,.11-.08,0-.15.3,0,.07h-.07s0,0,0,0l0,.05,0,.06-.06,0,0,0a.41.41,0,0,1-.09.11l-.15.13v-.06l0,0a.28.28,0,0,1-.13,0l-.07,0,0,0,0,.07h-.1l-.08-.07,0,.09,0,0-.1.05a.2.2,0,0,1-.08.06h-.09Zm-.56-.42Zm-.07-.06Zm-1.3-.22h0a3.42,3.42,0,0,1,.59.09h.06c.17,0,.35.07.52.09v0a.2.2,0,0,1,.28-.07l.06,0,.23,0H107l.1,0,.09,0,.35-.15,0,0,.23,0a.28.28,0,0,0,.1,0l.08,0,0,0,.05,0,.05,0,0,0a.06.06,0,0,0,0,.06l.19-.08s0,0,0,0h0l0,0,0,0,0-.07-.1-.06,0,0,0,0h0v.05h-.06l-.09.05-.06,0-.07,0-.08,0h-.06l0,0-.08-.08,0,.09-.13.06h0a.17.17,0,0,1,0,.06.2.2,0,0,1-.15,0l0,0a.17.17,0,0,1-.06-.06h0a.18.18,0,0,1-.13,0h0l0,0,0,0-.1,0-.12.06-.17,0h0l-.07,0h-.05l-.1,0,0-.07a.33.33,0,0,1-.08-.08h-.08l-.11,0h0a.14.14,0,0,1-.19,0l-.1.07,0-.12h0l-.18,0-.28,0,0,0h-.05l0-.09h0l-.13,0-.09-.06H105l-.08,0-.07,0-.07,0-.09,0,0,0h0v.05h-.1a.2.2,0,0,1-.14-.06l-.13-.13h0a.2.2,0,0,1-.19-.11l-.65,0,.07.06c.08.06.15.13.22.12v0l.24,0a.14.14,0,0,1,.08.07h0l.13,0,.09,0h.16l0,.07a.09.09,0,0,0,.05,0l.06,0h.27l.09,0H105Zm2.5,0,0,0h0l0,0-.05,0Zm-.82-.3,0,.07h0a.25.25,0,0,0,.1-.06l.09-.1,0,.07,0,0,.08,0a.17.17,0,0,1,.13,0h0l.06,0h.07l.07,0,.06,0h.06l.06,0,.08.08-.05-.09.12-.08.06,0h0l0,0,.05,0,.12-.07h0l0-.08-.07,0,.06-.07-.08-.32.17.22.3-.31-.19-.12h.31l.06-.06,0-.06,0-.07a.51.51,0,0,1,0-.11.27.27,0,0,1,.05-.08v0a.2.2,0,0,1,0-.11l.05-.05v0l0,0,.05-.29.06.21v0l0-.23a.13.13,0,0,1,0-.11.13.13,0,0,1,0-.05l-.22-.18.23.1v0l0-.09-.12-.16.15,0,0-.24-.31-.8.42.64h0a.35.35,0,0,0,0-.1.26.26,0,0,1,0,0l0-.05v0h0l-.11-.27.14.09,0,0a.19.19,0,0,1-.09-.2.14.14,0,0,1,0-.06l-.06,0,.07-.08h0v0h0v0l0,0,0-.05,0-.07a.34.34,0,0,1,0-.08.29.29,0,0,1,0-.1v0a.24.24,0,0,1,0-.08.16.16,0,0,1,0,0,.18.18,0,0,1,0-.07.28.28,0,0,1,0-.06v0h0l0,0-.12-.17H109l-.07-.1-.09-.1,0,0h0l0-.11,0,0,0,0h0l-.06.15v-.16a.21.21,0,0,1-.08-.05l0,0-.1,0,0,0h0v0l-.3.36.22-.56,0,0-.05-.11a.14.14,0,0,0-.06-.06l-.06,0-.07,0-.11-.09h0l-.3-.25.1,0h0l-.07-.08,0,0,0,0v0l-.07,0a.21.21,0,0,1-.11-.1l-.06,0-.06-.11,0,0-.19.12.07-.23h0l0,0h-.07l-.13.18V33l-.09,0,.08-.11v0h-.11l-.46-.07h0a.41.41,0,0,1,0,.15v0l0,0v.07c0,.09-.16.17-.23.19s-.19,0-.22-.11l-.13.06-.2.26,0-.27a.32.32,0,0,1-.3,0l-.1,0h0l-.18.17,0-.07a.2.2,0,0,1-.12,0h-.22l-.12,0-.12,0-.24.06-.13,0h-.12v0h0a.18.18,0,0,0-.12,0h0l0,0-.06,0-.06.06-.08.06-.1,0h-.18l0,0,0,0h0l0,0-.23.27v-.1l-.08.08-.07.08-.07-.06h0l.08.09-.11,0-.06,0,0,0-.15.44v-.36h0v.14l0,.31,0,0h0l-.07.43-.06-.5-.21-.11h0a.17.17,0,0,1,0,.06.14.14,0,0,1,0,.07l0,.06,0,0v0l0,0v0l.16.39-.2-.16v0h0a.23.23,0,0,1,0,.12l0,.1,0,0h0v0s0,0,0,0a.51.51,0,0,1,0,.06v.06l0,.05,0,0v0a.23.23,0,0,0,0,0V36l0,0,0,0a.15.15,0,0,1,0,.08v.19l0,0v.19l0,0-.06.11a.3.3,0,0,0,0,.07l0,0,0,.11,0,.1V37l.05,0,0-.47.15.87a.79.79,0,0,0,.11.23v0l0,.07,0,0,0,0a.35.35,0,0,1,0,.07v0h0l.05,0,.08,0,.21.14.06.06.09.08,0,0,0,0a.28.28,0,0,1,0,.11H103l.07,0,.06,0,.06.06.11.08h0l.21.05-.09.06.08,0,.08,0,.07,0a.61.61,0,0,1,.16.06l0,0h.1l-.17-.23.4.27h.07V39l.1.09h.28l-.2.08a.17.17,0,0,1,0,.08l.05,0v0h.14l.08,0,.07,0,.08,0,.13,0h.24l0,.08.11,0a.28.28,0,0,1,.2.1h0v0a.23.23,0,0,1,.17-.07H106l.25,0,.1,0h.13v0a.15.15,0,0,1,.1,0h0Zm-2.11,0h0Zm-.09-.18h0v0Zm-1.29-.15h0l.05,0,0,0,.08.06.24-.1,0-.08v0h0l-.06,0-.08,0-.15-.05a.36.36,0,0,1-.12-.09.13.13,0,0,1-.08-.06.19.19,0,0,1-.12-.08l0-.05h0l-.07,0a.58.58,0,0,1-.21-.07l-.1-.06.07-.09v0l0,0-.1-.12,0,0,0-.1-.05.09-.06,0-.08-.05-.06,0-.05,0,0,0V38l0,0,0,0,.08-.08-.09,0,0-.06v0a1.62,1.62,0,0,1-.1-.19l-.07,0h0v0h0l0-.06a.12.12,0,0,1,0-.18l-.18.05.06-.19a.18.18,0,0,0,0-.11l0-.07,0-.1,0-.05,0-.08a.31.31,0,0,1,0-.06.22.22,0,0,1,0-.05v0h0l0-.06-.13-.15.16,0v-.12s0-.06,0-.1l-.07,0a.17.17,0,0,1-.06-.13v-.08l.1,0v-.16h.11l-.1,0v0l.1,0h0l0,0h-.05a.07.07,0,0,0,0,0h0v0l-.05-.21.14.07h0l0,0,0-.19a.08.08,0,0,0-.06,0v-.09s0-.06,0-.08V35a.32.32,0,0,1,0-.05V34.9h0v0l0,0a.18.18,0,0,1,.06-.1h0v0a.22.22,0,0,1,.11-.14h0a.17.17,0,0,1,.08-.12l0,0h0v0l0-.08,0,0,0,0,.07,0h.05l0,0h0v0l-.18,0v0l0,.05-.15.13v-.08l-.08,0-.07.06-.13.11v.08l0,0h0v0a.15.15,0,0,1-.08.07l-.06.18a.82.82,0,0,1-.14.26h0v0a.18.18,0,0,1,0,.06.18.18,0,0,1-.06.13h0l0,.1v0s0,.1,0,.15l0,.08a1,1,0,0,1,0,.1v0l0,0v0a.18.18,0,0,1,0,.06.56.56,0,0,1,0,.06v0h0v0h.1l0,.13,0,.09,0,0v.12a.27.27,0,0,1,.11.11l.05.1,0,.05,0,0v.05a.42.42,0,0,1,0,.11.49.49,0,0,1,0,.09l0,0,.07.1.08,0,0,.1,0,0-.05,0a.2.2,0,0,0,0,.07l0,.06,0,.06.1.15h-.07l0,0,0,.06.08.11a.16.16,0,0,1,.16,0h0l0,0h0a.14.14,0,0,1,0,.1l0,0-.06.07h0l.2,0-.1.14.09.09.1.09h.18l0,0,.05.07.06.08-.06.09.08-.07,0,0,0,0h0l.07,0h.18l-.07.13,0,.05.09,0,.06,0h0l0,0,0,0h0A.18.18,0,0,1,103.19,39.19Zm-.19.07h0s0,0,0,0v0Zm5.46-.1h0l-.15.11.12,0Zm.11,0v.08h0l0,0,0,0a.35.35,0,0,1,.08-.11.17.17,0,0,1,.09,0l.12-.25.13-.29,0-.11h0v0a.71.71,0,0,1,.07-.14l0-.05-.15,0a.12.12,0,0,1,0,.09.18.18,0,0,1-.08.1l0,0-.06.12v-.06l0,.1v-.06h0a.15.15,0,0,1,0,.15l0,0,0,.15,0,0-.21,0v.23h0Zm.74-1h0Zm-.09-.22,0,0,0,0v0l.22,0,0-.08v0h0a.26.26,0,0,1,0-.09v-.07l-.06,0h0a.19.19,0,0,1,0,.15l0,.14Zm.11-.46.11.05.06-.05v0a.23.23,0,0,1,0-.13v0a.32.32,0,0,1,0-.15l0,0,0-.1v-.12a.47.47,0,0,1,0-.15l0-.13h0v0a.56.56,0,0,1,0-.1h0a.18.18,0,0,1-.09.05h0a.32.32,0,0,0,0,.06s0,0,0,0h0v.12a.17.17,0,0,1,.05.13v0l0,0-.05,0v0l0,.06,0,.1a.17.17,0,0,1,.06.07l0,.07,0,0v0A.17.17,0,0,1,109.33,37.45Zm-8.15-.09h0Zm0,0h0Zm0,0v0h0Zm8.15-.45Zm0-.48h0v0h0Zm.13-.25h0a.24.24,0,0,1,0-.14v0l0,0h0v0h0v0h0a.21.21,0,0,1,0,.06l0,.05,0,.07,0,0,.06.08Zm-.05-.4,0,0v0a.18.18,0,0,1,0-.13v-.06l0-.06,0,0h0l0,.12h-.07v0l0,.05,0,.06Zm-.1-.51.05,0h0v-.05l0,0,0-.08-.06-.11h0a.17.17,0,0,1,0,.07.29.29,0,0,1,0,.08Zm-7.6-.29,0,0v0Zm7.59-.2v.06l.05,0,0,0h0Zm-.24-.26,0,.09,0,0,.07.09,0,0h0A.53.53,0,0,0,109.05,34.49Zm-6.92.14,0,0v-.07Zm7.12-.08h0v0l0,0ZM108.7,34l.05.07V34l0,0,0,0h0v0h0l0,0Zm-6.29-.2h0l-.15.18,0,0,.18,0h0v-.13l.13,0h.2l.06,0,.06,0,.05-.06a.12.12,0,0,0,0-.05v0l0,0a.13.13,0,0,1,.16,0h0l0,0,0-.1h.2l.15-.09-.06,0,0,0-.1,0h-.06l0,0h0a.25.25,0,0,1-.17.08h-.12a.28.28,0,0,1,0,.06.18.18,0,0,1-.17.14h0l0,0,0,0h0l0,0-.07,0,0,0Zm6-.11h0Zm-6-.06v0h0v0Zm.76,0h0Zm.3-.19,0,.08,0,0,.06-.06.08-.06h0l-.08,0A.11.11,0,0,1,103.46,33.46Zm.19-.13v0h0l0,0h0v0H104l.12,0,.24-.06.11,0v0l-.14-.08h-.05l0,.06-.08,0h0l0,0a.19.19,0,0,1-.15,0l0,0a.22.22,0,0,1-.12.07h-.05l-.08,0h-.06v.06h0Zm1.09-.18h0l.14,0,.06-.06.11-.09,0,.06h0a.29.29,0,0,1,.26,0h0l0-.07h.2l-.08-.1h-.11l-.07,0,0,0h-.14l-.18,0,0,0h-.25l-.18.12,0,0Zm1.19-.16h0a.16.16,0,0,1,.14.13h0a.15.15,0,0,1,0-.06V33l.08,0a.11.11,0,0,0,0-.07L106,33l0,0-.06,0,0-.05-.1.1h0Zm.15.13Zm-2.74,0h0Zm2.3-.18,0,.1h.21v0h0l0,0h0l-.06,0Zm-1.5,0v0Zm3.35,0h0Zm.12-.08,0,0-.06-.13h0Zm-1.85,0,0,0,0,0Zm-1.37,0v0h0v0Zm3.17-.11,0,0,0,0Zm-1.32,0h0v0Z"/><path class="cls-1" d="M102.52,34.15h0v0Z"/><polygon class="cls-1" points="102.45 34.34 102.4 34.15 102.38 34.04 102.53 34.04 102.81 34.06 102.45 34.34"/><path class="cls-1" d="M108.81,34.33h0Z"/><polygon class="cls-1" points="108.91 34.76 108.7 34.32 108.72 34.27 109.14 33.44 108.92 34.34 108.91 34.76"/><polygon class="cls-1" points="101.09 36.74 101.1 36.73 101.09 36.72 101.09 36.74"/><polygon class="cls-1" points="101.02 36.86 100.99 36.73 100.96 36.47 101.31 36.78 101.02 36.86"/><path class="cls-1" d="M108.28,33.42a0,0,0,0,0,0,0A0,0,0,0,0,108.28,33.42Z"/><path class="cls-1" d="M108.22,33.91l0-.48h0v-.08l.11-.22.09.27v.05Zm0-.52.07,0Z"/><path class="cls-1" d="M107.93,33.13l0-.05Z"/><path class="cls-1" d="M107.85,33.2l-.06-.07L108,33l0,.05Z"/><path class="cls-1" d="M107.64,32.91l0,0h0Z"/><path class="cls-1" d="M107.52,33.19V32.9l0,0,0,0,.09.1h0l0,.05Z"/><path class="cls-1" d="M109.54,37.83h0S109.54,37.86,109.54,37.83Z"/><path class="cls-1" d="M109.55,38l-.11-.06v-.08a.15.15,0,0,1,0,0l.15-.61,0,.63a.13.13,0,0,1,0,.13Zm.06-.13h0Z"/><path class="cls-1" d="M109.61,36.15l0,.05S109.65,36.15,109.61,36.15Z"/><path class="cls-1" d="M109.71,36.6l-.16-.36,0,0-.1-.15h.19a.13.13,0,0,1,.1,0,.15.15,0,0,1,0,.12Zm-.17-.41a.11.11,0,0,0,0,0l0,0Z"/><polygon class="cls-1" points="108.53 39.49 108.53 39.49 108.52 39.49 108.53 39.49"/><polygon class="cls-1" points="108.58 39.58 108.51 39.49 108.43 39.49 108.5 39.49 108.45 39.42 108.63 39.25 108.64 39.54 108.58 39.58"/><path class="cls-1" d="M109.65,36.28a.1.1,0,0,0,0-.08A.17.17,0,0,0,109.65,36.28Z"/><path class="cls-1" d="M109.65,36.57l-.1-.25a.24.24,0,0,1,0-.12l0-.37.16.32a.2.2,0,0,1,0,.16Zm-.1-.33.1,0Z"/><path class="cls-1" d="M106.2,32.37h0Z"/><polygon class="cls-1" points="105.87 32.54 106.08 32.32 106.11 32.24 106.62 32.39 105.87 32.54"/><path class="cls-1" d="M106.18,32.38h0Z"/><polygon class="cls-1" points="106.23 32.49 106.15 32.48 105.58 32.42 106.36 32.22 106.23 32.49"/><path class="cls-1" d="M106.11,32.39h0S106.13,32.38,106.11,32.39Z"/><path class="cls-1" d="M105.89,32.54l.14-.21a.14.14,0,0,1,.15-.05v.14h0v.07h0Z"/><path class="cls-1" d="M106.65,32.5v0Z"/><polygon class="cls-1" points="106.29 33.38 106.57 32.44 106.6 32.4 106.99 32.11 106.29 33.38"/><path class="cls-1" d="M106.79,32.53s-.07-.07-.12-.07v0s0,0,.06,0S106.77,32.55,106.79,32.53Z"/><path class="cls-1" d="M106.31,32.9l.29-.52h.07a.24.24,0,0,1,.15.07l.18.08-.15.11a.15.15,0,0,1-.17,0Z"/><path class="cls-1" d="M107.24,33l0,0,0,0h0s0,.07,0,.05l0,0s0,0,0,0S107.17,33,107.24,33Z"/><path class="cls-1" d="M107.19,33.13h0A.2.2,0,0,1,107,33l-.23-.27.2.06,0-.14.23.14.05,0,0,0,0,.07v0h0v0Zm0-.06h0Z"/><path class="cls-1" d="M107.53,33.19c-.06,0,0,0,0,0S107.56,33.23,107.53,33.19Z"/><path class="cls-1" d="M107.51,33.33h-.24l.12-.13a.11.11,0,0,1,0-.08.12.12,0,0,1,.13,0h0l0,0a.13.13,0,0,1,0,.14A.12.12,0,0,1,107.51,33.33Z"/><path class="cls-1" d="M109.14,35h-.05S109.1,35.05,109.14,35Z"/><path class="cls-1" d="M109.09,35.18a.12.12,0,0,1-.1-.07l-.07-.12.18,0h0l0,.08,0,0,0,0,0,.12,0,0,0,0Z"/><polygon class="cls-1" points="109.55 35.43 109.57 35.37 109.52 35.37 109.55 35.43"/><polygon class="cls-1" points="109.57 35.68 109.33 35.23 109.71 35.3 109.57 35.68"/><polygon class="cls-1" points="109.24 35.79 109.22 35.77 109.26 35.85 109.24 35.79"/><polygon class="cls-1" points="109.16 35.89 109.13 35.82 109.31 35.72 109.35 35.81 109.16 35.89"/><path class="cls-1" d="M107.82,39.33l0,.05a0,0,0,0,0,0-.05h0Z"/><path class="cls-1" d="M107.85,39.54l-.16-.21,0-.06a.12.12,0,0,1,.12,0h0l0,.05a.15.15,0,0,1,0,.18Zm0-.17,0,0a.07.07,0,0,0,.07,0l0,0h0Zm-.06-.06a.06.06,0,0,0,0,.07l.06,0Z"/><path class="cls-1" d="M106.09,39.65a.07.07,0,0,0-.1,0S106.07,39.66,106.09,39.65Z"/><path class="cls-1" d="M106.08,39.76l-.08,0h0l-.21,0,.16-.14a.16.16,0,0,1,.13,0,.19.19,0,0,1,.13.09l.06.1-.11,0Zm0-.08,0,0h.06Z"/><polygon class="cls-1" points="101.74 37.07 101.77 37.1 101.73 37.04 101.74 37.07"/><polygon class="cls-1" points="102.28 37.61 101.65 37.13 101.52 36.58 102.28 37.61"/><path class="cls-1" d="M54.1,77.22A10.74,10.74,0,1,0,64.85,88,10.74,10.74,0,0,0,54.1,77.22Zm6.53,14.72h0l-.17.15a9.11,9.11,0,0,1-1,.73h0a3.67,3.67,0,0,1-2.75.64,5.51,5.51,0,0,1-2.52-1A13.44,13.44,0,0,1,51,89.11a7.72,7.72,0,0,1-1.71-4.43,4,4,0,0,1,1.27-3h0l.14-.13,0,0c.31-.28.68-.55.81-.65a.86.86,0,0,1,.68-.22c.57.09,1,.88,1.31,1.33a3.46,3.46,0,0,1,.61,1.84,1.39,1.39,0,0,1-.6.86,5,5,0,0,1-.56.41h0a1.3,1.3,0,0,0-.61.6,1.92,1.92,0,0,0,.34,1.52,9.59,9.59,0,0,0,1.8,2.25,2.15,2.15,0,0,0,1.47.71,1.51,1.51,0,0,0,.81-.54h0l.13-.12,0,0h0a6.06,6.06,0,0,1,.49-.38l.11-.07h0a1.13,1.13,0,0,1,.55-.19,3.47,3.47,0,0,1,1.86,1c.39.36,1,1,.93,1.6a.84.84,0,0,1-.25.43Z"/><path class="cls-3" d="M48.79,99.2H0L.59,97c0-.08,0-.29.09-.58C3.53,78,12.87,68.25,26.92,68.83l.69,0,3.71,3.68L34.91,69l.52-.1c8.57-1.69,14.21,5.57,14.44,5.88l1.38,1.82-2.11.88a11.38,11.38,0,0,0-3.52,18.72ZM4.39,95.66H40.74a14.93,14.93,0,0,1,4.83-20.33,11.17,11.17,0,0,0-8.95-3.08l-5.3,5.27L26.1,72.34h-.35C11.66,72.34,6.33,84.66,4.39,95.66Z"/><path class="cls-3" d="M33.62,69.11H32A3.57,3.57,0,0,1,32,62h1.64a3.54,3.54,0,0,1,2,.63,9.55,9.55,0,0,0,6.21-3.34,17.41,17.41,0,0,0,1.42-10.34c-.93-5.22-6.07-9.1-12-9.1s-10.93,3.8-11.93,8.87l.1,11.69-3.54,0v0h-.31A4.62,4.62,0,0,1,11,55.78V49.34A4.59,4.59,0,0,1,12.46,46c1.42-8.58,9.38-15,18.85-15s17.44,6.38,18.86,15a4.59,4.59,0,0,1,1.43,3.34v6.45A4.62,4.62,0,0,1,47,60.4H45.42a12.9,12.9,0,0,1-2.76,3L44,65.08a15.51,15.51,0,0,1-8,3.16A3.56,3.56,0,0,1,33.62,69.11ZM32,65.51l1.64.06,0,0H32Zm-.66-29.22c7.71,0,14.2,5,15.44,11.94a20.88,20.88,0,0,1-.29,8.62H47a1.08,1.08,0,0,0,1.08-1.08V49.34a1.07,1.07,0,0,0-.5-.91l-.7-.45-.1-.83c-.86-7.17-7.5-12.58-15.45-12.58S16.73,40,15.87,47.15l-.1.83-.7.45a1.07,1.07,0,0,0-.5.91v6.45a1.08,1.08,0,0,0,1.08,1.08h.28l-.08-8.46,0-.16C17.11,41.32,23.61,36.29,31.32,36.29Z"/><path class="cls-3" d="M29.37,67.4a16.22,16.22,0,0,1-14-8.29l3.14-1.62-1.57.81,1.57-.82a12.67,12.67,0,0,0,12.63,6.28l.41,3.51A18.65,18.65,0,0,1,29.37,67.4Z"/><path class="cls-3" d="M67.13,21.17A12.56,12.56,0,1,1,54.57,33.73,12.57,12.57,0,0,1,67.13,21.17m0-1.37A13.93,13.93,0,1,0,81.06,33.73,13.93,13.93,0,0,0,67.13,19.8Z"/><circle class="cls-1" cx="67.13" cy="33.73" r="1.64"/><rect class="cls-1" x="66.56" y="22.47" width="1.13" height="3.09"/><rect class="cls-1" x="66.56" y="42.35" width="1.13" height="3.09"/><rect class="cls-1" x="75.53" y="33.39" width="3.09" height="1.13"/><rect class="cls-1" x="55.64" y="33.39" width="3.09" height="1.13"/><rect class="cls-1" x="67.22" y="29.26" width="5.54" height="1.13" transform="matrix(0.58, -0.82, 0.82, 0.58, 5.24, 69.76)"/><rect class="cls-1" x="66.56" y="36.18" width="1.13" height="8.59"/><polygon class="cls-1" points="86.54 37.29 82.47 33.22 86.29 29.08 87.91 30.57 85.53 33.16 88.1 35.73 86.54 37.29"/></svg>