<svg id="Layer_1" data-name="Layer 1" xmlns="http://www.w3.org/2000/svg" viewBox="0 0 117.79 119"><defs><style>.cls-1{fill:#3276b4;}.cls-2{fill:#4d4d4f;}.cls-3{opacity:0.1;}</style></defs><title>Web-Towers-Timeline</title><polygon class="cls-1" points="44.1 46.19 35.77 42.77 11.44 52.1 10.11 62.38 35.05 53.89 35.07 53.88 47.05 58.42 44.1 46.19"/><path class="cls-2" d="M117.64,105.33a.68.68,0,0,0,.14-.49l-7.64-55.17a.69.69,0,0,0-.43-.54L82,38.44a.68.68,0,0,0-.5,0L58.9,47.67,36.26,38.44a.68.68,0,0,0-.5,0L8.08,49.13a.68.68,0,0,0-.43.55L0,104.84a.68.68,0,0,0,.14.48l.23.21a.68.68,0,0,0,.31.08.64.64,0,0,0,.21,0L32.44,95l26.24,9.26a.69.69,0,0,0,.44,0L85.35,95l31.55,10.62.21,0a.66.66,0,0,0,.3-.08ZM58.9,102.85,32.68,93.6a.65.65,0,0,0-.45,0L1.51,103.93,8.94,50.27,36,39.82l22.63,9.23a.68.68,0,0,0,.51,0l22.64-9.23,27.06,10.45,7.43,53.67L85.56,93.59l-.21,0h-.15Z"/><path class="cls-2" d="M10.11,63.07l24.94-8.46,11.76,4.46a.67.67,0,0,0,.69-.14.69.69,0,0,0,.2-.67L44.77,46a.68.68,0,0,0-.41-.48L36,42.13a.68.68,0,0,0-.5,0L11.2,51.46a.69.69,0,0,0-.43.55L9.44,62.29a.68.68,0,0,0,.67.78Zm25.2-9.84a.72.72,0,0,0-.47,0l-23.9,8.14,1.13-8.78,23.7-9.09,7.76,3.18,2.56,10.63Z"/><path class="cls-2" d="M6.65,85.52l.28-.1a.67.67,0,0,0,.29.08l14.25-5.05a.68.68,0,0,0,.34-.25L30,68.43,33.72,67,45,62.3a.67.67,0,0,0,.37-.38v-.53a.68.68,0,0,0-.38-.37L35,57.3a.69.69,0,0,0-.47,0L9.37,65.78a.69.69,0,0,0-.46.56L6.54,84.72a.68.68,0,0,0,.15.48ZM34.76,58.67l8.07,3L34,65.38l-4.7,1.84a.67.67,0,0,0-.31.25L20.82,79.22,8,83.79,10.21,67Z"/><path class="cls-2" d="M58.63,88.51a.77.77,0,0,0,.53,0l12.3-5.11a.69.69,0,0,0,.42-.66l-.31-10.07a.68.68,0,0,0-.22-.46V72l-.2.08a.66.66,0,0,0-.51,0L58.94,76.92l-7.7-2.71L49.07,64.07a.68.68,0,0,0-.3-.42l0-.09-.08,0a.67.67,0,0,0-.52,0l-13.6,5.65-2.65,1a.68.68,0,0,0-.32.25L23.41,82.26l-17,6a.68.68,0,0,0-.45.56l-1.42,11a.67.67,0,0,0,.15.48l.23.21a.67.67,0,0,0,.3.08h.14l27.26-9.28,11.59,4.18a.68.68,0,0,0,.83-.33l5.14-9.86Zm-25.71,1.4a.67.67,0,0,0-.45,0l-26.38,9,1.22-9.46,16.75-5.95a.68.68,0,0,0,.34-.26l8.18-11.78,2.47-1,12.86-5.34L50,74.87a.68.68,0,0,0,.44.51l8.3,2.92a.68.68,0,0,0,.48,0l11-4.59.27,8.6L58.86,87.13l-8.7-3.35a.68.68,0,0,0-.85.32L44.17,94Z"/><path class="cls-2" d="M47.86,47.61a.68.68,0,0,0-.09.5l3.08,12.13L53.5,72a.68.68,0,0,0,.44.5l4.66,1.65.23,0H59l12-5.07a.69.69,0,0,0,.41-.66l-.27-8.71,11.6-4.67,6.48,2.42a.68.68,0,0,0,.72-.16L98,49.26a.67.67,0,0,0,.18-.48l-.06-.29a.67.67,0,0,0-.36-.37l-15.52-6a.68.68,0,0,0-.49,0L58.89,51.36,48.69,47.3a.66.66,0,0,0-.54,0ZM83,53.73a.67.67,0,0,0-.51,0l-12.29,5a.69.69,0,0,0-.43.66l.27,8.72L58.81,72.8l-4.06-1.44L52.18,59.92,49.43,49.07l9.21,3.67a.67.67,0,0,0,.51,0L82,43.51,96.31,49l-7,7Z"/><path class="cls-2" d="M91.6,60l3.21,11.69a.69.69,0,0,0,.41.46l14.09,5.59.16.05h.09a.67.67,0,0,0,.28-.07l.25-.22a.68.68,0,0,0,.15-.49L107,52a.69.69,0,0,0-.44-.55l-4.72-1.77a.68.68,0,0,0-.72.16l-9.37,9.46A.69.69,0,0,0,91.6,60Zm14.12-7.36,3,23.4L96,71,93,60l8.78-8.86Z"/><path class="cls-2" d="M95,94.49l.36-.5a.68.68,0,0,0-.12-.52l-7.2-10,4.22-10.67a.69.69,0,0,0,0-.44L89.13,60.3a.69.69,0,0,0-.42-.47l-5.43-2a.7.7,0,0,0-.5,0l-8.55,3.42a.69.69,0,0,0-.43.67l.94,22.83L58.92,91.29l-6.7-2.55a.68.68,0,0,0-.85.32L47.83,95.9a.68.68,0,0,0,0,.53l0,.06.07,0a.67.67,0,0,0,.38.36l10.46,3.67.23,0H59l26.06-9.28,9.4,3.25A.67.67,0,0,0,95,94.49ZM58.69,92.67a.67.67,0,0,0,.49,0L75.7,85.84a.69.69,0,0,0,.42-.67l-.94-22.82,7.87-3.15L87.91,61,91,72.52,86.68,83.33a.69.69,0,0,0,.08.66l6.15,8.54-7.59-2.62a.67.67,0,0,0-.45,0l-26,9.25L49.4,95.83l2.89-5.59Z"/><path class="cls-2" d="M94.79,74.69a.69.69,0,0,0-.36.38l-3.11,8a.69.69,0,0,0,.09.66l9.41,12.79a.68.68,0,0,0,.33.24l11.16,3.75.21,0a.67.67,0,0,0,.31-.08l.23-.21a.67.67,0,0,0,.15-.49l-2.41-18.65a.68.68,0,0,0-.43-.55l-15-5.93A.68.68,0,0,0,94.79,74.69Zm14.7,7.05L111.7,98.9l-9.93-3.34L92.72,83.25l2.73-7Z"/><g class="cls-3"><path class="cls-2" d="M85.54,89.91,82.31,39.79,109,50.08l.07.54.32,0,.51-.92,0-.28-28.64-11,3.42,53A4.84,4.84,0,0,1,85.54,89.91Z"/></g><g class="cls-3"><path class="cls-2" d="M0,105.6,7.76,49.39l.26-.1,28.24-10.9L32.64,94.62ZM8.59,50.12,1.12,104.19,31.77,93.88l3.48-54.05Z"/></g><path class="cls-2" d="M26,13.37A13.34,13.34,0,0,0,12.43,26.49,15.49,15.49,0,0,0,14.17,33l.13.28C17.1,39,22.39,44.72,24.53,46.91L26,48.38l1.42-1.46c2.14-2.2,7.43-7.94,10.23-13.64l.12-.25a15.5,15.5,0,0,0,1.74-6.53A13.34,13.34,0,0,0,26,13.37Zm8.23,17.85a3.12,3.12,0,0,0-.18.38,52.42,52.42,0,0,1-8,11,53.35,53.35,0,0,1-8-11,3,3,0,0,0-.2-.42,11.54,11.54,0,0,1-1.31-4.71A9.36,9.36,0,0,1,26,17.35a9.36,9.36,0,0,1,9.55,9.14A11.56,11.56,0,0,1,34.19,31.22Z"/><path class="cls-2" d="M25.64,23.8a4.58,4.58,0,1,0,4.72,4.58A4.65,4.65,0,0,0,25.64,23.8Zm0,2.66a1.92,1.92,0,1,1-2,1.92A2,2,0,0,1,25.64,26.46Z"/></svg>