<svg id="Layer_1" data-name="Layer 1" xmlns="http://www.w3.org/2000/svg" viewBox="0 0 151.39 119"><defs><style>.cls-1{fill:#4d4d4f;}.cls-2{fill:#3276b4;}.cls-3{font-size:10.47px;fill:#404041;font-family:MyriadPro-Regular, Myriad Pro;}.cls-4{font-size:11.42px;}</style></defs><title>Web-Towers-Timeline</title><path class="cls-1" d="M76.9,60.94V75.83a1.63,1.63,0,0,1-1.63,1.63H11.56a1.63,1.63,0,0,1-1.63-1.63V36.3a1.63,1.63,0,0,1,1.63-1.63H75.27A1.63,1.63,0,0,1,76.9,36.3v7.88h.86V35.46A1.72,1.72,0,0,0,76,33.74H10.79a1.72,1.72,0,0,0-1.72,1.72V76.67a1.72,1.72,0,0,0,1.72,1.72H76a1.72,1.72,0,0,0,1.72-1.72V60.94Z"/><path class="cls-1" d="M85.65,80.65H82.36V60.94H80V80.65H53.72a1.18,1.18,0,0,0-1,.59l-.16.27H34.29l-.16-.27a1.18,1.18,0,0,0-1-.59H6.81V33.74a2.26,2.26,0,0,1,2.26-2.26H77.76A2.26,2.26,0,0,1,80,33.74V44.19h2.35V33.74a4.61,4.61,0,0,0-4.61-4.61H9.07a4.61,4.61,0,0,0-4.61,4.61v46.9H1.17A1.17,1.17,0,0,0,0,81.82v3.43a4.61,4.61,0,0,0,4.61,4.61H82.22a4.61,4.61,0,0,0,4.61-4.61V81.82A1.17,1.17,0,0,0,85.65,80.65Zm-1.17,4.61a2.26,2.26,0,0,1-2.26,2.26H4.61a2.26,2.26,0,0,1-2.26-2.26V83H32.29l.16.18a2,2,0,0,0,1.51.68H52.86a2,2,0,0,0,1.51-.68l.16-.18H84.48Z"/><path class="cls-1" d="M31.53,65a2.29,2.29,0,0,1-1.62-3.9l4.51-4.51.46.72a6.86,6.86,0,0,0,2,2l.72.46-4.51,4.51A2.27,2.27,0,0,1,31.53,65Zm2.69-6.25-3.33,3.33a.9.9,0,0,0,0,1.28.92.92,0,0,0,1.28,0L35.49,60A8.1,8.1,0,0,1,34.21,58.74Z"/><path class="cls-1" d="M41.27,60a7,7,0,1,1,7-7A7,7,0,0,1,41.27,60Zm0-12.67A5.64,5.64,0,1,0,46.91,53,5.65,5.65,0,0,0,41.27,47.33Z"/><path class="cls-2" d="M41.27,48.59v1.25A3.13,3.13,0,0,1,44.39,53h1.25a4.38,4.38,0,0,0-4.37-4.37Zm0,0"/><path class="cls-1" d="M150.87,61.9H46.13a.52.52,0,0,1-.22-1c.17-.08,4.07-2,3.94-8.2a8.74,8.74,0,0,0-4.69-7.63.52.52,0,0,1,.22-1H150.87a.52.52,0,0,1,.52.52V61.37A.52.52,0,0,1,150.87,61.9Zm-103.1-1H150.35V45.11H47.17a9.61,9.61,0,0,1,3.73,7.56C51,57.13,49.14,59.62,47.77,60.85Z"/><text class="cls-3" transform="translate(51.51 56.23)">www<tspan class="cls-4" x="23.36" y="0">.faraborddi.com</tspan></text></svg>