<svg id="Layer_1" data-name="Layer 1" xmlns="http://www.w3.org/2000/svg" viewBox="0 0 535.6 778.4"><defs><style>.cls-1,.cls-3,.cls-6{fill:none;stroke:#404041;stroke-miterlimit:10;}.cls-1{stroke-width:0.87px;stroke-dasharray:5.23;}.cls-2{fill:#3276b4;}.cls-3{stroke-width:0.95px;}.cls-4{fill:#404041;}.cls-5{fill:#716f6f;}.cls-6{stroke-width:0.98px;stroke-dasharray:5.85;}</style></defs><title>P2P-Timeline-Background-V1</title><path class="cls-1" d="M492.2,456.34s-26,77.11-103.85,77.11S285,456.34,285,456.34"/><rect class="cls-2" x="505.2" width="19.69" height="430.03"/><rect class="cls-2" y="251.05" width="19.69" height="527.35"/><polygon class="cls-2" points="272.54 428.59 252.98 428.62 252.91 252.8 272.61 252.8 272.54 428.59"/><path class="cls-2" d="M505.2,428.59c-1.09,63.45-52.9,114.74-116.6,114.74S273.63,492,272.54,428.59H253c1.09,74.23,61.12,134.29,135.61,134.29S523.8,504.26,524.89,430Z"/><path class="cls-2" d="M19.69,252.8A116.9,116.9,0,0,1,136.43,138.06c63.71,0,115.4,51.28,116.49,114.74h19.69c-1.09-74.23-61.69-134.29-136.18-134.29S1.09,176.82,0,251.05Z"/><line class="cls-3" x1="530.4" y1="32.9" x2="530.81" y2="126.54"/><path class="cls-4" d="M535.6,125.76a14.72,14.72,0,0,0-4.77,5,15.29,15.29,0,0,0-4.81-5v-1.18a16.61,16.61,0,0,1,4.81,4.56,16.88,16.88,0,0,1,4.77-4.62Z"/><path class="cls-4" d="M535.58,122.91a14.72,14.72,0,0,0-4.77,5,15.29,15.29,0,0,0-4.81-5v-1.18a16.62,16.62,0,0,1,4.81,4.56,16.9,16.9,0,0,1,4.77-4.62Z"/><rect class="cls-5" x="26.02" y="521.52" width="2.02" height="1.9"/><rect class="cls-5" x="26.02" y="526.01" width="2.02" height="1.9"/><rect class="cls-5" x="26.02" y="530.5" width="2.02" height="1.9"/><rect class="cls-5" x="26.02" y="534.99" width="2.02" height="1.9"/><rect class="cls-5" x="26.02" y="539.48" width="2.02" height="1.9"/><rect class="cls-5" x="26.02" y="543.97" width="2.02" height="1.9"/><rect class="cls-5" x="26.02" y="548.46" width="2.02" height="1.9"/><rect class="cls-5" x="26.02" y="552.95" width="2.02" height="1.9"/><rect class="cls-5" x="26.02" y="557.44" width="2.02" height="1.9"/><rect class="cls-5" x="26.02" y="561.93" width="2.02" height="1.9"/><rect class="cls-5" x="26.02" y="566.42" width="2.02" height="1.9"/><rect class="cls-5" x="26.02" y="570.91" width="2.02" height="1.9"/><rect class="cls-5" x="26.02" y="575.4" width="2.02" height="1.9"/><path class="cls-6" d="M5.2,187.4S39,108.62,136.43,108.62,267.87,187.4,267.87,187.4"/></svg>