<svg id="Layer_1" data-name="Layer 1" xmlns="http://www.w3.org/2000/svg" xmlns:xlink="http://www.w3.org/1999/xlink" viewBox="0 0 1366 483"><defs><style>.cls-1,.cls-2,.cls-3{fill:none;stroke:#fff;stroke-miterlimit:10;}.cls-1{stroke-width:6px;}.cls-2{stroke-width:3px;}.cls-3{stroke-width:2px;}.cls-4{fill:#3176b5;}.cls-5,.cls-7{opacity:0.67;}.cls-6,.cls-7{fill:#5089c3;}.cls-8{opacity:0.45;fill:url(#linear-gradient);}</style><linearGradient id="linear-gradient" x1="504.4" y1="378.95" x2="507.75" y2="378.95" gradientUnits="userSpaceOnUse"><stop offset="0" stop-color="#fff"/><stop offset="0.32" stop-color="#f5fbfe"/><stop offset="1" stop-color="#e4f4fc"/></linearGradient></defs><title>city-tehran-no cloud-V1</title><path class="cls-1" d="M1392,182S1248,304,984,336,653,247,394,215s-496,32-496,32"/><path class="cls-2" d="M1395.5,197.5s-147.44,136.84-413,151-330.74-116.64-587-166-489,44-489,44"/><path class="cls-3" d="M1405.5,135.5s-113,152-531,205c-243,30.81-316.55-94-555.88-116.68s-442.8,94.08-442.8,94.08"/><polygon class="cls-4" points="324.51 467.73 324.51 396.77 291.61 396 291.61 467.73 324.51 467.73"/><polygon class="cls-4" points="624.49 439 624.49 378.88 584.49 378.88 584.49 475 624.49 439"/><polygon class="cls-4" points="395.83 468.2 395.83 377.87 360.27 368.5 360.27 468.2 395.83 468.2"/><g class="cls-5"><rect class="cls-6" x="398.49" y="374" width="35.92" height="96.27"/></g><path class="cls-6" d="M896.47,434v34.38h89.84l16.33.63V434h-6V395.32h-7.74v-8.59a7.74,7.74,0,0,0-15.47,0v8.59h-7.74v27.5H952.79v-17a10.09,10.09,0,0,0,1.72-5.35h-1.72V389.3h1.72c0-3.56-2.69-8.16-6-8.16s-6,4.6-6,8.16h1.72v11.17h-1.72a10.09,10.09,0,0,0,1.72,5.35v17H931.3v-27.5h-7.74v-8.59a7.74,7.74,0,1,0-15.47,0v8.59h-6.88V434Zm54.6-39.54a2.58,2.58,0,1,1-2.58-2.58A2.58,2.58,0,0,1,951.07,394.46Z"/><g class="cls-5"><rect class="cls-6" x="809.91" y="342.52" width="37.64" height="125.21"/></g><rect class="cls-6" x="259.93" y="426" width="29.56" height="41.73"/><g class="cls-5"><polygon class="cls-6" points="581.77 470.27 581.77 356.24 547.7 343.94 547.7 470.27 581.77 470.27"/></g><g class="cls-5"><rect class="cls-6" x="326.77" y="405.59" width="30.72" height="60.68"/></g><polygon class="cls-4" points="887.33 339.17 887.33 322.22 874.56 322.22 874.56 301.04 870.31 301.04 870.31 322.22 858.39 322.22 858.39 339.17 851.58 339.17 851.58 468.38 893.29 468.38 893.29 339.17 887.33 339.17"/><path class="cls-4" d="M803,407.09a1.1,1.1,0,0,0,0-2.2,1.1,1.1,0,0,0,0,2.2Z"/><polygon class="cls-7" points="803.85 326.79 803.85 315.38 762.62 315.38 762.62 326.79 744.75 326.79 744.75 468.38 806.6 468.38 806.6 326.79 803.85 326.79"/><polygon class="cls-7" points="497.04 366.37 497.04 363.08 481.7 363.08 481.7 366.37 472.94 366.37 472.94 458.38 506.9 458.38 506.9 366.37 497.04 366.37"/><polygon class="cls-7" points="533.48 355.37 533.48 352.08 518.14 352.08 518.14 355.37 509.38 355.37 509.38 447.37 543.33 447.37 543.33 355.37 533.48 355.37"/><polygon class="cls-4" points="460.14 376.37 460.14 373.08 444.81 373.08 444.81 376.37 436.04 376.37 436.04 468.38 470 468.38 470 376.37 460.14 376.37"/><polygon class="cls-4" points="789.44 385.02 789.44 394.16 759.75 394.16 759.75 468.38 789.44 468.38 794.01 468.38 879.64 468.38 789.44 385.02"/><polygon class="cls-4" points="1006.53 466.02 1006.53 408.11 1013.79 408.11 1013.79 405 1025.2 405 1025.2 408.11 1031.42 408.11 1031.42 426.77 1035.57 426.77 1035.57 422.63 1048.01 422.63 1048.01 426.77 1050.08 426.77 1050.08 422.63 1052.15 422.63 1052.15 426.77 1054.23 426.77 1054.23 434.58 1065.63 434.58 1065.63 442.88 1106.07 442.88 1106.07 466.17 1042.82 466.17 1006.53 466.02"/><polygon class="cls-4" points="515.29 450.75 512.17 307.85 525.57 288.23 509.94 269.76 507.68 269.76 505.48 231 504.38 269.76 502.13 269.76 485.38 288.23 499.89 307.85 497.66 449.63 487.63 454.1 487.63 464.14 478.69 464.14 479.69 480.52 513.17 480.52 517.64 480.52 541.08 480.52 540.08 450.75 515.29 450.75"/><polygon class="cls-8" points="505.51 309.24 504.4 448.66 507.75 448.66 506.63 309.24 505.51 309.24"/><path class="cls-4" d="M458.73,447.48h98.2s-1.12,14.52-17,33.52H472.23S453.63,463.91,458.73,447.48Z"/><g class="cls-5"><path class="cls-6" d="M650.15,347.85V331h-4.51v16.85h-18V443l40.61-41V347.85Z"/></g><g class="cls-5"><polygon class="cls-6" points="741.41 446 741.41 331.5 698.93 331.5 698.93 407 741.41 446"/></g><path class="cls-4" d="M707.83,409.07v-50h-9.28v-1.33h-6.34a11.29,11.29,0,0,0-19.14,0h-6.34v1.33h-9.28v51.32l-65,58.71H774.12ZM614.3,459.69l41.8-43-36,43Zm11.61,0,33.68-43-27.87,43Zm10.45,0,26.71-43-20.9,43Zm10.45,0,19.74-43-13.93,43Zm13.28.13L670,425l0-.07,0-.08h0a13.74,13.74,0,0,1,26.51,0h0a15.05,15.05,0,0,1,.39,1.6l8.22,33.34Zm52.9-.13-13.93-43,19.74,43Zm10.45,0-20.9-43,26.71,43Zm10.45,0-27.87-43,33.68,43Zm-24.39-43,41.8,43h-5.81Z"/><rect class="cls-4" y="460" width="1366" height="23"/></svg>