<svg id="Layer_1" data-name="Layer 1" xmlns="http://www.w3.org/2000/svg" xmlns:xlink="http://www.w3.org/1999/xlink" viewBox="0 0 1366 574"><defs><style>.cls-1,.cls-2,.cls-3{fill:none;stroke:#fff;stroke-miterlimit:10;}.cls-1{stroke-width:6px;}.cls-2{stroke-width:3px;}.cls-3{stroke-width:2px;}.cls-4{fill:#fff;}.cls-5,.cls-7,.cls-9{fill:#5089c3;}.cls-5{opacity:0.19;}.cls-6,.cls-9{opacity:0.67;}.cls-8{fill:#3176b5;}.cls-10{opacity:0.45;fill:url(#linear-gradient);}.cls-11{fill:url(#linear-gradient-2);}</style><linearGradient id="linear-gradient" x1="665.9" y1="378.95" x2="669.26" y2="378.95" gradientUnits="userSpaceOnUse"><stop offset="0" stop-color="#fff"/><stop offset="0.32" stop-color="#f5fbfe"/><stop offset="1" stop-color="#e4f4fc"/></linearGradient><linearGradient id="linear-gradient-2" x1="683" y1="556.07" x2="683" y2="449.88" gradientUnits="userSpaceOnUse"><stop offset="0" stop-color="#5089c3"/><stop offset="1" stop-color="#3176b5"/></linearGradient></defs><title>city-tehran-V1</title><path class="cls-1" d="M1392,182S1248,304,984,336,653,247,394,215s-496,32-496,32"/><path class="cls-2" d="M1395.5,197.5s-147.44,136.84-413,151-330.74-116.64-587-166-489,44-489,44"/><path class="cls-3" d="M1405.5,135.5s-113,152-531,205c-243,30.81-316.55-94-555.88-116.68s-442.8,94.08-442.8,94.08"/><path class="cls-4" d="M451.06,447.24c12.17-24.35-17.59-28.41-17.59-28.41,8.12-43.29-39.23-43.29-39.23-43.29s-2.71-33.82-37.88-41.94S305,363.37,305,363.37c-31.11-16.23-46,18.94-46,18.94-46-16.23-47.35,36.52-47.35,36.52-6.76-23-31.11-13.53-31.11-13.53-11.76-18.61-22.8-8.41-28-1.37-5.64-3.53-15.37-6-28.07,4.91,0,0-24.69-37.54-68.16-12.84,0,0-36.55-25.68-58.28,9.88V477H493C486.24,432.36,451.06,447.24,451.06,447.24Z"/><path class="cls-4" d="M1358.81,404.77c-17.18-10.07-27.48-1.4-32.62,6-30-19.58-37.54,12.5-37.54,12.5-30.8-24.93-53.37,5.64-53.37,5.64-14.56-1-15.53,16.5-15.53,16.5,13.32-32.39-20.38-39.75-20.38-39.75,0-26.2-27.17-16.5-27.17-16.5-19.41-39.79-56.29-8.73-56.29-8.73,6.73-44.21-37.85-41.81-37.85-41.81-39.79-50.46-83.46,0-83.46,0-3.88-18.44-30.08-8.73-30.08-8.73-11.65-30.08-59.2-18.44-59.2-18.44-35.91-47.55-81.52-8.73-81.52-8.73-27.17-13.59-40.76,16.5-40.76,16.5-46.58-16.5-57.26,18.44-57.26,18.44-10.67-11.65-14.56,3.88-14.56,3.88-32.57-11.18-41.38,29.18-41.38,29.18V524.82h622.56V525h91.17V393.75C1364.32,380.9,1358.81,404.77,1358.81,404.77Z"/><path class="cls-5" d="M785.56,433.14s60.86-31.08,76.4-24.6c0,0,11.65,2.59,22-7.77,0,0,5.18-14.24,20.72,0l59.57-33.67s10.36-12.95,20.72-5.18c0,0,9.06-10.36,36.26,16.83,0,0,3.88-14.24,29.78,7.77s44,24.6,44,24.6,23.31-12.95,44,10.36c0,0,32.37-3.88,53.09,6.47,0,0,9.06-2.59,18.13,10.36,0,0,75.11,18.13,102.3,19.42S1367,460.33,1411,468.1l158,2.59v6.47H647S751.89,425.37,785.56,433.14Z"/><path class="cls-5" d="M430.25,370.81s32.63-46.94,42.46-42.47c0,0,7.37,1.79,13.93-5.37,0,0,3.28-9.85,13.11,0l37.68-23.27s6.55-9,13.11-3.58c0,0,5.73-7.16,22.94,11.64,0,0,2.46-9.85,18.84,5.37s27.85,17,27.85,17,14.75-9,27.85,7.16c0,0,20.48-2.69,33.59,4.48,0,0,5.73-1.79,11.47,7.16,0,0,47.51,12.53,64.72,13.43s34.41,1.79,62.26,7.16L920,371.31V487l-797.62-7.7,220.21-78.06S408.95,365.44,430.25,370.81Z"/><g class="cls-6"><path class="cls-7" d="M507.65,347.85V325.27h-4.51v22.58h-18V443l40.61-41V347.85Z"/></g><polygon class="cls-8" points="372.02 467.73 372.02 396.77 339.12 396 339.12 467.73 372.02 467.73"/><rect class="cls-8" x="601" y="378.88" width="40" height="88.48"/><polygon class="cls-8" points="443.34 468.2 443.34 377.87 407.78 368.5 407.78 468.2 443.34 468.2"/><g class="cls-6"><rect class="cls-7" x="446" y="374" width="35.92" height="96.27"/></g><path class="cls-7" d="M944,434v34.38h89.84l16.33.63V434h-6V395.32h-7.74v-8.59a7.74,7.74,0,1,0-15.47,0v8.59h-7.74v27.5H1000.3v-17a10.09,10.09,0,0,0,1.72-5.35h-1.72V389.3H1002c0-3.56-2.69-8.16-6-8.16s-6,4.6-6,8.16h1.72v11.17H990a10.09,10.09,0,0,0,1.72,5.35v17H978.81v-27.5h-7.74v-8.59a7.74,7.74,0,1,0-15.47,0v8.59h-6.88V434Zm54.6-39.54a2.58,2.58,0,1,1-2.58-2.58A2.58,2.58,0,0,1,998.58,394.46Z"/><g class="cls-6"><rect class="cls-7" x="857.42" y="342.52" width="37.64" height="125.21"/></g><g class="cls-6"><polygon class="cls-7" points="598.91 446 598.91 331.5 556.44 331.5 556.44 407 598.91 446"/></g><rect class="cls-7" x="307.44" y="426" width="29.56" height="41.73"/><g class="cls-6"><polygon class="cls-7" points="662.28 470.27 662.28 356.24 628.21 343.94 628.21 470.27 662.28 470.27"/></g><g class="cls-6"><rect class="cls-7" x="374.28" y="405.59" width="30.72" height="60.68"/></g><polygon class="cls-8" points="934.84 339.17 934.84 322.22 922.07 322.22 922.07 301.04 917.82 301.04 917.82 322.22 905.9 322.22 905.9 339.17 899.09 339.17 899.09 468.38 940.8 468.38 940.8 339.17 934.84 339.17"/><path class="cls-8" d="M850.55,407.09a1.1,1.1,0,0,0,0-2.2,1.1,1.1,0,0,0,0,2.2Z"/><polygon class="cls-9" points="851.36 326.79 851.36 315.38 810.13 315.38 810.13 326.79 792.26 326.79 792.26 468.38 854.11 468.38 854.11 326.79 851.36 326.79"/><polygon class="cls-9" points="738.12 372.46 738.12 369.04 722.13 369.04 722.13 372.46 713 372.46 713 468.38 748.39 468.38 748.39 372.46 738.12 372.46"/><polygon class="cls-9" points="700.01 372.47 700.01 369.04 684.02 369.04 684.02 372.47 674.89 372.47 674.89 468.37 710.28 468.37 710.28 372.47 700.01 372.47"/><polygon class="cls-8" points="777.75 372.46 777.75 369.04 761.77 369.04 761.77 372.46 752.63 372.46 752.63 468.38 788.03 468.38 788.03 372.46 777.75 372.46"/><polygon class="cls-8" points="836.95 385.02 836.95 394.16 807.26 394.16 807.26 468.38 836.95 468.38 841.51 468.38 927.15 468.38 836.95 385.02"/><polygon class="cls-8" points="1054.04 466.02 1054.04 408.11 1061.3 408.11 1061.3 405 1072.7 405 1072.7 408.11 1078.92 408.11 1078.92 426.77 1083.07 426.77 1083.07 422.63 1095.51 422.63 1095.51 426.77 1097.59 426.77 1097.59 422.63 1099.66 422.63 1099.66 426.77 1101.73 426.77 1101.73 434.58 1113.14 434.58 1113.14 442.88 1153.58 442.88 1153.58 466.17 1090.33 466.17 1054.04 466.02"/><path class="cls-8" d="M565.34,409.07v-50h-9.28v-1.33h-6.34a11.29,11.29,0,0,0-19.14,0h-6.34v1.33H515v51.32L450,469.1H631.62Zm-93.52,50.63,41.8-43-36,43Zm11.61,0,33.68-43-27.87,43Zm10.45,0,26.71-43-20.9,43Zm10.45,0,19.74-43-13.93,43Zm13.28.13L527.51,425l0-.07,0-.08h0a13.74,13.74,0,0,1,26.51,0h0a15.05,15.05,0,0,1,.39,1.6l8.22,33.34Zm52.9-.13-13.93-43,19.74,43Zm10.45,0-20.9-43,26.71,43Zm10.45,0-27.87-43,33.68,43Zm-24.39-43,41.8,43H603Z"/><polygon class="cls-8" points="676.79 450.75 673.68 307.85 687.08 288.23 671.45 269.76 669.18 269.76 666.98 231 665.88 269.76 663.63 269.76 646.89 288.23 661.4 307.85 659.17 449.63 649.14 454.1 649.14 464.14 640.2 464.14 640.2 496.52 673.68 496.52 678.15 496.52 701.59 496.52 701.59 450.75 676.79 450.75"/><polygon class="cls-10" points="667.02 309.24 665.9 448.66 669.26 448.66 668.14 309.24 667.02 309.24"/><path class="cls-8" d="M620.23,447.48h98.2s-2.12,30.52-18,49.52H632.74S615.14,463.91,620.23,447.48Z"/><rect class="cls-11" y="460" width="1366" height="185"/></svg>