<?xml version="1.0" encoding="utf-8"?>
<!-- Generator: Adobe Illustrator 21.0.0, SVG Export Plug-In . SVG Version: 6.00 Build 0)  -->
<svg version="1.1" id="Layer_1" xmlns="http://www.w3.org/2000/svg" xmlns:xlink="http://www.w3.org/1999/xlink" x="0px" y="0px"
	 viewBox="0 0 496.4 231.8" style="enable-background:new 0 0 496.4 231.8;" xml:space="preserve">
<style type="text/css">
	.st0{fill:none;stroke:#4D4D4D;stroke-width:3;stroke-linecap:round;stroke-linejoin:round;stroke-miterlimit:10;}
	.st1{fill:none;stroke:#4D4D4D;stroke-width:2.3905;stroke-linecap:round;stroke-linejoin:round;stroke-miterlimit:10;}
</style>
<g>
	<polyline class="st0" points="1.5,202.8 1.5,55.5 108.5,1.5 195.2,63.8 195.2,76.5 	"/>
	<polygon class="st0" points="52.2,44.5 52.2,65.5 25.5,79.8 25.5,59.2 	"/>
	<polyline class="st0" points="47.6,53 30.8,62.2 30.8,71.2 	"/>
	<polygon class="st0" points="91.8,26.8 91.8,47.8 65.2,62.2 65.2,41.5 	"/>
	<polyline class="st0" points="87.3,35.3 70.5,44.5 70.5,53.5 	"/>
	<polygon class="st0" points="52.2,75.1 52.2,96.1 25.5,110.5 25.5,89.8 	"/>
	<polyline class="st0" points="47.6,83.6 30.8,92.8 30.8,101.8 	"/>
	<polygon class="st0" points="91.8,57.5 91.8,78.5 65.2,92.8 65.2,72.1 	"/>
	<polyline class="st0" points="87.3,66 70.5,75.1 70.5,84.1 	"/>
	<polygon class="st0" points="52.2,105.8 52.2,126.8 25.5,141.1 25.5,120.4 	"/>
	<polyline class="st0" points="47.6,114.3 30.8,123.4 30.8,132.4 	"/>
	<polygon class="st0" points="91.8,88.1 91.8,109.1 65.2,123.4 65.2,102.8 	"/>
	<polyline class="st0" points="87.3,96.6 70.5,105.8 70.5,114.8 	"/>
	<polygon class="st0" points="52.2,136.4 52.2,157.4 25.5,171.7 25.5,151.1 	"/>
	<polyline class="st0" points="47.6,144.9 30.8,154.1 30.8,163.1 	"/>
	<polygon class="st0" points="91.8,118.7 91.8,139.7 65.2,154.1 65.2,133.4 	"/>
	<polyline class="st0" points="87.3,127.2 70.5,136.4 70.5,145.4 	"/>
	<line class="st0" x1="109.3" y1="154.1" x2="109.3" y2="1.5"/>
	<line class="st0" x1="149.3" y1="46.1" x2="109.3" y2="15.8"/>
	<line class="st0" x1="140.5" y1="57.5" x2="109.3" y2="33.8"/>
	<line class="st0" x1="135.3" y1="71.2" x2="109.3" y2="50.8"/>
	<line class="st0" x1="132.3" y1="85.3" x2="109.3" y2="67.8"/>
	<line class="st0" x1="129.3" y1="101.8" x2="109.3" y2="85.3"/>
	<line class="st0" x1="123.5" y1="114.3" x2="110.3" y2="103.8"/>
	<line class="st0" x1="120.8" y1="128.8" x2="109.3" y2="118.7"/>
</g>
<g>
	<polyline class="st0" points="169.8,197.3 169.8,105.4 276.8,51.4 363.5,113.7 363.5,143.8 	"/>
	<polygon class="st0" points="260.2,76.7 260.2,97.7 233.5,112.1 233.5,91.4 	"/>
	<polyline class="st0" points="255.6,85.2 238.8,94.4 238.8,103.4 	"/>
	<polygon class="st0" points="260.2,107.3 260.2,128.3 233.5,142.7 233.5,122 	"/>
	<polyline class="st0" points="255.6,115.8 238.8,125 238.8,134 	"/>
	<polygon class="st0" points="260.2,138 260.2,159 233.5,173.3 233.5,152.6 	"/>
	<polyline class="st0" points="255.6,146.5 238.8,155.6 238.8,164.6 	"/>
	<line class="st0" x1="277.6" y1="197.3" x2="277.6" y2="51.4"/>
	<line class="st0" x1="313.7" y1="93" x2="277.6" y2="65.7"/>
	<line class="st0" x1="305.4" y1="104.7" x2="277.6" y2="83.7"/>
	<line class="st0" x1="293.6" y1="113.2" x2="277.6" y2="100.7"/>
	<line class="st0" x1="287.2" y1="125" x2="277.6" y2="117.7"/>
</g>
<g>
	<polyline class="st1" points="340.9,231.8 340.9,174.4 426.2,131.4 495.3,181.1 495.3,195.5 	"/>
	<polygon class="st1" points="417.5,145.4 417.5,165.7 391.7,179.6 391.7,159.6 	"/>
	<polyline class="st1" points="413.1,153.6 396.8,162.5 396.8,171.2 	"/>
	<polygon class="st1" points="417.5,175.1 417.5,195.4 391.7,209.3 391.7,189.3 	"/>
	<polyline class="st1" points="413.1,183.3 396.8,192.2 396.8,200.9 	"/>
	<polygon class="st1" points="379.2,164.8 379.2,185.2 353.4,199.1 353.4,179 	"/>
	<polyline class="st1" points="374.8,173.1 358.5,181.9 358.5,190.7 	"/>
	<line class="st1" x1="426.8" y1="198.8" x2="426.8" y2="131.4"/>
	<line class="st1" x1="467.9" y1="173.9" x2="426.8" y2="142.8"/>
	<line class="st1" x1="448.9" y1="173.9" x2="426.8" y2="157.2"/>
	<line class="st1" x1="439.5" y1="180.7" x2="426.8" y2="170.7"/>
	<line class="st1" x1="434.4" y1="190.1" x2="426.8" y2="184.3"/>
</g>
</svg>
