<?xml version="1.0" encoding="utf-8"?>
<!-- Generator: Adobe Illustrator 21.0.0, SVG Export Plug-In . SVG Version: 6.00 Build 0)  -->
<svg version="1.1" id="Layer_1" xmlns="http://www.w3.org/2000/svg" xmlns:xlink="http://www.w3.org/1999/xlink" x="0px" y="0px"
	 viewBox="0 0 1366 345" style="enable-background:new 0 0 1366 345;" xml:space="preserve">
<style type="text/css">
	.st0{opacity:0.77;}
	.st1{fill:#5089C3;}
	.st2{fill:#3176B5;}
	.st3{fill-rule:evenodd;clip-rule:evenodd;fill:#3176B5;}
	.st4{opacity:0.33;fill:#5089C3;}
</style>
<g>
	<g class="st0">
		<rect x="870.1" y="200" class="st1" width="54.1" height="144.8"/>
		<rect x="981.7" y="210.1" class="st1" width="51.2" height="136.9"/>
		<rect x="930.9" y="233.3" class="st1" width="42.7" height="113.6"/>
		<g>
			<rect x="1039.7" y="198.9" class="st1" width="42" height="148.1"/>
		</g>
		<g>
			<rect x="1086.7" y="263" class="st1" width="48.6" height="84"/>
		</g>
		<g>
			<path class="st1" d="M856.3,221v-22.1h-14.4v-12.2h-4.4v12.2h-13.3V221h-7.7v126h46.4V221H856.3z"/>
		</g>
		<g>
			<rect x="723.2" y="265.2" class="st1" width="36.5" height="78.5"/>
		</g>
		<g>
			<rect x="1236" y="271.8" class="st1" width="41.3" height="85.2"/>
		</g>
		<g>
			<rect x="1245.1" y="269" class="st1" width="48.6" height="84"/>
		</g>
		<g>
			<polygon class="st1" points="808.1,342.2 808.1,205.7 769.7,191.5 769.7,342.2 			"/>
		</g>
		<rect x="904.2" y="252.3" class="st1" width="47.7" height="78.8"/>
		<rect x="951.9" y="262.6" class="st1" width="55.7" height="55.7"/>
		<rect x="997.3" y="281.7" class="st1" width="63.6" height="36.6"/>
		<rect x="788.8" y="262.6" class="st1" width="41.4" height="68.4"/>
		<rect x="838.1" y="279.3" class="st1" width="39" height="39"/>
	</g>
	<g class="st0">
		<rect x="1123.1" y="216.1" class="st1" width="51.2" height="136.9"/>
		<rect x="1072.3" y="239.3" class="st1" width="42.7" height="113.6"/>
		<g>
			<rect x="1194.1" y="208.9" class="st1" width="42" height="148.1"/>
		</g>
		<g>
			<path class="st1" d="M1351.9,290v-5.5h3.9c-0.1-15.5-12.7-28.9-29.3-29.8V238h-4.4v16.7c-14.4,1.4-27,14.2-27.1,29.7h2.8v5.5h-21
				v59.7h96.1V290H1351.9z"/>
		</g>
		<rect x="1093.3" y="268.6" class="st1" width="55.7" height="55.7"/>
		<rect x="1138.6" y="252" class="st1" width="63.6" height="97.3"/>
	</g>
	<g>
		<rect x="633.2" y="227.8" class="st2" width="40.5" height="117.5"/>
		<rect x="551.8" y="244.5" class="st2" width="38.3" height="102.5"/>
		<rect x="596.2" y="261.9" class="st2" width="32" height="85.1"/>
		<g>
			<rect x="515.3" y="236.1" class="st2" width="31.4" height="110.9"/>
		</g>
		<g>
			<rect x="475.1" y="284.1" class="st2" width="36.4" height="62.9"/>
		</g>
		<g>
			<rect x="1271.4" y="305" class="st2" width="27.3" height="40"/>
		</g>
		<g>
			<rect x="1169" y="323" class="st2" width="227" height="22"/>
		</g>
		<g>
			<rect x="368.8" y="290.7" class="st2" width="24.8" height="53.8"/>
		</g>
		<g>
			<path class="st2" d="M398.6,299.8v44.7h72v-44.7h-15.7v-4.1h2.1c-0.1-11.6-9.5-21.2-20.3-22.2v-3.7h-3.3v3.6
				c-12.4,0.6-21.8,10.7-21.9,22.3h2.9v4.1H398.6z"/>
		</g>
		<g>
			<polygon class="st2" points="1243.1,345 1243.1,242.8 1271.9,232.2 1271.9,345 			"/>
		</g>
		
			<rect x="368.7" y="319" transform="matrix(-1 -4.449875e-11 4.449875e-11 -1 1152.738 665.9146)" class="st2" width="415.3" height="28"/>
		
			<rect x="612.5" y="276.1" transform="matrix(-1 -4.498769e-11 4.498769e-11 -1 1260.6646 611.1097)" class="st2" width="35.7" height="59"/>
		
			<rect x="570.8" y="283.8" transform="matrix(-1 -4.484247e-11 4.484247e-11 -1 1183.2218 609.3226)" class="st2" width="41.7" height="41.7"/>
		
			<rect x="530.8" y="298.1" transform="matrix(-1 -4.484780e-11 4.484780e-11 -1 1109.3533 623.6198)" class="st2" width="47.7" height="27.4"/>
		
			<rect x="1214.6" y="293.8" transform="matrix(-1 -4.492108e-11 4.492108e-11 -1 2460.1873 638.7686)" class="st2" width="31" height="51.2"/>
		<rect x="1179" y="279" transform="matrix(-1 -5.773838e-11 5.773838e-11 -1 2389 624)" class="st2" width="31" height="66"/>
		<path class="st3" d="M1117.1,224l0.1,23.3h-6.3l0-35.8l-2.2-0.6l-0.1-3.2l-2.5-0.9l0-0.9l-2-0.8l-0.8,0l-0.2-8.8l-1.1-0.6
			l-0.2-3.9l-2.2-0.9l-2.6,0.1l-0.1,4.5l-1.5,0.2l-0.1,9.4l-3.1,0.1l-0.4,5.9l-3.6,0.2v21.2l-1,0.4l0.2,27.4l-1.6,0.1l-0.6-7.8h-5.5
			l-0.2,8.7l-2.1,0.4l0.1,2.5l-1.5,0.2l-0.1,30.6h-3.9l-1.2-43.2l-4-0.2l-0.2-10.5l-3.8-0.1l-0.1-5.4c0,0-1.3-1.5-4.7-2.6
			c-3.4-1-8.6-0.8-8.8-0.5c-0.2,0.3,0,5.9,0,5.9l-4,0.4l-0.2,8l-8.1,0.1l-0.1-1.4l-10.5-0.1l-0.1,42.6l-3.3,0.2l-0.4,4l-3.5,0.1
			l-0.2-65.8l-9.4-1.9l-25.5,1l0.1,7.8l-0.7,0.4l-0.1,36.4l-8,0.2l-0.1,5.1l-3.3,0.2v8l-0.7,0.4l-0.1,29.5l-6.8-0.1l-0.6-51.6
			l-24.6-0.4l-0.1,5.7l-8,0.1l-0.2-2.1l-33.5-0.1l-2.8,0.7l0.1,26.6l-3.3-0.1l-0.2,4.3l-3.3-0.2l0-46.1l-2.8-0.1l-0.1-0.9l-2.3,0
			c0,0,0.5-15.2-1.2-19c-1.8-3.8-7.6-8.3-13.1-11.5c-5.5-3.2-8.5-6.7-10.8-11c-2.3-4.3-1.9-13.6-1.9-13.6s-0.2-0.8-0.3-1
			c-0.1-0.2-0.5-0.1-0.5-0.1l0.3,92.7l-5.7,0.1l-0.5-15l-2.7-0.5l-0.1-3.8l-3.3-0.5l-0.1-4.1l-11.1-14.3l0-1.7l-0.5-0.4l-0.2-5.1
			l0.2-0.2c0,0,0-0.8,0-0.9c0-0.1-0.4-0.2-0.4-0.2l-0.3-1.4l-0.1-5.9l-0.2,0l-0.1,6l-0.2,1.4c0,0-0.5,0.1-0.5,0.1
			c-0.1,0-0.1,0.3-0.1,0.4c0,0.1,0.3,0.5,0.3,0.5l0,5.5l-0.6,0.2v1.4l-2.6,3.8l0-10l-2.2-0.2l0-5.9c0,0,0.4-0.2,0.5-0.5
			c0.1-0.4-0.5-0.7-0.8-1.2c-0.3-0.6-2.1-2.2-2.1-2.2s-0.1-1.2-0.2-1.5c-0.1-0.2-2.4-0.5-2.4-0.5l-0.3-2.2c0,0,0.6-0.3,0.5-0.5
			c-0.1-0.2-1.2-0.3-1.2-0.3s-0.1-1.7-2.1-5c-2-3.3-3.9-3.2-3.9-3.2l0-1.6c0,0-1.1-1.4-1.2-1.4c-0.1,0.1-1.1,1.4-1.1,1.4l-0.1,1.6
			c0,0-2.4,1.2-4.2,3.7c-1.8,2.5-1.9,4.6-1.9,4.6s-1.3,0-1.6,0.2c-0.2,0.2,0.6,0.4,0.6,0.4l0,2.1l-5,0.5c0,0-1.5,0-1.6,0.2
			c-0.1,0.2,0.5,0.6,0.5,0.6v2.5l-1.6,0.2l-0.1,1.2c0,0-0.7,0-0.8,0.1c-0.1,0.1-0.1,0.1-0.1,0.2c0,0.1,0.5,0.8,0.5,0.8l0.1,6.6
			l-0.5,0c0,0-0.4,0.1-0.4,0.2c0,0.1,0.8,0.8,0.8,0.8l0.2,6.9c0,0-0.8,0-0.8,0.2c0,0.2,0.8,0.8,0.8,0.8l0.1,37.1l-0.3,2l-1.2,1.7
			h-4.1l-0.9-27.2l-1.2-0.5l-0.4-4l-0.8-0.4l-0.2-4.8l-7.5-4.6l-3-0.2l-0.1-2.6l-5-0.4l-0.4-10.3l-8.9-0.4l-0.1-4.6L759,231
			l-8.4,0.2l-0.2,0.9l-8.8,0l-0.2,2.7l-5.4,0.1l-0.1-0.6l-6.7,0.1v2.4l-4.5,0.1l-0.2-1.3h-6.8l-0.1,3.3l-1.8,0.2l-0.1,19.8
			l-20.6,0.9l-0.2-5.3l-6.4-0.1l-0.2-3.8l-54.6,0.1l-0.2,4.1l-1.5,0.1l-0.1,20.8l-15.2,0.4l-0.6,21.3h-17.4l-0.4,49.5h581.2
			l-0.3-82.4l-4.5-0.5l-0.2-2.6l-3.6-0.6l-16.6,0.4l-0.1,3.2l-4.6-0.1v25l-6.7-0.4l-0.2-24.9l-2-2.3l-0.2-37.7H1117.1z"/>
		
			<rect x="668.5" y="236.2" transform="matrix(-1 -4.854396e-11 4.854396e-11 -1 1366.1056 560.0059)" class="st2" width="29.2" height="87.7"/>
		<rect x="461.5" y="276.2" class="st2" width="5.8" height="25"/>
		<rect x="463" y="264.3" class="st2" width="2.9" height="18.2"/>
		<rect x="402" y="276.2" class="st2" width="5.8" height="25"/>
		<rect x="403.6" y="264.3" class="st2" width="2.9" height="18.2"/>
	</g>
	<g>
		<rect x="260.1" y="261" class="st2" width="29.2" height="84.7"/>
		<rect x="201.4" y="273" class="st2" width="27.7" height="73.9"/>
		<rect x="233.5" y="285.6" class="st2" width="23.1" height="61.4"/>
		<g>
			<rect x="175.1" y="285.2" class="st2" width="22.7" height="61.8"/>
		</g>
		<g>
			<rect x="146.1" y="301.6" class="st2" width="26.3" height="45.4"/>
		</g>
		<g>
			<rect x="349" y="302.8" class="st2" width="19.7" height="42.4"/>
		</g>
		<g>
			<polygon class="st2" points="322.8,344.4 322.8,270.7 343.6,263 343.6,344.4 			"/>
		</g>
		
			<rect x="146.5" y="326.8" transform="matrix(-1 -6.001478e-11 6.001478e-11 -1 515.2353 673.7184)" class="st2" width="222.2" height="20.2"/>
		
			<rect x="245.2" y="295.8" transform="matrix(-1 -4.473323e-11 4.473323e-11 -1 516.1484 634.1888)" class="st2" width="25.8" height="42.5"/>
		
			<rect x="215.1" y="301.4" transform="matrix(-1 -4.475321e-11 4.475321e-11 -1 460.2906 632.8998)" class="st2" width="30.1" height="30.1"/>
		
			<rect x="186.3" y="311.7" transform="matrix(-1 -4.487400e-11 4.487400e-11 -1 407.0108 643.212)" class="st2" width="34.4" height="19.8"/>
		
			<rect x="310.9" y="301.4" transform="matrix(-1 -4.477630e-11 4.477630e-11 -1 644.1918 639.7746)" class="st2" width="22.3" height="37"/>
		
			<rect x="285.6" y="267" transform="matrix(-1 -4.872737e-11 4.872737e-11 -1 592.2008 597.3287)" class="st2" width="21.1" height="63.3"/>
	</g>
	<g>
		<rect x="62" y="288.1" class="st2" width="22.1" height="57.9"/>
		<rect x="17.7" y="297.2" class="st2" width="20.9" height="49.8"/>
		<rect x="41.9" y="306.7" class="st2" width="17.4" height="40.3"/>
		<g>
			<rect x="-2.2" y="292.6" class="st2" width="17.1" height="54.3"/>
		</g>
		<g>
			<polygon class="st2" points="129.1,345.6 144,345.6 144,320 129.1,314.6 			"/>
		</g>
		<g>
			<polygon class="st2" points="109.4,345 109.4,302.2 125,296.5 125,345 			"/>
		</g>
		
			<rect x="-23.7" y="324.8" transform="matrix(-1 -6.863234e-11 6.863234e-11 -1 122.4237 671.7474)" class="st2" width="169.8" height="22.2"/>
		
			<rect x="50.8" y="314.4" transform="matrix(-1 -4.496904e-11 4.496904e-11 -1 120.97 654.8439)" class="st2" width="19.5" height="26.1"/>
		
			<rect x="28.1" y="318.6" transform="matrix(-1 -4.479496e-11 4.479496e-11 -1 78.8142 653.8711)" class="st2" width="22.7" height="16.7"/>
		
			<rect x="6.3" y="326.4" transform="matrix(-1 -4.473500e-11 4.473500e-11 -1 38.6041 661.6537)" class="st2" width="25.9" height="8.9"/>
		
			<rect x="100.4" y="318.6" transform="matrix(-1 -4.476742e-11 4.476742e-11 -1 217.604 659.0595)" class="st2" width="16.9" height="21.9"/>
		
			<rect x="81.2" y="304.2" transform="matrix(-1 -4.842405e-11 4.842405e-11 -1 178.3665 638.605)" class="st2" width="15.9" height="30.2"/>
	</g>
	<path class="st4" d="M79.2,269.1h99.4v-2.4h-8.4c0,0,2.4-19.2-14.4-16.8c0,0-2.4-14.4-16.8-14.4s-15.6,13.2-15.6,13.2
		s-6-7.2-13.2,0c0,0-9.6-9.6-14.4,4.8c0,0-10.8,1.2-8.4,13.2h-8.4V269.1z"/>
	<path class="st4" d="M488.7,256h-68.3v-1.6h5.8c0,0-1.6-13.2,9.9-11.5c0,0,1.6-9.9,11.5-9.9c9.9,0,10.7,9,10.7,9s4.1-4.9,9,0
		c0,0,6.6-6.6,9.9,3.3c0,0,7.4,0.8,5.8,9h5.8V256z"/>
</g>
<rect x="722.8" y="312.8" class="st2" width="650.2" height="37.4"/>
<g>
	<rect x="1185.5" y="283.8" class="st2" width="33.1" height="71.8"/>
</g>
</svg>
