<svg id="Layer_1" data-name="Layer 1" xmlns="http://www.w3.org/2000/svg" viewBox="0 0 541.08 778.11"><defs><style>.cls-1{fill:#3276b4;}.cls-2,.cls-4,.cls-5{fill:none;stroke:#404041;stroke-miterlimit:10;}.cls-2{stroke-width:0.95px;}.cls-3{fill:#404041;}.cls-4,.cls-5{stroke-width:1.07px;}.cls-5{stroke-dasharray:4.54 4.54;}.cls-6{fill:#716f6f;}</style></defs><title>P2P-Timeline-V2</title><polygon class="cls-1" points="524.89 487.81 505.19 488.75 505.19 0 524.89 0 524.89 487.81"/><rect class="cls-1" y="194.46" width="19.69" height="583.65"/><polygon class="cls-1" points="271.85 487.31 252.3 487.34 252.3 192.28 271.99 192.28 271.85 487.31"/><path class="cls-1" d="M505.2,487.31C504.11,550.76,452.3,602,388.59,602A116.9,116.9,0,0,1,271.85,487.31H252.3c1.09,74.23,61.81,134.29,136.29,134.29S523.8,562,524.89,487.82Z"/><path class="cls-1" d="M19.69,196.2A116.9,116.9,0,0,1,136.43,81.47c63.71,0,114.85,51.28,115.94,114.74L272,192.48C270.9,118.25,210.91,61.91,136.43,61.91S1.09,120.43,0,194.66Z"/><line class="cls-2" x1="532.95" y1="-168.98" x2="533.37" y2="132.04"/><path class="cls-3" d="M538.16,131.27a14.71,14.71,0,0,0-4.78,5,15.29,15.29,0,0,0-4.8-5V130.1a16.61,16.61,0,0,1,4.8,4.57,16.88,16.88,0,0,1,4.79-4.6Z"/><path class="cls-3" d="M538.16,128.42a14.72,14.72,0,0,0-4.79,5,15.29,15.29,0,0,0-4.8-5v-1.18a16.62,16.62,0,0,1,4.8,4.57,16.89,16.89,0,0,1,4.79-4.6Z"/><line class="cls-2" x1="150.38" y1="683.5" x2="45.92" y2="683.91"/><path class="cls-3" d="M46.7,688.7a14.71,14.71,0,0,0-5-4.77,15.28,15.28,0,0,0,5-4.81h1.18a16.6,16.6,0,0,1-4.56,4.81,16.87,16.87,0,0,1,4.62,4.77Z"/><path class="cls-3" d="M49.55,688.69a14.72,14.72,0,0,0-5-4.77,15.29,15.29,0,0,0,5-4.81H50.7a16.62,16.62,0,0,1-4.56,4.81,16.9,16.9,0,0,1,4.62,4.77Z"/><path class="cls-4" d="M19.69,109.14s.38-.7,1.17-1.94"/><path class="cls-5" d="M23.43,103.46C34,88.93,67.76,51.55,136.16,51.51c72,0,106.61,41,115.66,53.84"/><path class="cls-4" d="M253.1,107.22c.81,1.23,1.2,1.92,1.2,1.92"/><path class="cls-4" d="M505.9,573.65s-.38.7-1.17,1.94"/><path class="cls-5" d="M502.16,579.34c-10.55,14.53-44.33,51.91-112.73,51.95-72,0-106.61-41-115.66-53.84"/><path class="cls-4" d="M272.49,575.57c-.81-1.23-1.2-1.92-1.2-1.92"/><path class="cls-6" d="M23.22,412.78l3.13,4.5a.53.53,0,0,0,.22.37.67.67,0,0,0,.68,0,.53.53,0,0,0,.22-.37l3.13-4.5a.54.54,0,0,0-.88-.61l-2.81,4-2.81-4a.54.54,0,0,0-.88.61Z"/><path class="cls-6" d="M23.22,408l3.13,4.5a.57.57,0,0,0,1.13,0l3.13-4.5a.54.54,0,0,0-.88-.61l-2.81,4.05-2.81-4.05a.54.54,0,0,0-.88.61Z"/><path class="cls-6" d="M23,403.15l3.13,4.5a.53.53,0,0,0,.22.37.68.68,0,0,0,.69,0,.53.53,0,0,0,.22-.37l3.13-4.5a.54.54,0,0,0-.88-.61l-2.81,4.05-2.81-4.05a.54.54,0,0,0-.88.61Z"/><path class="cls-6" d="M23,398.33l3.13,4.5a.53.53,0,0,0,.57.46.53.53,0,0,0,.56-.46l3.13-4.5a.54.54,0,1,0-.88-.61l-2.81,4-2.81-4a.54.54,0,1,0-.88.61Z"/><path class="cls-6" d="M23,393.41l3.13,4.5a.53.53,0,0,0,.57.46.53.53,0,0,0,.56-.46l3.13-4.5a.54.54,0,1,0-.88-.61l-2.81,4-2.81-4a.54.54,0,1,0-.88.61Z"/><path class="cls-6" d="M23,388.49l3.13,4.5a.53.53,0,0,0,.57.46.53.53,0,0,0,.56-.46l3.13-4.5a.54.54,0,1,0-.88-.61l-2.81,4-2.81-4a.54.54,0,1,0-.88.61Z"/><path class="cls-6" d="M23,383.57l3.13,4.5a.53.53,0,0,0,.57.46.53.53,0,0,0,.56-.46l3.13-4.5a.54.54,0,1,0-.88-.61l-2.81,4-2.81-4a.54.54,0,1,0-.88.61Z"/><rect class="cls-6" x="244.27" y="196.2" width="2.09" height="1.97"/><rect class="cls-6" x="244.27" y="200.85" width="2.09" height="1.97"/><rect class="cls-6" x="244.27" y="205.51" width="2.09" height="1.97"/><rect class="cls-6" x="244.27" y="210.16" width="2.09" height="1.97"/><rect class="cls-6" x="244.27" y="214.81" width="2.09" height="1.97"/><rect class="cls-6" x="244.27" y="219.46" width="2.09" height="1.97"/><rect class="cls-6" x="244.27" y="224.12" width="2.09" height="1.97"/><rect class="cls-6" x="244.27" y="228.77" width="2.09" height="1.97"/><rect class="cls-6" x="244.27" y="233.42" width="2.09" height="1.97"/><rect class="cls-6" x="244.27" y="238.07" width="2.09" height="1.97"/><rect class="cls-6" x="244.27" y="242.73" width="2.09" height="1.97"/><rect class="cls-6" x="244.27" y="247.38" width="2.09" height="1.96"/><rect class="cls-6" x="244.27" y="252.03" width="2.09" height="1.97"/><rect class="cls-6" x="531.9" y="407.96" width="2.09" height="1.97"/><rect class="cls-6" x="531.9" y="412.61" width="2.09" height="1.97"/><rect class="cls-6" x="531.9" y="417.26" width="2.09" height="1.97"/><rect class="cls-6" x="531.9" y="421.92" width="2.09" height="1.97"/><rect class="cls-6" x="531.9" y="426.57" width="2.09" height="1.97"/><rect class="cls-6" x="531.9" y="431.22" width="2.09" height="1.97"/><rect class="cls-6" x="531.9" y="435.87" width="2.09" height="1.97"/><rect class="cls-6" x="531.9" y="440.53" width="2.09" height="1.97"/><rect class="cls-6" x="531.9" y="445.18" width="2.09" height="1.97"/><rect class="cls-6" x="531.9" y="449.83" width="2.09" height="1.97"/><rect class="cls-6" x="531.9" y="454.48" width="2.09" height="1.97"/><rect class="cls-6" x="531.9" y="459.14" width="2.09" height="1.96"/><rect class="cls-6" x="531.9" y="463.79" width="2.09" height="1.97"/></svg>