<svg id="Layer_1" data-name="Layer 1" xmlns="http://www.w3.org/2000/svg" viewBox="0 0 261.71 161.24"><defs><style>.cls-1{fill:#404041;}.cls-2{fill:#3276b4;}</style></defs><title>MAZAYA- Icon-1</title><path class="cls-1" d="M213.08,64h-.31c0-.38,0-.76,0-1.14A62.86,62.86,0,0,0,89.31,46.2,61,61,0,1,0,61,161.24H213.08a48.62,48.62,0,1,0,0-97.25ZM131.63,52.73a2.83,2.83,0,1,1,2.83,2.83,2.83,2.83,0,0,1-2.83-2.83Zm81.45,100h-17v-27.2L207.68,114a11.36,11.36,0,1,0-6.24-5.77l-12.56,12.56a4.24,4.24,0,0,0-1.24,3v29H167.42V92.39l7.73-7.74a11.35,11.35,0,1,0-6.4-5.61l-8.58,8.59a4.25,4.25,0,0,0-1.24,3v62.12H138.71V63.22a11.33,11.33,0,1,0-8.49,0v89.53H110V110.37a4.25,4.25,0,0,0-1.24-3l-8.59-8.59A11.32,11.32,0,1,0,78.73,93.7a11.29,11.29,0,0,0,15,10.69l7.74,7.74v40.62H81.29v-22.3a4.25,4.25,0,0,0-1.24-3L67.48,114.88a11.22,11.22,0,0,0,1.09-4.81,11.36,11.36,0,1,0-7.32,10.59L72.8,132.21v20.54H61A52.51,52.51,0,1,1,89.85,56.37a4.25,4.25,0,0,0,6.52-2.82,54.36,54.36,0,0,1,107.91,9.31c0,1.7-.09,3.46-.26,5.25a4.24,4.24,0,0,0,4.68,4.63,40.75,40.75,0,0,1,4.37-.24,40.13,40.13,0,1,1,0,80.25Zm-4.24-49.34a2.83,2.83,0,1,1,2.83,2.83,2.83,2.83,0,0,1-2.83-2.83ZM176,74a2.83,2.83,0,1,1,2.83,2.83A2.83,2.83,0,0,1,176,74Zm-86,22.57a2.83,2.83,0,1,1,2.83-2.83,2.83,2.83,0,0,1-2.83,2.83ZM57.24,112.9a2.83,2.83,0,1,1,2.83-2.83,2.83,2.83,0,0,1-2.83,2.83Zm0,0"/><path class="cls-2" d="M201.39,152.75h-5.27v-27.2L207.68,114a11.36,11.36,0,1,0-6.24-5.77l-12.56,12.56a4.24,4.24,0,0,0-1.24,3v29H167.42V92.39l7.73-7.74a11.35,11.35,0,1,0-6.4-5.61l-8.58,8.59a4.25,4.25,0,0,0-1.24,3v62.12H138.71V63.22a11.33,11.33,0,1,0-8.49,0v89.53H110V110.37a4.25,4.25,0,0,0-1.24-3l-8.59-8.59a11.22,11.22,0,0,0,1.22-5.07,11.37,11.37,0,1,0-7.61,10.69l7.74,7.74v40.62H81.29v-22.3a4.25,4.25,0,0,0-1.24-3L67.48,114.88a11.22,11.22,0,0,0,1.09-4.81,11.36,11.36,0,1,0-7.32,10.59L72.8,132.21v20.54h-9c0,.11,0,.23,0,.34.68-.05,1.36-.1,2.08-.1H201.38C201.39,152.91,201.39,152.83,201.39,152.75Zm10.28-52.17a2.83,2.83,0,1,1-2.83,2.83A2.84,2.84,0,0,1,211.68,100.58ZM178.86,71.13A2.83,2.83,0,1,1,176,74,2.83,2.83,0,0,1,178.86,71.13Zm-88.8,25.4a2.83,2.83,0,1,1,2.83-2.83A2.83,2.83,0,0,1,90.06,96.53ZM57.24,112.9a2.83,2.83,0,1,1,2.83-2.83A2.83,2.83,0,0,1,57.24,112.9Zm77.22-57.34a2.83,2.83,0,1,1,2.83-2.83A2.84,2.84,0,0,1,134.46,55.56Z"/></svg>