<svg id="Layer_1" data-name="Layer 1" xmlns="http://www.w3.org/2000/svg" viewBox="0 0 200.09 176.35"><defs><style>.cls-1,.cls-4{fill:#3276b4;}.cls-1{stroke:#3276b4;stroke-miterlimit:10;stroke-width:3.08px;}.cls-2{fill:none;stroke:#404041;stroke-linecap:round;stroke-linejoin:round;stroke-width:5.1px;}.cls-3{fill:#404041;}</style></defs><title>MAZAYA- Icon-1</title><path class="cls-1" d="M115.64,108.87,101.1,119a1.72,1.72,0,0,0-1.18.72,2.18,2.18,0,0,0,0,2.21,1.71,1.71,0,0,0,1.18.72l14.54,10.11a1.73,1.73,0,0,0,2-2.84l-13.08-9.09,13.08-9.09a1.73,1.73,0,0,0-2-2.85Z"/><path class="cls-2" d="M12.43,17.78H82.9a3.48,3.48,0,0,1,3.48,3.48V166.94a1.14,1.14,0,0,1-1.14,1.14H10.09A1.14,1.14,0,0,1,9,166.94V21.26a3.48,3.48,0,0,1,3.48-3.48Z"/><path class="cls-2" d="M84.55,155.18H75.63V36.29c0-4.1-2.93-7.43-6.54-7.43H25.7c-3.61,0-6.54,3.33-6.54,7.43V155.18H10.32"/><rect class="cls-3" y="165.21" width="94.87" height="10.51" rx="1.12" ry="1.12"/><rect class="cls-2" x="42.83" y="148.42" width="7.16" height="18.22" rx="0.76" ry="0.76"/><path class="cls-4" d="M110.91,20.44a19.2,19.2,0,0,1,2.14,27l-.72.85c-.89.8-.42,2.46,1,3.7l1.12,1c1.45,1.24,3.34,1.57,4.19.74l.72-.84a27.53,27.53,0,0,0-3.07-38.77l-.84-.72c-1-.69-2.79-.06-4,1.39l-1,1.12c-1.24,1.45-1.44,3.17-.43,3.82Z"/><circle class="cls-4" cx="103.65" cy="34.62" r="6.94" transform="translate(10.04 91) rotate(-49.53)"/><path class="cls-4" d="M126.92.78l-.7-.57c-.78-.59-2.44.12-3.68,1.57l-.92,1.08C120.39,4.3,120,6,120.87,6.58l.72.6.37.31a36.24,36.24,0,0,1,4,51l-.66.75-.51.56c-.59.59.12,2.08,1.57,3.32l1.07.92c1.45,1.24,3.12,1.76,3.7,1.17l.51-.57.65-.74a44.58,44.58,0,0,0-5-62.77Z"/><rect class="cls-4" x="140.71" y="117.48" width="42.55" height="57.07" rx="2.26" ry="2.26" transform="translate(308 -15.97) rotate(90)"/><path class="cls-3" d="M188.88,65.26H154.73c-5.76,0-13.34,3.3-17.28,7.51l-4.71,5a29.42,29.42,0,0,0-7,17.67v69.67A11.22,11.22,0,0,0,137,176.35H188.9a11.22,11.22,0,0,0,11.19-11.21V76.46a11.22,11.22,0,0,0-11.21-11.2Zm7.94,99.9a7.94,7.94,0,0,1-7.94,7.92H137a7.94,7.94,0,0,1-7.93-7.92V95.48A26.16,26.16,0,0,1,135.13,80l4.72-5a23.3,23.3,0,0,1,14.89-6.47h34.15a7.94,7.94,0,0,1,7.94,7.93Zm0,0"/><path class="cls-3" d="M185.42,124.74H139.16a5.6,5.6,0,0,0-5.59,5.6v31.34a5.6,5.6,0,0,0,5.59,5.6h46.26a5.61,5.61,0,0,0,5.6-5.6V130.35a5.61,5.61,0,0,0-5.6-5.6Zm-19.49,1.64h7.95a2.17,2.17,0,0,1,2.18,2.17v6.82a4,4,0,0,1-4,4h-6.17a2.18,2.18,0,0,1-2.18-2.18v-8.6a2.18,2.18,0,0,1,2.18-2.17Zm-13.64,0h7.64a2.17,2.17,0,0,1,2.17,2.17v8.6a2.18,2.18,0,0,1-2.17,2.18h-7.64a2.18,2.18,0,0,1-2.18-2.18v-8.6a2.18,2.18,0,0,1,2.18-2.17Zm-13.13,0h7.13a2.18,2.18,0,0,1,2.18,2.17v8.6a2.18,2.18,0,0,1-2.18,2.18h-8.91a2.18,2.18,0,0,1-2.18-2.18v-6.8a4,4,0,0,1,4-4Zm7.61,39.28h-7.6a4,4,0,0,1-4-4v-3.63a2.19,2.19,0,0,1,2.18-2.18h9.39a2.19,2.19,0,0,1,2.18,2.18v5.42a2.19,2.19,0,0,1-2.18,2.18Zm13.63,0h-7.64a2.19,2.19,0,0,1-2.18-2.18v-5.42a2.18,2.18,0,0,1,2.18-2.18h7.64a2.19,2.19,0,0,1,2.18,2.18v5.42a2.19,2.19,0,0,1-2.18,2.18Zm13.47,0H166.4a2.18,2.18,0,0,1-2.17-2.18v-5.42a2.18,2.18,0,0,1,2.17-2.18h7.48a2.18,2.18,0,0,1,2.18,2.18v5.42a2.18,2.18,0,0,1-2.18,2.18Zm11.54,0h-5.54a2.19,2.19,0,0,1-2.18-2.18v-5.42a2.19,2.19,0,0,1,2.18-2.18h7.31a2.19,2.19,0,0,1,2.18,2.18v3.63a4,4,0,0,1-4,4Zm1.78-11.43H137.38a2.18,2.18,0,0,1-2.18-2.17v-8.91a2.18,2.18,0,0,1,2.18-2.17H172.1a5.61,5.61,0,0,0,5.6-5.6v-6.8a2.18,2.18,0,0,1,2.18-2.18h5.54a4,4,0,0,1,4,4v21.71a2.18,2.18,0,0,1-2.18,2.17Zm0,0"/><rect class="cls-3" x="162.31" y="139.21" width="1.83" height="17.05"/><polygon class="cls-3" points="133.57 147.97 133.57 146.14 145.84 146.14 151 153.72 149.48 154.75 144.87 147.97 133.57 147.97"/><polygon class="cls-3" points="177.03 153.67 184.51 145.66 184.51 124.74 186.34 124.74 186.34 146.38 178.37 154.92 177.03 153.67"/></svg>