<?xml version="1.0" encoding="utf-8"?>
<!-- Generator: Adobe Illustrator 21.0.0, SVG Export Plug-In . SVG Version: 6.00 Build 0)  -->
<svg version="1.1" id="Layer_1" xmlns="http://www.w3.org/2000/svg" xmlns:xlink="http://www.w3.org/1999/xlink" x="0px" y="0px"
	 viewBox="0 0 150 150" style="enable-background:new 0 0 150 150;" xml:space="preserve">
<style type="text/css">
	.st0{opacity:0.77;}
	.st1{fill:#5089C3;}
	.st2{fill:#3176B5;}
	.st3{fill:#F2F2F2;}
	.st4{fill:url(#SVGID_1_);}
	.st5{fill:none;stroke:#FFFFFF;stroke-width:6;stroke-miterlimit:10;}
	.st6{fill:none;stroke:#FFFFFF;stroke-width:3;stroke-miterlimit:10;}
	.st7{fill:none;stroke:#FFFFFF;stroke-width:2;stroke-miterlimit:10;}
	.st8{fill:#FFFFFF;}
	.st9{opacity:0.19;fill:#5089C3;}
	.st10{opacity:0.67;}
	.st11{opacity:0.67;fill:#5089C3;}
	.st12{opacity:0.45;fill:url(#SVGID_2_);}
	.st13{fill:url(#SVGID_3_);}
	.st14{opacity:0.78;fill:#F3F3F3;}
	.st15{fill:#333333;}
	.st16{fill:#3276B4;}
	.st17{fill:#3273B3;}
	.st18{fill:none;stroke:#3273B3;stroke-width:3.9428;stroke-miterlimit:10;}
	.st19{fill:#575656;}
	.st20{fill:#666666;}
	.st21{opacity:0.22;fill:#B0B0B0;}
	.st22{fill:none;stroke:#3176B5;stroke-width:2;stroke-miterlimit:10;}
	.st23{fill:none;stroke:#3176B5;stroke-width:1.5167;stroke-miterlimit:10;}
	.st24{fill:none;stroke:#000000;stroke-width:0.9656;stroke-miterlimit:10;}
	.st25{clip-path:url(#SVGID_5_);}
	.st26{fill:#F3F3F3;}
	.st27{fill:none;stroke:#4D4E4E;stroke-width:2.5143;stroke-miterlimit:10;}
	.st28{opacity:0.96;clip-path:url(#SVGID_9_);fill:#5089C3;}
	.st29{fill:#4D4D4D;}
	.st30{fill:#FFFFFF;stroke:#4D4D4D;stroke-width:5.25;stroke-miterlimit:10;}
	.st31{fill:url(#SVGID_10_);}
	.st32{fill:none;stroke:#4D4E4E;stroke-width:0.75;stroke-miterlimit:10;}
	.st33{fill:none;stroke:#3176B5;stroke-width:0.75;stroke-miterlimit:10;}
	.st34{fill:#404041;}
	.st35{fill:#404041;stroke:#FFFFFF;stroke-width:1.2282;stroke-miterlimit:10;}
	.st36{fill:none;stroke:#808184;stroke-width:2.7794;stroke-miterlimit:10;}
	.st37{fill:#FFFFFF;stroke:#808184;stroke-width:2.7794;stroke-miterlimit:10;}
	.st38{fill:none;stroke:#3276B4;stroke-width:2.7794;stroke-miterlimit:10;}
	.st39{fill:#FFFFFF;stroke:#3276B4;stroke-width:2.7794;stroke-miterlimit:10;}
	.st40{fill:none;stroke:#404041;stroke-width:4.4434;stroke-linecap:round;stroke-linejoin:round;stroke-miterlimit:10;}
	.st41{fill:none;stroke:#404041;stroke-width:3.569;stroke-linecap:round;stroke-linejoin:round;}
	.st42{fill:#3276B4;stroke:#3276B4;stroke-width:1.391;stroke-miterlimit:10;}
	.st43{fill:none;stroke:#404041;stroke-width:2.2998;stroke-linecap:round;stroke-linejoin:round;stroke-miterlimit:10;}
	.st44{fill:#E4F4FC;}
	.st45{fill-rule:evenodd;clip-rule:evenodd;fill:#3176B5;}
	.st46{fill:none;stroke:#3176B5;stroke-width:5.2787;stroke-miterlimit:10;}
</style>
<g>
	<g>
		<g>
			<path class="st34" d="M90.7,118L85.4,92c0,0,0,0,0,0l-1.9-9.3c0,0,0,0,0,0l-2.6-12.9c0,0,0,0,0,0l-4.1-20.1c-1.1,0-2.3,0-3.4,0
				L65,92l0,0l-5.2,26.1c-0.2,1,0.2,2.1,0.9,2.4c0.7,0.3,1.4-0.3,1.6-1.3l0.8-4l12.1-11.8l12.2,11.7l0.8,4c0.2,0.8,0.7,1.4,1.2,1.4
				c0.1,0,0.2,0,0.4-0.1C90.5,120.1,90.9,119.1,90.7,118z M72.3,68.5l2.7-13.9l2.8,13.9L72.3,68.5L72.3,68.5z M71.7,71l7.1,0
				l1.8,11.3l-10.7,0L71.7,71z M64.2,109.6l2.8-14l5.9,5.6L64.2,109.6z M75.2,98.9l-7.5-7.2l1.3-6.6l12.2,0l1.3,6.6L75.2,98.9z
				 M77.5,101.2l5.8-5.7l2.8,14L77.5,101.2z"/>
			<path class="st16" d="M65.3,54c0.3,0.3,0.7,0.4,1.1,0.4c0.4,0,0.8-0.1,1.1-0.4c0.6-0.6,0.6-1.5,0-2.1c-4.1-3.9-4.1-10.4,0-14.4
				c0.6-0.6,0.6-1.5,0-2.1c-0.6-0.6-1.6-0.6-2.2,0C60,40.5,60,48.9,65.3,54z"/>
			<path class="st16" d="M82.5,54c0.3,0.3,0.7,0.4,1.1,0.4c0.4,0,0.8-0.1,1.1-0.4c5.3-5.2,5.3-13.5-0.1-18.6c-0.6-0.6-1.6-0.6-2.2,0
				c-0.6,0.6-0.6,1.5,0,2.1c4.1,3.9,4.1,10.4,0,14.4C81.9,52.4,81.9,53.4,82.5,54z"/>
			<path class="st16" d="M60.8,59.9c0.4,0,0.8-0.1,1.1-0.4c0.6-0.6,0.6-1.5,0-2.1c-7.3-6.9-7.3-18.3-0.1-25.3c0.6-0.6,0.6-1.5,0-2.1
				c-0.6-0.6-1.6-0.6-2.2,0c-4.1,4-6.3,9.2-6.3,14.8s2.3,10.8,6.4,14.7C60,59.8,60.4,59.9,60.8,59.9z"/>
			<path class="st16" d="M90.8,35.3c4.5,7.1,3.5,16.1-2.6,22c-0.6,0.6-0.6,1.5,0,2.1c0.3,0.3,0.7,0.4,1.1,0.4c0.4,0,0.8-0.1,1.1-0.4
				c3.5-3.4,5.7-7.8,6.2-12.5c0.5-4.6-0.6-9.3-3.1-13.2C93,33,92,32.8,91.3,33.2C90.6,33.6,90.3,34.6,90.8,35.3z"/>
			<path class="st16" d="M89.2,32.4c2,0,2-3,0-3C87.2,29.4,87.2,32.5,89.2,32.4z"/>
		</g>
		<path class="st34" d="M81.6,45.6c0-3.7-3-6.6-6.6-6.6c-3.7,0-6.6,3-6.6,6.6c0,3.7,3,6.6,6.6,6.6C78.7,52.2,81.6,49.2,81.6,45.6z
			 M71.1,45.6c0-2.2,1.8-3.9,3.9-3.9c2.2,0,3.9,1.8,3.9,3.9c0,2.2-1.8,3.9-3.9,3.9C72.8,49.5,71.1,47.7,71.1,45.6z"/>
	</g>
</g>
</svg>
