<svg id="Layer_1" data-name="Layer 1" xmlns="http://www.w3.org/2000/svg" viewBox="0 0 223.22 166.25"><defs><style>.cls-1{fill:#fff;}.cls-2,.cls-3{fill:#404041;}.cls-3{stroke:#fff;stroke-miterlimit:10;stroke-width:2.72px;}.cls-4{fill:#3276b4;}</style></defs><title>MAZAYA- Icon-1</title><rect class="cls-1" x="16.23" y="16.95" width="190.38" height="143.28"/><path class="cls-2" d="M197.75,130.43V27.07a4.31,4.31,0,0,0-4.31-4.31H29.79a4.31,4.31,0,0,0-4.31,4.31V130.43a4.31,4.31,0,0,0,4.31,4.31H193.44A4.31,4.31,0,0,0,197.75,130.43Zm-6.23,2H31.71a4.09,4.09,0,0,1-4.09-4.09V29.18a4.09,4.09,0,0,1,4.09-4.09h159.8a4.09,4.09,0,0,1,4.09,4.09v99.13A4.09,4.09,0,0,1,191.51,132.41Z"/><path class="cls-3" d="M217.56,139h-6.89V22.77A12.94,12.94,0,0,0,197.75,9.84H25.48A12.94,12.94,0,0,0,12.56,22.77V139H5.67a4.31,4.31,0,0,0-4.31,4.31V152a12.93,12.93,0,0,0,12.92,12.92H208.94A12.93,12.93,0,0,0,221.86,152v-8.61A4.31,4.31,0,0,0,217.56,139ZM21.17,22.77a4.31,4.31,0,0,1,4.31-4.31H197.75a4.31,4.31,0,0,1,4.31,4.31V139h-64.6a4.31,4.31,0,0,0-3.73,2.15H89.5A4.31,4.31,0,0,0,85.77,139H21.17ZM213.25,152a4.31,4.31,0,0,1-4.31,4.31H14.28A4.31,4.31,0,0,1,10,152v-4.31H83.11a6.45,6.45,0,0,0,4.81,2.15H135.3a6.45,6.45,0,0,0,4.81-2.15h73.14Z"/><rect class="cls-1" x="117.57" y="52.17" width="72.97" height="72.97"/><path class="cls-2" d="M114.21,51v77.75H192V51Zm73.06,73H118.92V55.68h30.76v43L135,84l-4.84,4.82,22.93,22.93L176,88.85,171.19,84,156.52,98.7v-43h30.76Zm-1.78-1.78"/><path class="cls-4" d="M149.74,55.76V99L135.36,84.63l-4.74,4.73,22.48,22.48,22.47-22.48-4.73-4.73L156.45,99V55.68Z"/><rect class="cls-1" x="117.72" y="2.13" width="43.1" height="43.1" transform="translate(278.55 47.35) rotate(180)"/><path class="cls-2" d="M162.8,45.93V0H116.88V45.93ZM120.7,3.83H159V42.11H141.75V18L150,26.23l2.71-2.7L139.83,10.69,127,23.53l2.7,2.7L137.92,18V42.11H120.7Zm0,0"/><path class="cls-4" d="M141.77,42.69V17.79L150,26.07l2.73-2.72L139.84,10.41,126.9,23.35l2.72,2.72,8.28-8.28V42.73Z"/><rect class="cls-1" x="66.32" y="85.88" width="43.1" height="43.1" transform="translate(175.74 214.87) rotate(180)"/><path class="cls-2" d="M111.4,129.68V83.76H65.47v45.93ZM69.29,87.59h38.27v38.27H90.35V101.77L98.56,110l2.71-2.7L88.43,94.45,75.6,107.28l2.7,2.7,8.21-8.21v24.09H69.29Zm0,0"/><path class="cls-4" d="M90.36,126.44v-24.9l8.28,8.28,2.73-2.72L88.43,94.16,75.5,107.1l2.72,2.72,8.28-8.28v24.94Z"/><rect class="cls-1" x="32.65" y="98.06" width="30.14" height="30.14"/><path class="cls-2" d="M31.26,97.57V129.7H63.38V97.57ZM60.71,127H33.94V100.25H46V117.1l-5.75-5.75-1.89,1.89,9,9,9-9-1.89-1.89-5.74,5.75V100.25h12Zm0,0"/><path class="cls-4" d="M46,99.84v17.41l-5.79-5.79-1.91,1.9,9.05,9.05,9-9.05-1.9-1.9-5.79,5.79V99.81Z"/><rect class="cls-1" x="66.89" y="34.13" width="43.1" height="43.1"/><path class="cls-2" d="M64.91,33.43V79.35h45.93V33.43ZM107,75.52H68.74V37.25H86V61.34l-8.21-8.21L75,55.82,87.88,68.66,100.7,55.82,98,53.12l-8.21,8.21V37.25H107Zm0,0"/><path class="cls-4" d="M85.94,36.67v24.9l-8.28-8.28L74.93,56,87.87,68.95,100.81,56l-2.72-2.72-8.28,8.28V36.62Z"/></svg>