<?xml version="1.0" encoding="utf-8"?>
<!-- Generator: Adobe Illustrator 21.0.0, SVG Export Plug-In . SVG Version: 6.00 Build 0)  -->
<svg version="1.1" id="Layer_1" xmlns="http://www.w3.org/2000/svg" xmlns:xlink="http://www.w3.org/1999/xlink" x="0px" y="0px"
	 viewBox="0 0 261.7 161.3" style="enable-background:new 0 0 261.7 161.3;" xml:space="preserve">
<style type="text/css">
	.st0{fill:#404041;}
	.st1{fill:#3276B4;}
</style>
<g>
	<g>
		<g>
			<path class="st0" d="M158.4,156.8l-9.3-46c0,0,0,0,0,0l-3.3-16.4c0,0,0,0,0,0l-4.6-22.7c0,0,0,0,0,0L134,36.3c-2,0-4-0.1-6-0.1
				L113.2,111l0,0l-9.1,46c-0.4,1.8,0.3,3.6,1.6,4.2c1.2,0.5,2.5-0.5,2.8-2.3l1.4-7l21.3-20.8l21.4,20.6l1.4,7
				c0.3,1.5,1.2,2.4,2.2,2.4c0.2,0,0.4,0,0.6-0.1C158.1,160.5,158.8,158.6,158.4,156.8z M126.1,69.5l4.8-24.4l5,24.4L126.1,69.5
				L126.1,69.5z M125,73.9l12.5,0l3.2,19.9l-18.9,0.1L125,73.9z M111.8,141.9l4.9-24.7l10.3,9.9L111.8,141.9z M131.2,123.1
				L118,110.5l2.3-11.6l21.6-0.1l2.4,11.6L131.2,123.1z M135.3,127.1l10.3-10l5,24.7L135.3,127.1z"/>
			<path class="st1" d="M113.8,44c0.5,0.5,1.3,0.8,2,0.8s1.4-0.3,2-0.8c1.1-1,1.1-2.7,0-3.8c-7.3-7-7.3-18.3-0.1-25.3
				c1.1-1,1.1-2.7,0-3.8c-1.1-1-2.8-1-3.9,0C104.4,20.2,104.4,35,113.8,44z"/>
			<path class="st1" d="M144.1,43.9c0.5,0.5,1.3,0.8,2,0.8c0.7,0,1.4-0.3,2-0.8c9.4-9.1,9.3-23.8-0.1-32.8c-1.1-1-2.8-1-3.9,0
				c-1.1,1-1.1,2.7,0,3.8c7.3,7,7.3,18.3,0.1,25.3C143,41.2,143,42.9,144.1,43.9z"/>
			<path class="st1" d="M105.9,54.4c0.7,0,1.4-0.3,2-0.8c1.1-1,1.1-2.7,0-3.8C95,37.6,95,17.7,107.7,5.4c1.1-1,1.1-2.7,0-3.8
				c-1.1-1-2.8-1-3.9,0c-7.2,7-11.1,16.2-11.1,26c0,9.8,4,19.1,11.3,26C104.4,54.1,105.1,54.4,105.9,54.4z"/>
			<path class="st1" d="M158.7,11c8,12.4,6.1,28.4-4.6,38.7c-1.1,1-1.1,2.7,0,3.8c0.5,0.5,1.3,0.8,2,0.8s1.4-0.3,2-0.8
				c6.1-5.9,10-13.7,10.9-22c0.9-8.1-1-16.4-5.5-23.3c-0.8-1.2-2.5-1.6-3.8-0.9C158.3,8.1,157.9,9.7,158.7,11z"/>
			<path class="st1" d="M155.9,6c3.6,0,3.5-5.3,0-5.3C152.3,0.7,152.3,6,155.9,6z"/>
		</g>
		<path class="st0" d="M142.5,29.2c0-6.4-5.2-11.7-11.7-11.7c-6.4,0-11.7,5.2-11.7,11.7c0,6.4,5.2,11.7,11.7,11.7
			C137.3,40.8,142.5,35.6,142.5,29.2z M124,29.2c0-3.8,3.1-6.9,6.9-6.9c3.8,0,6.9,3.1,6.9,6.9c0,3.8-3.1,6.9-6.9,6.9
			C127,36.1,124,33,124,29.2z"/>
	</g>
</g>
</svg>
