<svg id="Layer_1" data-name="Layer 1" xmlns="http://www.w3.org/2000/svg" viewBox="0 0 250.28 168.23"><defs><style>.cls-1{fill:#3276b4;}.cls-2{fill:#404041;}.cls-3{fill:none;stroke:#404041;stroke-linecap:round;stroke-linejoin:round;stroke-width:7.91px;}</style></defs><title>MAZAYA- Icon-1</title><path class="cls-1" d="M167.9,26.73A16.22,16.22,0,0,1,185.33,41.6l.07.94c-.05,1,1.22,1.73,2.83,1.6l1.24-.1c1.61-.13,2.94-1.06,3-2.06l-.07-.93a23.27,23.27,0,0,0-25-21.33l-.93.07c-1,.17-1.7,1.63-1.57,3.23l.1,1.24c.13,1.61,1,2.75,2,2.54Z"/><circle class="cls-1" cx="172.03" cy="39.54" r="5.87" transform="translate(-2.58 13.71) rotate(-4.53)"/><path class="cls-1" d="M165.72,5.42l-.76.07c-.82.12-1.39,1.53-1.26,3.14l.09,1.19c.13,1.61.92,2.82,1.77,2.68l.79-.07.41,0a30.62,30.62,0,0,1,32.91,28.08c0,.28,0,.56.05.84l0,.64c0,.7,1.32,1.17,2.93,1l1.19-.09c1.61-.13,2.92-.81,2.91-1.51l0-.64c0-.28,0-.56-.05-.83A37.67,37.67,0,0,0,166.21,5.37Z"/><path class="cls-2" d="M77.1,121.49a2.62,2.62,0,0,0-3.7-3.7l-10,10a2.62,2.62,0,0,0,3.7,3.7Zm0,0"/><path class="cls-1" d="M143,51.39a12.3,12.3,0,1,0,17.39,0,12.22,12.22,0,0,0-17.39,0Zm13.68,13.68a7.06,7.06,0,1,1,2.07-5,7.06,7.06,0,0,1-2.07,5Zm0,0"/><path class="cls-2" d="M85.35,126a2.62,2.62,0,0,0-3.7,0l-14,14a2.62,2.62,0,1,0,3.7,3.7l14-14a2.62,2.62,0,0,0,0-3.7Zm0,0"/><path class="cls-2" d="M176.69,36.91a2.62,2.62,0,0,0-1.82-1.82A49,49,0,0,0,145,36.57a58.18,58.18,0,0,0-20.7,12.91l-8.14,8.14-29.5,4.61a2.62,2.62,0,0,0-1.45.74L66.32,81.84a2.62,2.62,0,0,0,1.74,4.47l18.61.78L82,91.75a2.62,2.62,0,0,0,0,3.7l2.72,2.72L76.6,110.64a2.62,2.62,0,0,0,.34,3.28l20.91,20.91a2.62,2.62,0,0,0,3.28.34L113.6,127l2.72,2.72a2.62,2.62,0,0,0,3.7,0l4.66-4.67.78,18.61a2.62,2.62,0,0,0,4.47,1.74l18.87-18.87a2.62,2.62,0,0,0,.74-1.45l4.61-29.5,8.14-8.14A58.17,58.17,0,0,0,175.2,66.8a49,49,0,0,0,1.49-29.89Zm-76.64,92.72L82.14,111.72,88.51,102l8.8,8.8-1,1a2.62,2.62,0,0,0,3.7,3.7l1-1,8.8,8.8ZM158.59,83.8l-8.75,8.75h0l-9.1,9.1a2.62,2.62,0,0,0,3.7,3.7l3.43-3.42-3.37,21.56-14,14-.73-17.46,7.32-7.32a2.62,2.62,0,1,0-3.7-3.7l-8.12,8.12h0l-7,7-2.33-2.33-.08-.08-11-11,31.67-31.67a2.62,2.62,0,0,0-3.7-3.7L101,107.06,90,96l-.08-.08L87.56,93.6l7-7h0l8.12-8.12a2.62,2.62,0,1,0-3.7-3.7L91.7,82.06l-17.46-.73,14-14,21.56-3.37-3.43,3.43,3.7,3.7L119.2,62l.06-.06L128,53.19c7.29-7.29,24.59-18.08,44-13.43,4.65,19.46-6.15,36.76-13.43,44Zm0,0"/><path class="cls-2" d="M90.28,134.68l-10,10a2.62,2.62,0,0,0,3.7,3.7l10-10a2.62,2.62,0,1,0-3.7-3.7Zm0,0"/><polyline class="cls-3" points="9.39 6.33 9.39 164.28 239.83 164.28 240.98 120.2"/><polygon class="cls-2" points="0 17.36 9.39 7.96 18.77 17.36 18.77 9.39 9.39 0 0 9.39 0 17.36"/><polygon class="cls-2" points="250.07 131.47 240.94 121.83 231.31 130.98 231.52 123.01 241.15 113.87 250.28 123.5 250.07 131.47"/></svg>